<?xml version="1.0" encoding="UTF-8" standalone="no"?>
<svg width="50px" height="50px" viewBox="0 0 50 50" version="1.1" xmlns="http://www.w3.org/2000/svg" xmlns:xlink="http://www.w3.org/1999/xlink">
    <!-- Generator: Sketch 46.1 (44463) - http://www.bohemiancoding.com/sketch -->
    <title>公交站</title>
    <desc>Created with Sketch.</desc>
    <defs>
        <circle id="path-1" cx="25" cy="25" r="25"></circle>
    </defs>
    <g id="普通" stroke="none" stroke-width="1" fill="none" fill-rule="evenodd">
        <g id="公交站">
            <g id="Group">
                <g id="Oval-5">
                    <use fill="#FFFFFF" fill-rule="evenodd" xlink:href="#path-1"></use>
                    <circle stroke="#006DCE" stroke-width="1" cx="25" cy="25" r="24.5"></circle>
                </g>
                <g id="公交站" transform="translate(7.500000, 8.500000)" fill="#4883FD">
                    <path d="M33.3333333,5.41666667 L31.2220062,5.41666667 C31.240525,5.60861057 31.25,5.80319878 31.25,6 L31.25,24.4166667 C31.25,25.481594 30.9725629,26.4817224 30.4860244,27.3487163 C30.9456942,27.6454419 31.25,28.1621837 31.25,28.75 L31.25,31.6666667 C31.25,32.5871412 30.5038079,33.3333333 29.5833333,33.3333333 C28.6628588,33.3333333 27.9166667,32.5871412 27.9166667,31.6666667 L27.9166667,29.7929869 C27.1133607,30.1921959 26.2078943,30.4166667 25.25,30.4166667 L9.75,30.4166667 L9.75,30.4166667 C8.79210568,30.4166667 7.88663931,30.1921959 7.08333333,29.7929869 L7.08333333,31.6666667 L7.08333333,31.6666667 C7.08333333,32.5871412 6.33714125,33.3333333 5.41666667,33.3333333 L5.41666667,33.3333333 C4.49619208,33.3333333 3.75,32.5871412 3.75,31.6666667 L3.75,28.75 C3.75,28.1621837 4.05430582,27.6454419 4.51397558,27.3487163 C4.02743705,26.4817224 3.75,25.481594 3.75,24.4166667 L3.75,6 L3.75,6 C3.75,5.80319878 3.75947502,5.60861057 3.77799377,5.41666667 L1.66666667,5.41666667 L1.66666667,5.83333333 L1.66666667,5.83333333 C1.66666667,6.29357062 1.29357062,6.66666667 0.833333333,6.66666667 L0.833333333,6.66666667 C0.373096042,6.66666667 5.63628126e-17,6.29357062 0,5.83333333 L0,5 L-1.11022302e-16,5 C-1.22958682e-16,4.90253207 0.0167332595,4.8089724 0.0474837319,4.72203703 C0.0166480743,4.6257756 1.30423233e-17,4.52316532 0,4.41666667 L0,4.33333333 C-6.76353751e-17,3.78104858 0.44771525,3.33333333 1,3.33333333 L1,3.33333333 L4.37367977,3.33333333 C5.35548149,1.35770869 7.39418582,2.20911288e-15 9.75,1.77635684e-15 L9.75,0 L25.25,0 L25.25,-8.8817842e-16 C27.6058142,7.71448852e-16 29.6445185,1.35770869 30.6263202,3.33333333 L34,3.33333333 C34.5522847,3.33333333 35,3.78104858 35,4.33333333 L35,4.41666667 C35,4.52316532 34.9833519,4.6257756 34.9525163,4.72203703 C34.9832667,4.8089724 35,4.90253207 35,5 L35,5.83333333 C35,6.29357062 34.626904,6.66666667 34.1666667,6.66666667 C33.7064294,6.66666667 33.3333333,6.29357062 33.3333333,5.83333333 L33.3333333,5.41666667 Z M7.91666667,23.3333333 C8.83714125,23.3333333 9.58333333,22.5871412 9.58333333,21.6666667 C9.58333333,20.7461921 8.83714125,20 7.91666667,20 C6.99619208,20 6.25,20.7461921 6.25,21.6666667 C6.25,22.5871412 6.99619208,23.3333333 7.91666667,23.3333333 Z M27.0833333,23.3333333 C28.0038079,23.3333333 28.75,22.5871412 28.75,21.6666667 C28.75,20.7461921 28.0038079,20 27.0833333,20 C26.1628588,20 25.4166667,20.7461921 25.4166667,21.6666667 C25.4166667,22.5871412 26.1628588,23.3333333 27.0833333,23.3333333 Z M11.25,2.08333333 L11.25,2.08333333 C8.48857625,2.08333333 6.25,4.32190958 6.25,7.08333333 L6.25,7.08333333 L6.25,12.0833333 C6.25,14.8447571 8.48857625,17.0833333 11.25,17.0833333 L23.75,17.0833333 C26.5114237,17.0833333 28.75,14.8447571 28.75,12.0833333 L28.75,7.08333333 C28.75,4.32190958 26.5114237,2.08333333 23.75,2.08333333 L11.25,2.08333333 Z" id="Combined-Shape"></path>
                </g>
            </g>
        </g>
    </g>
</svg>