<?xml version="1.0" encoding="UTF-8" standalone="no"?>
<svg width="50px" height="50px" viewBox="0 0 50 50" version="1.1" xmlns="http://www.w3.org/2000/svg" xmlns:xlink="http://www.w3.org/1999/xlink">
    <!-- Generator: Sketch 46.1 (44463) - http://www.bohemiancoding.com/sketch -->
    <title>商圈</title>
    <desc>Created with Sketch.</desc>
    <defs>
        <circle id="path-1" cx="25" cy="25" r="25"></circle>
    </defs>
    <g id="普通" stroke="none" stroke-width="1" fill="none" fill-rule="evenodd">
        <g id="商圈">
            <g id="Group">
                <g id="Oval-5">
                    <use fill="#FFFFFF" fill-rule="evenodd" xlink:href="#path-1"></use>
                    <circle stroke="#006DCE" stroke-width="1" cx="25" cy="25" r="24.5"></circle>
                </g>
                <g id="商圈/景区商铺" transform="translate(7.500000, 7.500000)" fill-rule="nonzero" fill="#885ADA">
                    <path d="M17.5707071,0.0353535354 C8.02525253,0.0353535354 0.282828283,7.77777778 0.282828283,17.3232323 C0.282828283,26.8686869 8.02525253,34.6111111 17.5707071,34.6111111 C27.1161616,34.6111111 34.8585859,26.8686869 34.8585859,17.3232323 C34.8585859,7.77777778 27.0808081,0.0353535354 17.5707071,0.0353535354 Z M17.5707071,31.6767677 C9.65151515,31.6767677 3.18181818,25.2424242 3.18181818,17.3232323 C3.18181818,9.4040404 9.65151515,2.96969697 17.5707071,2.96969697 C25.489899,2.96969697 31.9242424,9.4040404 31.9242424,17.3232323 C31.9242424,25.2424242 25.489899,31.6767677 17.5707071,31.6767677 Z" id="Shape"></path>
                    <path d="M24.0828283,11.8752525 C24.0828283,11.6631313 23.9060606,11.5217172 23.6939394,11.5217172 L21.0424242,11.5217172 C20.9010101,9.18838384 19.3454545,7.35 17.4363636,7.35 C15.5272727,7.35 14.0070707,9.18838384 13.830303,11.5217172 L11.1787879,11.5217172 C10.9666667,11.5217172 10.8252525,11.6631313 10.789899,11.8752525 L9.8,25.0974747 C9.8,25.2035354 9.83535354,25.309596 9.90606061,25.380303 C9.97676768,25.4510101 10.0828283,25.4863636 10.1888889,25.4863636 L24.8252525,25.4863636 C24.9313131,25.4863636 25.0373737,25.4510101 25.1080808,25.3449495 C25.1787879,25.2388889 25.2141414,25.1681818 25.2141414,25.0621212 L24.0828283,11.8752525 Z M17.4363636,8.30454545 C18.779798,8.30454545 19.8757576,9.6479798 20.0525253,11.4156566 L14.820202,11.4156566 C14.9969697,9.6479798 16.1282828,8.30454545 17.4363636,8.30454545 Z M14.820202,14.880303 C14.4666667,14.880303 14.1484848,14.5621212 14.1484848,14.2085859 C14.1484848,13.8550505 14.4666667,13.5368687 14.820202,13.5368687 C15.1737374,13.5368687 15.4919192,13.8550505 15.4919192,14.2085859 C15.4919192,14.5974747 15.1737374,14.880303 14.820202,14.880303 Z M20.0171717,14.880303 C19.6636364,14.880303 19.3454545,14.5621212 19.3454545,14.2085859 C19.3454545,13.8550505 19.6636364,13.5368687 20.0171717,13.5368687 C20.3707071,13.5368687 20.6888889,13.8550505 20.6888889,14.2085859 C20.6888889,14.5974747 20.3707071,14.880303 20.0171717,14.880303 Z" id="Shape"></path>
                </g>
            </g>
        </g>
    </g>
</svg>