<?xml version="1.0" encoding="UTF-8" standalone="no"?>
<svg width="50px" height="50px" viewBox="0 0 50 50" version="1.1" xmlns="http://www.w3.org/2000/svg" xmlns:xlink="http://www.w3.org/1999/xlink">
    <!-- Generator: Sketch 46.1 (44463) - http://www.bohemiancoding.com/sketch -->
    <title>摄像头</title>
    <desc>Created with Sketch.</desc>
    <defs>
        <circle id="path-1" cx="25" cy="25" r="25"></circle>
    </defs>
    <g id="普通" stroke="none" stroke-width="1" fill="none" fill-rule="evenodd">
        <g id="摄像头">
            <g id="Group">
                <g id="Oval-5">
                    <use fill="#FFFFFF" fill-rule="evenodd" xlink:href="#path-1"></use>
                    <circle stroke="#006DCE" stroke-width="1" cx="25" cy="25" r="24.5"></circle>
                </g>
                <g id="摄像头" transform="translate(7.500000, 11.500000)" fill-rule="nonzero" fill="#858A8D">
                    <path d="M7.43769171,0.0870399061 C6.60190923,0.240004695 5.85097027,0.952744914 5.56543818,1.93939437 L4.4964867,5.65740767 L26.7978951,12.1307261 L29.4469405,10.7364664 L28.7232786,13.2660626 L26.9970501,14.1689914 L18.02741,11.5664045 L14.8405477,10.6435164 L4.62920188,7.67575196 L4.04504695,9.69409624 L12.9682394,12.283428 C12.7846948,12.6641502 12.6960172,13.0759397 12.6960172,13.5382465 C12.6960172,13.7524038 12.721651,13.9551354 12.762457,14.1557034 L9.32988263,17.0039585 L5.39942097,17.0039585 L5.39942097,15.8421064 C5.39942097,15.0772606 4.79954617,14.4724452 4.05172926,14.4146596 L4.05172926,11.9713967 C4.05172926,11.1691573 3.40321596,10.5107465 2.59761346,10.5107465 L0.0547730829,10.5107465 L0.0547730829,26.5512793 L2.59761346,26.5512793 C3.39992958,26.5512793 4.05172926,25.8962645 4.05172926,25.0906346 L4.05172926,22.6539937 C4.8029421,22.5928067 5.39942097,21.9881721 5.39942097,21.2199194 L5.39942097,20.0580344 L9.88095462,20.0580344 C10.2378013,20.0580344 10.5815023,19.9373255 10.8569562,19.7061776 L14.8272379,16.4130884 C15.1127152,16.5014703 15.4141315,16.5657848 15.7301721,16.5657848 C17.2632707,16.5657848 18.5306103,15.4151448 18.7311894,13.9432441 L28.3449061,16.7317692 L28.8162285,15.1051291 C28.8909937,15.1357254 28.9701408,15.1648865 29.0618858,15.1648865 L31.1599139,15.1648865 C31.4658216,15.1648865 31.7288419,14.9691549 31.8172457,14.680216 L33.0586776,10.3912261 C33.1334977,10.0988803 33.0249922,9.79396948 32.7666275,9.64099922 L32.2155556,9.30239202 L34.9509233,7.86165728 L15.8696244,2.31784351 L14.8538576,5.77692254 L13.5723865,5.39848435 L14.5815258,1.95269327 L13.3864319,1.59417058 L12.3906025,5.05987167 L11.1091862,4.67480047 L12.1051252,1.22900939 L10.8038263,0.850565728 L9.8079421,4.30963928 L8.50658842,3.9312011 L9.50252739,0.485410016 L8.28755086,0.126887324 C8.00448357,0.0427503912 7.71626761,0.0360461659 7.43769171,0.0870399061 L7.43769171,0.0870399061 Z" id="Shape"></path>
                </g>
            </g>
        </g>
    </g>
</svg>