<?xml version="1.0" encoding="UTF-8" standalone="no"?>
<svg width="50px" height="50px" viewBox="0 0 50 50" version="1.1" xmlns="http://www.w3.org/2000/svg" xmlns:xlink="http://www.w3.org/1999/xlink">
    <!-- Generator: Sketch 46.1 (44463) - http://www.bohemiancoding.com/sketch -->
    <title>巡查点</title>
    <desc>Created with Sketch.</desc>
    <defs>
        <circle id="path-1" cx="25" cy="25" r="25"></circle>
    </defs>
    <g id="普通" stroke="none" stroke-width="1" fill="none" fill-rule="evenodd">
        <g id="巡查点">
            <g id="Group">
                <g id="Oval-5">
                    <use fill="#FFFFFF" fill-rule="evenodd" xlink:href="#path-1"></use>
                    <circle stroke="#006DCE" stroke-width="1" cx="25" cy="25" r="24.5"></circle>
                </g>
                <g id="巡更" transform="translate(7.500000, 8.500000)" fill-rule="nonzero">
                    <path d="M34.6752577,15.6958763 C34.4948454,14.9020619 33.8453608,14.7216495 33.8453608,14.7216495 L30.8865979,15.0463918 L28.2164948,8.76804124 C27.9639175,8.04639175 27.0979381,6.89175258 25.3298969,6.71134021 L23.0927835,6.71134021 C23.3092784,6.42268041 23.4175258,6.09793814 23.4175258,5.70103093 C23.4175258,4.7628866 22.6597938,4.00515464 21.7216495,4.00515464 L13.3505155,4.00515464 C12.4123711,4.00515464 11.6546392,4.7628866 11.6546392,5.70103093 C11.6546392,6.06185567 11.7628866,6.42268041 11.9793814,6.71134021 L9.70618557,6.71134021 L9.59793814,6.71134021 C7.82989691,6.89175258 6.96391753,8.04639175 6.71134021,8.76804124 L4.07731959,15.0463918 L1.22680412,14.757732 C1.22680412,14.757732 0.577319588,14.9381443 0.396907216,15.7319588 C0.216494845,16.5257732 -5.05151476e-15,17.8969072 1.80412371,18.3659794 L2.77835052,18.4742268 C1.58762887,20.7474227 0.324742268,24.7886598 3.6443299,28.2164948 C3.71649485,28.2886598 4.54639175,28.9381443 4.97938144,29.0463918 L4.97938144,31.0309278 C4.97938144,31.7886598 5.59278351,32.4020619 6.35051546,32.4020619 L8.15463918,32.4020619 C8.91237113,32.4020619 9.5257732,31.7886598 9.5257732,31.0309278 L9.5257732,29.1546392 L25.5103093,29.1546392 L25.5103093,30.9948454 C25.5103093,31.7525773 26.1237113,32.3659794 26.8814433,32.3659794 L28.7216495,32.3659794 C29.4793814,32.3659794 30.0927835,31.7525773 30.0927835,30.9948454 L30.0927835,29.0103093 C30.5979381,28.8659794 31.0309278,28.5773196 31.3556701,28.1804124 C34.7474227,24.7886598 33.6649485,20.7474227 32.5103093,18.4020619 L33.3402062,18.3298969 C35.0721649,17.8608247 34.8556701,16.5257732 34.6752577,15.6958763 Z M17.5360825,4.94329897 L21.7216495,4.94329897 C22.1546392,4.94329897 22.5154639,5.30412371 22.5154639,5.7371134 C22.5154639,6.17010309 22.1546392,6.53092784 21.7216495,6.53092784 L17.5360825,6.53092784 L17.5360825,4.94329897 Z M8.84020619,9.63402062 L8.87628866,9.56185567 C8.91237113,9.48969072 9.09278351,9.09278351 9.77835052,8.98453608 L25.185567,8.98453608 C25.871134,9.05670103 26.0876289,9.45360825 26.0876289,9.5257732 L28.7216495,15.7319588 L6.27835052,15.6958763 L8.84020619,9.63402062 Z M7.72164948,23.5257732 C6.60309278,23.5257732 5.7371134,22.6237113 5.7371134,21.5412371 C5.7371134,20.4226804 6.63917526,19.556701 7.72164948,19.556701 C8.84020619,19.556701 9.70618557,20.4587629 9.70618557,21.5412371 C9.70618557,22.6237113 8.80412371,23.5257732 7.72164948,23.5257732 Z M26.9896907,23.5257732 C25.871134,23.5257732 25.0051546,22.6237113 25.0051546,21.5412371 C25.0051546,20.4226804 25.9072165,19.556701 26.9896907,19.556701 C28.1082474,19.556701 28.9742268,20.4587629 28.9742268,21.5412371 C29.0103093,22.6237113 28.1082474,23.5257732 26.9896907,23.5257732 Z" id="Shape" fill="#4883FD"></path>
                    <rect id="Rectangle-path" fill="#0061DF" x="16.9226804" y="0.0360824742" width="1.22680412" height="1.91237113"></rect>
                    <rect id="Rectangle-path" fill="#0061DF" transform="translate(11.634557, 1.535419) rotate(45.000000) translate(-11.634557, -1.535419) " x="10.6783811" y="0.922023151" width="1.91235279" height="1.22679236"></rect>
                    <rect id="Rectangle-path" fill="#0061DF" transform="translate(23.170052, 1.535957) rotate(45.000000) translate(-23.170052, -1.535957) " x="22.5566561" y="0.579780562" width="1.22679236" height="1.91235279"></rect>
                </g>
            </g>
        </g>
    </g>
</svg>