<?xml version="1.0" encoding="UTF-8" standalone="no"?>
<svg width="50px" height="50px" viewBox="0 0 50 50" version="1.1" xmlns="http://www.w3.org/2000/svg" xmlns:xlink="http://www.w3.org/1999/xlink">
    <!-- Generator: Sketch 46.1 (44463) - http://www.bohemiancoding.com/sketch -->
    <title>乡村旅游点</title>
    <desc>Created with Sketch.</desc>
    <defs>
        <circle id="path-1" cx="25" cy="25" r="25"></circle>
    </defs>
    <g id="普通" stroke="none" stroke-width="1" fill="none" fill-rule="evenodd">
        <g id="乡村旅游点">
            <g id="Group">
                <g id="Oval-5">
                    <use fill="#FFFFFF" fill-rule="evenodd" xlink:href="#path-1"></use>
                    <circle stroke="#006DCE" stroke-width="1" cx="25" cy="25" r="24.5"></circle>
                </g>
                <g id="乡村旅游点" transform="translate(1.500000, 6.500000)" fill-rule="nonzero" fill="#945C03">
                    <path d="M33.0163736,20.3104337 L33.0163736,17.4214279 C33.0163736,17.3345626 33.0183441,17.2489719 33.0221657,17.164984 L28.8983868,17.164984 C28.6442614,17.164984 28.4103505,17.0243782 28.2760684,16.7951297 C28.1461179,16.5689377 28.1374545,16.2800845 28.2572977,16.0431943 L29.9885271,12.5800124 L29.4124133,12.5800124 C29.1409611,12.5800124 28.8926113,12.41801 28.7713241,12.1597233 C28.6471492,11.9014366 28.6745832,11.5927151 28.8362994,11.3634666 L31.1941789,7.99504069 L30.3307301,7.99504069 C30.0621657,7.99504069 29.8195915,7.83915166 29.6968604,7.59156319 C29.5741294,7.34397472 29.5842367,7.04289491 29.73007,6.80447638 L33.1737581,1.30709535 C33.3080403,1.09313 33.5318439,0.964750794 33.7744182,0.964750794 C34.0169925,0.964750794 34.24224,1.09313 34.3779661,1.30709535 L37.7234694,6.65470064 C37.8736344,6.79530644 37.9674875,7.00315849 37.9674875,7.22629378 C37.9674875,7.64811117 37.6411674,7.99045572 37.2455403,7.99045572 C37.2368769,7.99198405 37.2253258,7.99198405 37.2152185,7.99045572 L36.3517697,7.99045572 L38.6114644,11.2152191 C38.7731806,11.3558249 38.8814727,11.5667336 38.8814727,11.8112655 C38.8814727,12.2330828 38.5565964,12.5754274 38.1595255,12.5754274 C38.1537499,12.5769557 38.1407548,12.5769557 38.1292037,12.5754274 L37.5530898,12.5754274 L39.2828753,16.0386093 C39.4027185,16.2754995 39.3940552,16.5643528 39.2641047,16.7905447 C39.1399298,17.0259066 38.9060189,17.164984 38.6504496,17.164984 L38.6504496,17.164984 L34.454476,17.164984 C34.4582976,17.2489719 34.460268,17.3345626 34.460268,17.4214279 L34.460268,19.9872984 C38.5986777,19.1152841 42.9975644,18.6475393 47.4996338,18.6340056 C47.427503,31.8271802 36.7101368,42.5 23.5,42.5 C12.8935535,42.5 3.89407594,35.6197478 0.721220125,26.0788961 C5.99064635,26.2594818 10.8263537,27.2660236 14.8748271,28.9044161 C19.4677759,24.976765 25.8054401,22.0198749 33.0163736,20.3104337 Z M11.4171575,13.4725535 C9.42602711,13.4725535 7.8074215,11.7593024 7.8074215,9.65174379 C7.8074215,7.54418515 9.42602711,5.83093406 11.4171575,5.83093406 C13.4082878,5.83093406 15.0268935,7.54418515 15.0268935,9.65174379 C15.0268935,11.7593024 13.4082878,13.4725535 11.4171575,13.4725535 Z" id="Combined-Shape"></path>
                </g>
            </g>
        </g>
    </g>
</svg>