<?xml version="1.0" encoding="UTF-8" standalone="no"?>
<svg width="50px" height="50px" viewBox="0 0 50 50" version="1.1" xmlns="http://www.w3.org/2000/svg" xmlns:xlink="http://www.w3.org/1999/xlink">
    <!-- Generator: Sketch 46.1 (44463) - http://www.bohemiancoding.com/sketch -->
    <title>防卫范围 </title>
    <desc>Created with Sketch.</desc>
    <defs>
        <circle id="path-1" cx="25" cy="25" r="25"></circle>
    </defs>
    <g id="普通" stroke="none" stroke-width="1" fill="none" fill-rule="evenodd">
        <g id="防卫范围-">
            <g id="Group">
                <g id="Oval-5">
                    <use fill="#FFFFFF" fill-rule="evenodd" xlink:href="#path-1"></use>
                    <circle stroke="#006DCE" stroke-width="1" cx="25" cy="25" r="24.5"></circle>
                </g>
                <g id="保卫" transform="translate(7.500000, 7.500000)">
                    <path d="M18.53985,11.1419 L17.5,11.1419 L16.46015,11.1419 C16.46015,11.1419 15.8228,13.2223 12.43375,13.2223 C12.43375,13.7928 11.02465,21.308 17.5,23.8581 C23.97535,21.30765 22.56625,13.79245 22.56625,13.2223 C19.17755,13.2223 18.53985,11.1419 18.53985,11.1419 Z" id="Shape" fill="#0030CE" fill-rule="nonzero"></path>
                    <path d="M24.843,11.29975 C19.93145,11.29975 19.0078,8.28485 19.0078,8.28485 L17.5,8.28485 L15.99255,8.28485 C15.99255,8.28485 15.06855,11.29975 10.15735,11.29975 C10.15735,12.12645 8.11475,23.0195 17.50035,26.71515 C26.88525,23.0195 24.843,12.12645 24.843,11.29975 Z M17.5,25.522 C12.80195,23.47485 10.62005,18.9413 11.1685,12.36165 C14.5453,12.0792 16.05975,10.4041 16.6754,9.3877 L17.5,9.3877 L18.3246,9.3877 C18.94025,10.4041 20.4547,12.0792 23.8315,12.36165 C24.37995,18.94095 22.19805,23.47485 17.5,25.522 Z" id="Shape" fill="#0030CE" fill-rule="nonzero"></path>
                    <circle id="Oval-12" stroke="#000000" stroke-dasharray="3" cx="17.5" cy="17.5" r="17.5"></circle>
                </g>
            </g>
        </g>
    </g>
</svg>