<?xml version="1.0" encoding="UTF-8" standalone="no"?>
<svg width="50px" height="50px" viewBox="0 0 50 50" version="1.1" xmlns="http://www.w3.org/2000/svg" xmlns:xlink="http://www.w3.org/1999/xlink">
    <!-- Generator: Sketch 46.1 (44463) - http://www.bohemiancoding.com/sketch -->
    <title>娱乐</title>
    <desc>Created with Sketch.</desc>
    <defs>
        <circle id="path-1" cx="25" cy="25" r="25"></circle>
    </defs>
    <g id="普通" stroke="none" stroke-width="1" fill="none" fill-rule="evenodd">
        <g id="娱乐">
            <g id="Group">
                <g id="Oval-5">
                    <use fill="#FFFFFF" fill-rule="evenodd" xlink:href="#path-1"></use>
                    <circle stroke="#006DCE" stroke-width="1" cx="25" cy="25" r="24.5"></circle>
                </g>
                <g id="娱乐" transform="translate(7.500000, 14.500000)" fill-rule="nonzero" fill="#885ADA">
                    <path d="M34.26535,6.3 L34.2643,6.30035 C33.9136,2.76325 30.9302,0 27.3,0 C25.95075,0 24.6946,0.3885 23.6257,1.05 L11.3743,1.05 C10.3054,0.3885 9.04925,0 7.7,0 C4.0698,0 1.0864,2.76325 0.7357,6.30035 L0.73465,6.3 C0.61285,7.76125 0,17.74185 0,17.85 C0,19.3963 1.25335,20.65 2.8,20.65 C9.23195,20.65 11.88005,15.1599 12.8331,12.25 L22.1669,12.25 C23.11995,15.1599 25.76805,20.65 32.2,20.65 C33.74665,20.65 35,19.3963 35,17.85 C35,17.74185 34.38715,7.76125 34.26535,6.3 Z M7.7,11.2 C5.37985,11.2 3.5,9.31945 3.5,7 C3.5,4.68055 5.37985,2.8 7.7,2.8 C10.02015,2.8 11.9,4.68055 11.9,7 C11.9,9.31945 10.02015,11.2 7.7,11.2 Z M27.3,11.2 C24.97985,11.2 23.1,9.31945 23.1,7 C23.1,4.68055 24.97985,2.8 27.3,2.8 C29.62015,2.8 31.5,4.68055 31.5,7 C31.5,9.31945 29.62015,11.2 27.3,11.2 Z" id="Shape"></path>
                    <polygon id="Shape" points="10.85 5.95 8.75 5.95 8.75 3.85 6.65 3.85 6.65 5.95 4.55 5.95 4.55 8.05 6.65 8.05 6.65 10.15 8.75 10.15 8.75 8.05 10.85 8.05"></polygon>
                    <path d="M27.3,5.6 C27.3,6.3735 26.6735,7 25.9,7 C25.12825,7 24.5,6.3735 24.5,5.6 C24.5,4.8265 25.12825,4.2 25.9,4.2 C26.6735,4.2 27.3,4.8265 27.3,5.6 Z" id="Shape"></path>
                    <path d="M30.1,8.4 C30.1,9.1735 29.4735,9.8 28.7,9.8 C27.92825,9.8 27.3,9.1735 27.3,8.4 C27.3,7.6265 27.92825,7 28.7,7 C29.4735,7 30.1,7.6265 30.1,8.4 Z" id="Shape"></path>
                </g>
            </g>
        </g>
    </g>
</svg>