<?xml version="1.0" encoding="UTF-8" standalone="no"?>
<svg width="50px" height="50px" viewBox="0 0 50 50" version="1.1" xmlns="http://www.w3.org/2000/svg" xmlns:xlink="http://www.w3.org/1999/xlink">
    <!-- Generator: Sketch 46.1 (44463) - http://www.bohemiancoding.com/sketch -->
    <title>出入口</title>
    <desc>Created with Sketch.</desc>
    <defs>
        <circle id="path-1" cx="25" cy="25" r="25"></circle>
    </defs>
    <g id="普通" stroke="none" stroke-width="1" fill="none" fill-rule="evenodd">
        <g id="出入口">
            <g id="Group">
                <g id="Oval-5">
                    <use fill="#FFFFFF" fill-rule="evenodd" xlink:href="#path-1"></use>
                    <circle stroke="#006DCE" stroke-width="1" cx="25" cy="25" r="24.5"></circle>
                </g>
                <g id="出入口" transform="translate(7.500000, 9.500000)" fill-rule="nonzero" fill="#009D7F">
                    <path d="M20.6916854,30.4720225 L1.3811236,30.4720225 C0.618595506,30.4720225 0,29.8538202 0,29.0908989 L0,1.58325843 C0,0.820337079 0.618595506,0.202134831 1.3811236,0.202134831 L20.6912921,0.202134831 C21.4542135,0.202134831 22.0724157,0.820730337 22.0724157,1.58325843 L22.0724157,7.94382022 C22.0724157,8.70674157 21.4538202,9.32494382 20.6912921,9.32494382 C19.928764,9.32494382 19.3101685,8.70634831 19.3101685,7.94382022 L19.3101685,2.96438202 L2.76224719,2.96438202 L2.76224719,27.7097753 L19.3101685,27.7097753 L19.3101685,22.9674719 C19.3101685,22.2045506 19.928764,21.5863483 20.6912921,21.5863483 C21.4538202,21.5863483 22.0724157,22.2049438 22.0724157,22.9674719 L22.0724157,29.0908989 C22.072809,29.8538202 21.4542135,30.4720225 20.6916854,30.4720225 Z" id="Shape"></path>
                    <path d="M34.9185955,15.8280618 C34.9083708,15.8693539 34.8910674,15.9110393 34.8773034,15.9523315 C34.8426966,16.035309 34.7978652,16.1182865 34.7459551,16.1941854 C34.7219663,16.2323315 34.6940449,16.2700843 34.6629775,16.3082303 C34.6354494,16.3428371 34.604382,16.3774438 34.5697753,16.4116573 L28.3822472,22.6023315 C28.1128652,22.8717135 27.7573596,23.0062079 27.405,23.0062079 C27.0526404,23.0062079 26.6971348,22.8717135 26.4277528,22.6023315 C25.8889888,22.0635674 25.8889888,21.1866011 26.4277528,20.6478371 L30.2604494,16.8186798 L12.785618,16.8186798 C12.0226966,16.8186798 11.4044944,16.1973315 11.4044944,15.4375562 C11.4044944,14.6746348 12.0226966,14.0564326 12.785618,14.0564326 L30.2608427,14.0564326 L26.4281461,10.223736 C25.889382,9.68497191 25.889382,8.80800562 26.4281461,8.26924157 C26.9669101,7.73047753 27.8438764,7.73047753 28.3826404,8.26924157 L34.5697753,14.4607022 C34.6665169,14.5574438 34.7459551,14.6644101 34.8080899,14.7819944 C34.8320787,14.8201404 34.849382,14.8614326 34.8666854,14.9027247 C34.8769101,14.9200281 34.8839888,14.9408708 34.8875281,14.9581742 C34.9012921,14.9857022 34.9115169,15.0132303 34.9185955,15.044691 C34.9944944,15.2995225 34.9944944,15.5724438 34.9185955,15.8280618 Z" id="Shape"></path>
                    <path d="M30.1994944,15.8280618 C30.1892697,15.8693539 30.1719663,15.9110393 30.1582022,15.9523315 C30.1235955,16.035309 30.078764,16.1182865 30.0268539,16.1941854 C30.0028652,16.2323315 29.9749438,16.2700843 29.9438764,16.3082303 C29.9163483,16.3428371 29.8852809,16.3774438 29.8506742,16.4116573 L23.6631461,22.6023315 C23.393764,22.8717135 23.0382584,23.0062079 22.6858989,23.0062079 C22.3335393,23.0062079 21.9780337,22.8717135 21.7086517,22.6023315 C21.1698876,22.0635674 21.1698876,21.1866011 21.7086517,20.6478371 L25.5413483,16.8186798 L8.06651685,16.8186798 C7.30359551,16.8186798 6.68539326,16.1973315 6.68539326,15.4375562 C6.68539326,14.6746348 7.30359551,14.0564326 8.06651685,14.0564326 L25.5417416,14.0564326 L21.7090449,10.223736 C21.1702809,9.68497191 21.1702809,8.80800562 21.7090449,8.26924157 C22.247809,7.73047753 23.1247753,7.73047753 23.6635393,8.26924157 L29.8506742,14.4607022 C29.9474157,14.5574438 30.0268539,14.6644101 30.0889888,14.7819944 C30.1129775,14.8201404 30.1302809,14.8614326 30.1475843,14.9027247 C30.157809,14.9200281 30.1648876,14.9408708 30.168427,14.9581742 C30.182191,14.9857022 30.1924157,15.0132303 30.1994944,15.044691 C30.2753933,15.2995225 30.2753933,15.5724438 30.1994944,15.8280618 Z" id="Shape" transform="translate(18.470906, 15.435688) scale(-1, 1) translate(-18.470906, -15.435688) "></path>
                </g>
            </g>
        </g>
    </g>
</svg>