<?xml version="1.0" encoding="UTF-8" standalone="no"?>
<svg width="50px" height="50px" viewBox="0 0 50 50" version="1.1" xmlns="http://www.w3.org/2000/svg" xmlns:xlink="http://www.w3.org/1999/xlink">
    <!-- Generator: Sketch 46.1 (44463) - http://www.bohemiancoding.com/sketch -->
    <title>消防栓</title>
    <desc>Created with Sketch.</desc>
    <defs>
        <circle id="path-1" cx="25" cy="25" r="25"></circle>
    </defs>
    <g id="普通" stroke="none" stroke-width="1" fill="none" fill-rule="evenodd">
        <g id="消防栓">
            <g id="Group-2">
                <g id="Oval-5">
                    <use fill="#FFFFFF" fill-rule="evenodd" xlink:href="#path-1"></use>
                    <circle stroke="#006DCE" stroke-width="1" cx="25" cy="25" r="24.5"></circle>
                </g>
                <g id="消防栓" transform="translate(14.000000, 7.500000)" fill-rule="nonzero" fill="#BA5449">
                    <g id="Group" transform="translate(4.588415, 9.870427)">
                        <polygon id="Shape" points="0.936303354 0.956471037 1.2783003 0.544314024 1.00747713 0.0823246951 0.394603659 0.0324390244 0.0526067073 0.444542683 0.323483232 0.906532012"></polygon>
                    </g>
                    <g id="Group" transform="translate(16.006098, 9.870427)">
                        <polygon id="Shape" points="0.978612805 0.92589939 1.25098323 0.464870427 0.910426829 0.0515929878 0.297393293 0.0993445122 0.0250228659 0.560480183 0.365685976 0.973757622"></polygon>
                    </g>
                    <path d="M15.931189,11.5574695 C15.931189,11.5574695 15.7010747,13.542279 17.3982012,13.8587195 C17.3982012,13.8874771 16.9092683,17.655686 17.340686,19.9856936 C17.3982012,19.9856936 16.0462195,20.1582393 15.8161585,21.3951905" id="Shape"></path>
                    <path d="M21.8706784,16.2769207 L20.4532317,16.2690244 L20.4563796,15.7074771 C20.4569665,15.599436 20.3699466,15.5113491 20.2618521,15.5107088 C20.1910518,15.5103354 20.129375,15.5478963 20.0946951,15.6040244 L20.0960823,15.3521418 C20.0968293,15.2181707 19.9888415,15.1090091 19.8549238,15.1083155 C19.7684375,15.107782 19.6927287,15.1530793 19.6494055,15.2209985 C19.6496723,15.1965091 19.649939,15.1722332 19.6502591,15.1471037 C19.5509146,13.8304421 18.5362881,14.1363186 18.4551905,14.1426143 C18.3968216,13.7166921 17.8979649,13.7398476 17.7252058,13.7676448 C17.434375,14.9064253 17.3904116,16.7529954 17.3982012,16.9330107 C17.3883308,17.1129192 17.4116463,18.9598628 17.6897256,20.1018445 C17.8621113,20.1316159 18.3607012,20.1603735 18.423872,19.7350915 C18.4988872,19.741814 19.371753,20.0134909 19.5905564,19.007721 L19.5905564,19.0082012 C19.5898095,19.1421189 19.6977973,19.2513338 19.8317149,19.2520274 C19.9656326,19.2528277 20.0748476,19.1448399 20.0755412,19.0109223 L20.0769284,18.7589329 C20.110968,18.8154878 20.172218,18.8537424 20.2430183,18.8541692 C20.3510595,18.8547561 20.439093,18.7676829 20.4397332,18.6596418 L20.4427744,18.1218902 L21.8602744,18.1297866 L21.8706784,16.2769207 Z" id="Shape"></path>
                    <path d="M0.00144054878,16.2769207 L1.4188872,16.2690244 L1.41573933,15.7074771 C1.41515244,15.599436 1.50217226,15.5113491 1.61026677,15.5107088 C1.68106707,15.5103354 1.7427439,15.5478963 1.77742378,15.6040244 L1.77603659,15.3521418 C1.77528963,15.2181707 1.88327744,15.1090091 2.01719512,15.1083155 C2.1036814,15.107782 2.17939024,15.1530793 2.22271341,15.2209985 C2.22244665,15.1965091 2.22217988,15.1722332 2.22185976,15.1471037 C2.32120427,13.8304421 3.33583079,14.1363186 3.41692835,14.1426143 C3.47529726,13.7166921 3.97415396,13.7398476 4.14691311,13.7676448 C4.4377439,14.9064253 4.48170732,16.7529954 4.47391768,16.9330107 C4.48378811,17.1129192 4.46047256,18.9598628 4.18239329,20.1018445 C4.01000762,20.1316159 3.51141768,20.1603735 3.44824695,19.7350915 C3.37323171,19.741814 2.50036585,20.0134909 2.2815625,19.007721 L2.2815625,19.0082012 C2.28230945,19.1421189 2.17432165,19.2513338 2.04040396,19.2520274 C1.90648628,19.2528277 1.79727134,19.1448399 1.79657774,19.0109223 L1.79519055,18.7589329 C1.76115091,18.8154878 1.69990091,18.8537424 1.62910061,18.8541692 C1.52105945,18.8547561 1.43302591,18.7676829 1.43238567,18.6596418 L1.42934451,18.1218902 L0.0118445122,18.1297866 L0.00144054878,16.2769207 Z" id="Shape"></path>
                    <g id="Group" transform="translate(4.001524, 0.000000)">
                        <path d="M12.9575229,31.7446799 L11.9633841,31.7446799 L11.9633841,10.1476524 L1.96,10.1476524 L1.96,31.7446799 L0.947614329,31.7446799 L0.947614329,32.1635595 L0.04375,32.1635595 L0.04375,34.9613186 L13.8613872,34.9613186 L13.8613872,32.1635595 L12.9575229,32.1635595 L12.9575229,31.7446799 L12.9575229,31.7446799 Z M6.98047256,22.0609909 C4.38855183,22.0609909 2.28753811,19.9598704 2.28753811,17.3681098 C2.28753811,14.7762424 4.38855183,12.675122 6.98047256,12.675122 C9.57217988,12.675122 11.6733003,14.7762424 11.6733003,17.3681098 C11.6733003,19.9598704 9.57217988,22.0609909 6.98047256,22.0609909 Z" id="Shape"></path>
                        <rect id="Rectangle-path" x="1.96" y="8.7755564" width="10.0033841" height="1"></rect>
                        <path d="M11.9634375,7.76882622 L11.9634375,6.17408537 C11.9634375,4.34698933 10.8941768,2.77070884 9.34905488,2.03826982 C9.3310747,1.84870427 9.19902439,1.69253811 9.02231707,1.63891768 L9.02231707,1.17746189 L7.98682927,1.17746189 L7.98682927,0.0311051829 L6.08829268,0.0311051829 L6.08829268,1.17740854 L5.05280488,1.17740854 L5.05280488,1.62974085 C4.87689787,1.66804878 4.73849848,1.80602134 4.6994436,1.98166159 C3.0873628,2.68689024 1.96005335,4.29811738 1.96005335,6.17408537 L1.96005335,7.76887957 L11.9634375,7.76887957 L11.9634375,7.76882622 Z" id="Shape"></path>
                    </g>
                    <path d="M18.6617759,8.76584604 C18.6617759,8.46994665 18.4218979,8.23012195 18.1260518,8.23012195 C18.1260518,8.23012195 15.0037424,8.45724848 11.0645884,8.45724848 C7.12559451,8.45724848 3.95195884,8.23012195 3.95195884,8.23012195 C3.6561128,8.23012195 3.41623476,8.46994665 3.41623476,8.76584604 C3.41623476,8.78510671 3.41735518,8.80420732 3.41938262,8.82293445 C3.41740854,8.84171494 3.41623476,8.86070884 3.41623476,8.87996951 C3.41623476,9.1758689 3.6561128,9.4156936 3.95195884,9.4156936 C3.95195884,9.4156936 7.07426829,9.7439253 11.0134223,9.7439253 C14.9524162,9.7439253 18.1260518,9.4156936 18.1260518,9.4156936 C18.4218979,9.4156936 18.6617759,9.1758689 18.6617759,8.87996951 C18.6617759,8.86070884 18.6606555,8.84166159 18.658628,8.82293445 C18.6606555,8.80420732 18.6617759,8.78510671 18.6617759,8.76584604 Z" id="Shape"></path>
                    <path d="M18.1260518,8.01670732 C18.1260518,8.01670732 15.0037424,8.24383384 11.0645884,8.24383384 C7.12559451,8.24383384 3.95195884,8.01670732 3.95195884,8.01670732 C3.92682927,8.01670732 3.90244665,8.01905488 3.87827744,8.0223628 C3.89705793,7.76141006 4.11410061,7.55541159 4.37980183,7.55541159 L17.6981021,7.55541159 C17.9638034,7.55541159 18.1808994,7.76141006 18.1996265,8.0223628 C18.175564,8.01905488 18.1510747,8.01670732 18.1260518,8.01670732 Z" id="Shape"></path>
                    <path d="M3.90703506,9.66923018 C3.90703506,9.66923018 6.97508384,9.97825457 10.9141845,9.97825457 C14.8531784,9.97825457 18.0810747,9.66923018 18.0810747,9.66923018 C18.1062043,9.66923018 18.1306936,9.66693598 18.1547561,9.66362805 C18.1359756,9.92458079 17.9189329,10.1305793 17.6532317,10.1305793 L10.8811585,10.5067226 L4.3349314,10.1305793 C4.06923018,10.1305793 3.85213415,9.92458079 3.83340701,9.66362805 C3.85752287,9.66698933 3.8820122,9.66923018 3.90703506,9.66923018 Z" id="Shape"></path>
                    <path d="M10.981997,15.0806784 C9.71868902,15.0806784 8.69456555,16.1047485 8.69456555,17.3681098 C8.69456555,18.631311 9.71868902,19.6554345 10.981997,19.6554345 C12.2451982,19.6554345 13.2692149,18.631311 13.2692149,17.3681098 C13.2692149,16.1048018 12.2451982,15.0806784 10.981997,15.0806784 Z M11.4128811,18.1609451 L10.4972256,18.1609451 L10.0395579,17.3681098 L10.4972256,16.5752744 L11.4128811,16.5752744 L11.8705488,17.3681098 L11.4128811,18.1609451 Z" id="Shape"></path>
                    <path d="M5.97219512,11.5574695 C5.97219512,11.5574695 6.2023628,13.542279 4.50518293,13.8587195 C4.50518293,13.8874771 4.99422256,17.655686 4.56269817,19.9856936 C4.50518293,19.9856936 5.85716463,20.1582393 6.08733232,21.3951905" id="Shape"></path>
                </g>
            </g>
        </g>
    </g>
</svg>