<?xml version="1.0" encoding="UTF-8" standalone="no"?>
<svg width="50px" height="50px" viewBox="0 0 50 50" version="1.1" xmlns="http://www.w3.org/2000/svg" xmlns:xlink="http://www.w3.org/1999/xlink">
    <!-- Generator: Sketch 46.1 (44463) - http://www.bohemiancoding.com/sketch -->
    <title>加油站</title>
    <desc>Created with Sketch.</desc>
    <defs>
        <circle id="path-1" cx="25" cy="25" r="25"></circle>
    </defs>
    <g id="Symbols" stroke="none" stroke-width="1" fill="none" fill-rule="evenodd">
        <g id="加油站">
            <g id="Group">
                <g id="Oval-5">
                    <use fill="#FFFFFF" fill-rule="evenodd" xlink:href="#path-1"></use>
                    <circle stroke="#006DCE" stroke-width="1" cx="25" cy="25" r="24.5"></circle>
                </g>
            </g>
            <g transform="translate(8.000000, 8.000000)" id="Shape" fill-rule="nonzero" fill="#4883FD">
                <path d="M34.5747097,7.92249726 L32.0339321,5.38789157 C32.003034,5.34461117 31.9350274,5.28898686 31.8979189,5.24570646 L30.5379025,3.89186199 C30.0124425,3.37874589 29.1593319,3.37874589 28.6462158,3.89186199 C28.1207558,4.42349398 28.1207558,5.27043264 28.6462158,5.80206462 L29.6662377,6.81591457 L29.6662377,9.61633625 C29.6662377,10.3643319 30.2720482,10.9640088 31.0139102,10.9640088 C31.7681161,10.9640088 32.3553724,10.3643702 32.3553724,9.61633625 L32.3553724,9.51125958 L32.689195,9.83273823 C32.7263034,9.87601862 32.7757558,9.90691676 32.8189978,9.95019715 L32.8189978,23.4453231 C32.8189978,24.4591731 32.2873658,25.1144359 31.5764403,25.3926342 C31.3106243,25.5100931 30.9829737,25.5595455 30.6862596,25.5595455 C30.358609,25.5595455 30.0371687,25.5100931 29.7651424,25.3926342 C29.0727711,25.1144359 28.5225849,24.4591731 28.5225849,23.4453231 L28.5225849,14.6669934 C28.5225849,13.6716977 28.1207558,12.7505805 27.4716648,12.0705915 L27.4283844,12.0149671 C26.8967525,11.5204053 26.2538335,11.1371303 25.4934556,10.9826013 L25.4934556,1.36354326 C25.4934556,0.603165389 24.8938171,0.00352683461 24.1519934,0.00352683461 L5.7546057,0.00352683461 C5.01278204,0.00352683461 4.41931544,0.603165389 4.41931544,1.36354326 L4.41931544,31.0553122 L1.34690581,31.0553122 C0.605082147,31.0553122 0.00544359255,31.6178806 0.00544359255,32.3844304 C0.00544359255,33.1200821 0.605082147,33.7197207 1.34690581,33.7197207 L28.5597317,33.7197207 C29.3077273,33.7197207 29.9197481,33.1200821 29.9197481,32.3844304 C29.9197481,31.6178806 29.3077273,31.0553122 28.5597317,31.0553122 L25.493494,31.0553122 L25.493494,12.6640964 C25.7964184,12.7630011 26.0622344,12.9484666 26.28477,13.1524863 L26.3280504,13.1957667 C26.6804272,13.5852136 26.9091347,14.0983297 26.9091347,14.6670701 L26.9091347,23.4453998 C26.9091347,25.2257996 27.9106024,26.3694524 29.1593702,26.8887404 C29.6415498,27.0742059 30.1670099,27.1731106 30.6862979,27.1731106 C31.1808598,27.1731106 31.7001479,27.0742059 32.1823275,26.8887404 C33.4496112,26.3694524 34.4387349,25.2257996 34.4387349,23.4453998 L34.4387349,9.95027382 C34.4943593,9.90699343 34.5376396,9.84519715 34.5747481,9.81426068 C35.1002081,9.29497262 35.1002081,8.45424425 34.5747481,7.92257393 L34.5747097,7.92249726 Z M22.8105312,30.9501205 L7.1022782,30.9501205 L7.1022782,2.70492881 L22.8105312,2.70492881 L22.8105312,30.9501205 Z M9.16700986,15.0996824 L20.7519332,15.0996824 C21.1846605,15.0996824 21.5432092,14.7349617 21.5432092,14.2898521 L21.5432092,5.28898686 C21.5432092,4.83153341 21.1846605,4.48532859 20.7519332,4.48532859 L9.16700986,4.48532859 C8.72190033,4.48532859 8.37573384,4.83153341 8.37573384,5.28898686 L8.37573384,14.2898521 C8.37573384,14.7349617 8.72193866,15.0996824 9.16700986,15.0996824 L9.16700986,15.0996824 Z M9.97684009,6.09881709 L19.9297207,6.09881709 L19.9297207,13.4800219 L9.97684009,13.4800219 L9.97684009,6.09881709 L9.97684009,6.09881709 Z"></path>
            </g>
        </g>
    </g>
</svg>