<?xml version="1.0" encoding="UTF-8" standalone="no"?>
<svg width="50px" height="50px" viewBox="0 0 50 50" version="1.1" xmlns="http://www.w3.org/2000/svg" xmlns:xlink="http://www.w3.org/1999/xlink">
    <!-- Generator: Sketch 46.1 (44463) - http://www.bohemiancoding.com/sketch -->
    <title>绿道 </title>
    <desc>Created with Sketch.</desc>
    <defs>
        <circle id="path-1" cx="25" cy="25" r="25"></circle>
    </defs>
    <g id="普通" stroke="none" stroke-width="1" fill="none" fill-rule="evenodd">
        <g id="绿道-">
            <g id="Group">
                <g id="Oval-5">
                    <use fill="#FFFFFF" fill-rule="evenodd" xlink:href="#path-1"></use>
                    <circle stroke="#006DCE" stroke-width="1" cx="25" cy="25" r="24.5"></circle>
                </g>
                <g id="绿道" transform="translate(7.500000, 8.000000)">
                    <g id="Group-2" transform="translate(5.600000, 9.800000)" fill="#00881B">
                        <path d="M6.50280374,15.191288 L0.030732836,21.842074 L1.63151972,23.1852937 L6.50280374,16.7073721 L6.50280374,15.191288 Z M10.1009346,11.493801 L11.5195473,10.0360157 L10.1009346,11.9225126 L10.1009346,11.493801 Z" id="Combined-Shape"></path>
                        <polygon id="Rectangle-36" transform="translate(18.943636, 17.667472) scale(-1, 1) rotate(-50.000000) translate(-18.943636, -17.667472) " points="12.5567859 16.6379844 25.3304852 17.8323288 12.5567859 18.6969598"></polygon>
                        <path d="M17.035498,9.47816908 L16.5298196,8.60230825 C16.5169513,8.58001976 16.5025984,8.55912284 16.4869579,8.53967029 C16.2659646,8.12989949 15.8327906,7.85144231 15.3345794,7.85144231 C14.7222919,7.85144231 14.2082347,8.27201622 14.0655364,8.84003545 L12.7515854,11.1158654 L12.7588448,11.1158654 C12.7324209,11.176124 12.717757,11.2427113 12.717757,11.3127235 L12.717757,13.9222805 C12.717757,14.1932613 12.9374304,14.4129347 13.2084112,14.4129347 C13.4793921,14.4129347 13.6990654,14.1932613 13.6990654,13.9222805 L13.6990654,11.4373986 L14.0261682,10.8708399 L14.0261682,12.6656407 L14.0261682,17.8069419 C14.0261682,18.0779228 14.2458416,18.2975962 14.5168224,18.2975962 C14.7878033,18.2975962 15.0074766,18.0779228 15.0074766,17.8069419 L15.0074766,14.3390678 C15.1120252,14.3659767 15.221631,14.3802885 15.3345794,14.3802885 C15.4475279,14.3802885 15.5571337,14.3659767 15.6616822,14.3390678 L15.6616822,18.7862689 C15.6616822,19.0572497 15.8813556,19.2769231 16.1523364,19.2769231 C16.4233173,19.2769231 16.6429907,19.0572497 16.6429907,18.7862689 L16.6429907,12.3391984 L16.6429907,10.7609432 L17.0953021,11.5443696 C17.2307926,11.7790459 17.530872,11.859452 17.7655483,11.7239615 L17.7655483,11.7239615 L17.7655483,11.7239615 C17.8831961,11.6560375 17.9620725,11.5467488 17.9944131,11.4250726 C18.0089634,11.3786694 18.0168065,11.3292985 18.0168065,11.2780958 L18.0168065,8.99498113 C18.0168065,8.72400029 17.7971331,8.50432692 17.5261523,8.50432692 C17.2551714,8.50432692 17.035498,8.72400029 17.035498,8.99498113 L17.035498,9.47816908 Z M7.48411215,15.6860577 L7.48411215,16.0125 C7.48411215,16.1927891 7.33766324,16.3389423 7.15700935,16.3389423 C6.97635546,16.3389423 6.82990654,16.1927891 6.82990654,16.0125 L6.82990654,17.8066117 L6.82990654,12.4242766 C6.82990654,11.701661 7.4157022,11.1158654 8.13831776,11.1158654 L8.13831776,11.1158654 L8.13831776,11.1158654 C8.86093332,11.1158654 9.44672897,11.701661 9.44672897,12.4242766 L9.44672897,17.8066117 L9.44672897,16.0125 C9.44672897,16.1927891 9.30028006,16.3389423 9.11962617,16.3389423 C8.93897228,16.3389423 8.79252336,16.1927891 8.79252336,16.0125 L8.79252336,15.6860577 L8.46542056,15.6860577 L8.46542056,18.623378 L8.46542056,18.623378 C8.46542056,18.8040319 8.31897165,18.9504808 8.13831776,18.9504808 L8.13831776,18.9504808 C7.95766387,18.9504808 7.81121495,18.8040319 7.81121495,18.623378 L7.81121495,15.6860577 L7.48411215,15.6860577 Z M7.48411215,15.3596154 L7.81121495,15.3596154 L7.81121495,12.4222951 C7.81121495,12.2416412 7.95766387,12.0951923 8.13831776,12.0951923 C8.31897165,12.0951923 8.46542056,12.2416412 8.46542056,12.4222951 L8.46542056,15.3596154 L8.79252336,15.3596154 L8.79252336,12.4229556 C8.79252336,12.0616478 8.49962554,11.76875 8.13831776,11.76875 C7.77700998,11.76875 7.48411215,12.0616478 7.48411215,12.4229556 L7.48411215,15.3596154 Z M10.7551332,16.9891834 C10.7551379,16.9900641 10.7551402,16.9909452 10.7551402,16.9918269 C10.7551402,17.2622606 10.5354668,17.4814904 10.264486,17.4814904 C9.99350515,17.4814904 9.77383178,17.2622606 9.77383178,16.9918269 L9.77383178,12.3663433 C9.77383178,11.4630739 9.04158721,10.7308293 8.13831776,10.7308293 C7.23504831,10.7308293 6.50280374,11.4630739 6.50280374,12.3663433 L6.50280374,14.7067308 C6.50280374,14.9771644 6.28313037,15.1963942 6.01214953,15.1963942 C5.7411687,15.1963942 5.52149533,14.9771644 5.52149533,14.7067308 L5.52149533,12.4269186 L5.52149533,12.4269186 C5.52149533,11.4582192 6.04785128,10.6124569 6.83016238,10.1600324 C6.82999208,10.151341 6.82990654,10.1426287 6.82990654,10.1338965 L6.82990654,9.81009615 L5.11522409,9.81009615 L5.0171512,9.97996338 L5.0171512,9.97996338 C4.88166078,10.2146397 4.58158138,10.2950457 4.34690509,10.1595553 C4.21315896,10.0823369 4.12952073,9.95165906 4.10739819,9.81009615 L4.04920246,9.81009615 C3.95905791,9.81009615 3.88598131,9.73701955 3.88598131,9.646875 C3.88598131,9.55673045 3.95905791,9.48365385 4.04920246,9.48365385 L4.17057829,9.48365385 L6.94108206,4.68500056 L6.94108206,4.68500056 C6.95555682,4.65992954 6.97191005,4.63661923 6.98986134,4.61514477 C7.21203118,4.20932536 7.64303735,3.93413462 8.13831776,3.93413462 L8.13831776,3.93413462 L8.13831776,3.93413462 C8.63448513,3.93413462 9.06614784,4.21031188 9.28796577,4.61732629 C9.30520635,4.63819537 9.32094614,4.66077606 9.33493217,4.68500056 L12.1054359,9.48365385 L12.2274331,9.48365385 C12.3175776,9.48365385 12.3906542,9.55673045 12.3906542,9.646875 C12.3906542,9.73701955 12.3175776,9.81009615 12.2274331,9.81009615 L12.168616,9.81009615 C12.1464935,9.95165906 12.0628553,10.0823369 11.9291091,10.1595553 C11.6944328,10.2950457 11.3943534,10.2146397 11.258863,9.97996338 L11.1607901,9.81009615 L9.44672897,9.81009615 L9.44672897,10.1338965 L9.44672897,10.1338965 C9.44672897,10.1426287 9.44664343,10.151341 9.44647314,10.1600324 C10.2287842,10.6124569 10.7551402,11.4582192 10.7551402,12.4269186 L10.7551402,16.986543 C10.7551402,16.9874238 10.7551398,16.9883046 10.7551389,16.9891852 Z M5.30369564,9.48365385 L6.82990654,9.48365385 L6.82990654,6.84017902 L5.30369564,9.48365385 Z M10.9723186,9.48365385 L9.44672897,6.84125513 L9.44672897,9.48365385 L10.9723186,9.48365385 Z M15.4981308,7.19855769 C14.7755153,7.19855769 14.1897196,6.61394489 14.1897196,5.89278846 C14.1897196,5.17163203 14.7755153,4.58701923 15.4981308,4.58701923 C16.2207464,4.58701923 16.8065421,5.17163203 16.8065421,5.89278846 C16.8065421,6.61394489 16.2207464,7.19855769 15.4981308,7.19855769 Z M8.13831776,2.95480769 C7.4157022,2.95480769 6.82990654,2.37019489 6.82990654,1.64903846 C6.82990654,0.927882029 7.4157022,0.343269231 8.13831776,0.343269231 C8.86093332,0.343269231 9.44672897,0.927882029 9.44672897,1.64903846 C9.44672897,2.37019489 8.86093332,2.95480769 8.13831776,2.95480769 Z" id="Combined-Shape"></path>
                    </g>
                    <path d="M17.4860226,29.5368996 C16.5449112,32.2273788 13.9797514,34.1575904 10.9628543,34.1575904 C7.14800766,34.1575904 4.05546346,31.0712908 4.05546346,27.2641472 C4.05546346,25.0477919 5.10354773,23.0757354 6.73207472,21.8146751 C3.89457997,21.7382306 1.28204515,19.8981059 0.353201731,17.0394198 C-0.8256507,13.4112851 1.15394597,9.51638171 4.77475465,8.33990965 C6.89376332,7.651402 9.10527492,8.04652726 10.8115559,9.21996366 C10.0018179,6.49504245 10.9438485,3.43608697 13.3787609,1.66701951 C16.4650367,-0.575291061 20.7810389,0.103825925 23.0188217,3.18386975 C24.3256723,4.98259525 24.6347442,7.20237121 24.0510369,9.18456482 C26.3933391,7.56496128 29.5999142,7.51267768 32.0386518,9.28452429 C35.1249275,11.5268349 35.8127669,15.8414556 33.5749841,18.9214994 C32.2705295,20.7169271 30.2598982,21.6965224 28.1983165,21.7571862 C30.4444032,23.4877016 31.4734786,26.5088981 30.5455394,29.3648014 C29.3666869,32.9929361 25.4757928,34.9804014 21.8549841,33.8039294 C19.7335488,33.1146332 18.1755087,31.4921542 17.4860226,29.5368996 Z" id="Combined-Shape" stroke="#00881B" stroke-width="2"></path>
                </g>
            </g>
        </g>
    </g>
</svg>