<?xml version="1.0" encoding="UTF-8" standalone="no"?>
<svg width="50px" height="50px" viewBox="0 0 50 50" version="1.1" xmlns="http://www.w3.org/2000/svg" xmlns:xlink="http://www.w3.org/1999/xlink">
    <!-- Generator: Sketch 46.1 (44463) - http://www.bohemiancoding.com/sketch -->
    <title>观景台</title>
    <desc>Created with Sketch.</desc>
    <defs>
        <circle id="path-1" cx="25" cy="25" r="25"></circle>
    </defs>
    <g id="Symbols" stroke="none" stroke-width="1" fill="none" fill-rule="evenodd">
        <g id="观景台">
            <g id="Group">
                <g id="Oval-5">
                    <use fill="#FFFFFF" fill-rule="evenodd" xlink:href="#path-1"></use>
                    <circle stroke="#006DCE" stroke-width="1" cx="25" cy="25" r="24.5"></circle>
                </g>
            </g>
            <g id="绝佳景观" transform="translate(8.000000, 9.000000)" fill-rule="nonzero" fill="#945C03">
                <path d="M34.1595981,23.5851775 C33.9281567,23.5876848 33.7063561,23.4926255 33.5485595,23.3232985 L26.1909969,15.3546973 L21.4771764,20.7419207 L10.9646086,6.93716075 L1.6243215,22.5127088 C1.48859069,22.8021177 1.19963576,22.9887233 0.88001301,22.9933794 C0.560390259,22.9980356 0.266122336,22.819926 0.122018971,22.5345936 C-0.0220843944,22.2492611 0.00923486456,21.9067181 0.202693111,21.6522495 L10.8025052,4.00662317 L21.5644572,18.1355898 L26.1535856,12.8855532 L34.7581785,22.2134186 C34.9792049,22.4572117 35.0365515,22.8080339 34.9046578,23.1095165 C34.7727641,23.4109992 34.4761959,23.6069895 34.1471399,23.6101305 L34.1595981,23.5851775 Z M30.6304802,13.9829384 C30.3361918,13.9772001 30.0666316,13.8170398 29.9208704,13.5613208 C29.7751091,13.3056018 29.7746516,12.9920514 29.919666,12.7359081 C31.8850444,9.35548782 30.8301514,5.02631781 27.5299963,2.92895505 C24.2298413,0.831592284 19.8623839,1.7146709 17.63631,4.92941023 C17.5077472,5.24603487 17.1993338,5.45245795 16.8576086,5.45060004 C16.5158835,5.44874213 16.2097328,5.23897776 16.0846204,4.92097392 C15.959508,4.60297008 16.0406545,4.24083121 16.2895042,4.00662317 C18.9844205,-0.0441120624 24.4235623,-1.19662044 28.5297555,1.41301689 C32.6359488,4.02265421 33.9019231,9.43651121 31.3787056,13.5963674 C31.2172244,13.8506891 30.9313405,13.9983912 30.6304802,13.9829384 L30.6304802,13.9829384 Z M24,27.0169879 L24,28.5780793 L29,28.5780793 L29,27.0169879 L24,27.0169879 Z M24,26.0169879 L29,26.0169879 L29,25.5 C29,25.2238576 29.2238576,25 29.5,25 C29.7761424,25 30,25.2238576 30,25.5 L30,26.0169879 L30.0322946,26.0169879 L30.0322946,27.0169879 L30,27.0169879 L30,28.5780793 L30.8424896,28.5780793 C31.2612862,28.629658 31.5758992,28.9853956 31.5758992,29.4073565 C31.5758992,29.8293174 31.2612862,30.1850549 30.8424896,30.2366336 L30.8424896,30.2366336 L3.56967119,30.2366336 C3.15087455,30.1850549 2.8362616,29.8293174 2.8362616,29.4073565 C2.8362616,28.9853956 3.15087455,28.629658 3.56967119,28.5780793 L5,28.5780793 L5,25.5 C5,25.2238576 5.22385763,25 5.5,25 C5.77614237,25 6,25.2238576 6,25.5 L6,26.0169879 L11,26.0169879 L11,25.5 C11,25.2238576 11.2238576,25 11.5,25 C11.7761424,25 12,25.2238576 12,25.5 L12,26.0169879 L17,26.0169879 L17,25.5 C17,25.2238576 17.2238576,25 17.5,25 C17.7761424,25 18,25.2238576 18,25.5 L18,26.0169879 L23,26.0169879 L23,25.5 C23,25.2238576 23.2238576,25 23.5,25 C23.7761424,25 24,25.2238576 24,25.5 L24,26.0169879 Z M23,27.0169879 L18,27.0169879 L18,28.5780793 L23,28.5780793 L23,27.0169879 Z M17,27.0169879 L12,27.0169879 L12,28.5780793 L17,28.5780793 L17,27.0169879 Z M11,27.0169879 L6,27.0169879 L6,28.5780793 L11,28.5780793 L11,27.0169879 Z M10.5322946,23.0169879 L24.5322946,23.0169879 C24.808437,23.0169879 25.0322946,23.2408455 25.0322946,23.5169879 C25.0322946,23.7931303 24.808437,24.0169879 24.5322946,24.0169879 L10.5322946,24.0169879 C10.2561522,24.0169879 10.0322946,23.7931303 10.0322946,23.5169879 C10.0322946,23.2408455 10.2561522,23.0169879 10.5322946,23.0169879 Z" id="Shape"></path>
            </g>
        </g>
    </g>
</svg>