<?xml version="1.0" encoding="UTF-8" standalone="no"?>
<svg width="40px" height="40px" viewBox="0 0 40 40" version="1.1" xmlns="http://www.w3.org/2000/svg" xmlns:xlink="http://www.w3.org/1999/xlink">
    <!-- Generator: Sketch 46.1 (44463) - http://www.bohemiancoding.com/sketch -->
    <title>扶뒬못</title>
    <desc>Created with Sketch.</desc>
    <defs></defs>
    <g id="Symbols" stroke="none" stroke-width="1" fill="none" fill-rule="evenodd">
        <g id="扶뒬못" transform="translate(-5.000000, -5.000000)" fill-rule="nonzero" fill="#000000">
            <g transform="translate(5.000000, 5.000000)" id="Shape">
                <path d="M39.534204,18.6917157 L21.992204,0.940127327 C21.903604,0.83208969 21.718604,0.656195395 21.460204,0.481326126 C20.997404,0.168898498 20.505604,0.00981461461 19.998404,0.00981461461 C19.453204,0.00981461461 18.949004,0.170333534 18.499404,0.485631231 C18.201404,0.695761361 18.042204,0.884775976 17.973604,0.978463263 L0.464803984,18.6931508 C0.166776181,18.9915549 -0.000864124735,19.4008103 3.984375e-06,19.8278535 C3.984375e-06,20.2552889 0.165003984,20.6585337 0.464803984,20.9611211 C1.01620398,21.5220148 1.82120398,21.3617009 2.58800398,20.587602 L3.76500398,19.3946779 L20.047604,3.22798318 L20.146604,3.32741061 L37.411604,20.7282354 C37.940804,21.0830991 38.416004,21.2721137 38.801204,21.2721137 C39.088004,21.2721137 39.327804,21.1698162 39.534204,20.9611211 C39.8316259,20.6628339 39.9993694,20.2543717 39.999604,19.8278535 C40.0004644,19.4002695 39.8326085,18.9904984 39.534204,18.6917157 L39.534204,18.6917157 Z"></path>
                <path d="M32.990604,17.7743183 C32.267404,17.7743183 31.675804,18.3723179 31.671604,19.1064408 L31.671604,35.6667451 C31.671604,36.5712272 30.944204,37.3069902 30.049204,37.3069902 L26.027204,37.3069902 L26.027204,28.0760248 C26.027204,25.8066194 24.205404,23.9605493 21.965804,23.9605493 L18.032604,23.9605493 C15.793004,23.9605493 13.971204,25.8066194 13.971204,28.0760248 L13.971204,37.3069902 L9.94920398,37.3069902 C9.05420398,37.3069902 8.32520398,36.5714322 8.32520398,35.6667451 L8.32520398,19.1105409 C8.32380398,18.3735479 7.73360398,17.7741133 7.00900398,17.7741133 C6.28500398,17.7741133 5.69340398,18.3733429 5.69140398,19.1089009 L5.69140398,35.86519 C5.69140398,38.1345954 7.51320398,39.9808705 9.75280398,39.9808705 L16.604604,39.9808705 L16.604604,28.2761097 C16.604604,27.3728577 17.333404,26.6387347 18.228604,26.6387347 L21.770604,26.6387347 C22.666404,26.6387347 23.393804,27.3728577 23.393804,28.2761097 L23.393804,39.9808705 L30.246204,39.9808705 C32.485204,39.9808705 34.308404,38.1345954 34.308404,35.86519 L34.308404,19.1078759 C34.302604,18.3735479 33.712404,17.7743183 32.990604,17.7743183 Z"></path>
            </g>
        </g>
    </g>
</svg>