<?xml version="1.0" encoding="UTF-8" standalone="no"?>
<svg width="40px" height="40px" viewBox="0 0 40 40" version="1.1" xmlns="http://www.w3.org/2000/svg" xmlns:xlink="http://www.w3.org/1999/xlink">
    <!-- Generator: Sketch 46.1 (44463) - http://www.bohemiancoding.com/sketch -->
    <title>Shape</title>
    <desc>Created with Sketch.</desc>
    <defs></defs>
    <g id="Symbols" stroke="none" stroke-width="1" fill="none" fill-rule="evenodd">
        <g id="兴趣点" transform="translate(-5.000000, -5.000000)" fill-rule="nonzero" fill="#4A4A4A">
            <g transform="translate(5.000000, 5.000000)" id="Shape">
                <path d="M39.8515153,14.9059635 C39.5062798,13.8730559 38.6163557,13.1209694 37.5499454,12.9587429 L27.1394046,11.3595737 L22.6169901,1.66624891 C22.1412999,0.648956437 21.1209209,0 20.0008885,0 C18.8807587,0 17.8603798,0.648956388 17.3848356,1.66624891 L12.862275,11.3595737 L2.45173422,12.9587429 C1.38152855,13.1209192 0.495351122,13.8730559 0.150164314,14.9059635 C-0.195071183,15.9391724 0.0657896406,17.0789758 0.82141498,17.8548615 L8.44715352,25.7157946 L6.67883744,36.6161532 C6.50239998,37.7126761 6.96271396,38.8131153 7.86412159,39.4581554 C8.36277885,39.8104245 8.94585943,39.988718 9.52889136,39.988718 C10.0083283,39.988718 10.491658,39.8660565 10.9251609,39.6285661 L20.0008885,34.7442968 L29.0765187,39.6285661 C29.5100216,39.8660565 29.9933513,39.988718 30.4727882,39.988718 C31.0558688,39.988718 31.6389008,39.8104747 32.137558,39.4581554 C33.0389657,38.8131153 33.499231,37.7126761 33.3189981,36.6161532 L31.550682,25.7157946 L39.1802647,17.8548615 C39.9359387,17.0789758 40.1929068,15.9391724 39.8515153,14.9059635 Z"></path>
            </g>
        </g>
    </g>
</svg>