<?xml version="1.0" encoding="UTF-8" standalone="no"?>
<svg width="30px" height="30px" viewBox="0 0 30 30" version="1.1" xmlns="http://www.w3.org/2000/svg" xmlns:xlink="http://www.w3.org/1999/xlink">
    <!-- Generator: Sketch 46.1 (44463) - http://www.bohemiancoding.com/sketch -->
    <title>广播</title>
    <desc>Created with Sketch.</desc>
    <defs></defs>
    <g id="地图" stroke="none" stroke-width="1" fill="none" fill-rule="evenodd">
        <g id="溧阳-地图导览（点开状态）" transform="translate(-179.000000, -311.000000)">
            <g id="Group-4" transform="translate(179.000000, 227.000000)">
                <g id="广播" transform="translate(0.000000, 84.000000)">
                    <circle id="Oval" fill="#EF9511" cx="15" cy="15" r="15"></circle>
                    <g id="耳机" transform="translate(4.200000, 5.400000)" fill-rule="nonzero" fill="#FFFFFF">
                        <path d="M20.6261071,9.48961141 C20.2470176,8.98564572 19.7915933,8.60884381 19.2897322,8.37524129 C19.2601544,6.15054994 18.3805535,4.06340778 16.8041481,2.48700238 C15.2004067,0.883238133 13.0680858,0 10.8000229,0 C8.53195998,0 6.39966197,0.883238133 4.7958977,2.48700238 C3.21951517,4.06340778 2.33991421,6.15054996 2.31033645,8.37524129 C1.80849818,8.60884383 1.35307387,8.98566861 0.973961555,9.48961141 C0.345897378,10.3244911 0,11.4232832 0,12.5833582 C0,13.7435018 0.345897378,14.8422023 0.973961555,15.6771736 C1.64921748,16.5747774 2.56660841,17.0691812 3.55710882,17.0691812 C4.37181254,17.0691812 5.1661344,16.7178166 5.79378681,16.0798246 C5.92952883,15.9418636 6.00558919,15.7560934 6.00558919,15.5625912 L6.00558921,9.60421667 C6.00558921,9.41064591 5.92950598,9.2248756 5.79376396,9.08689181 C5.22730297,8.51116632 4.52509994,8.16897473 3.79469168,8.10769181 C3.99446165,4.41673964 7.06007182,1.4751822 10.8,1.4751822 C14.5399053,1.4751822 17.6055384,4.41673962 17.8053083,8.10769181 C17.074923,8.16897473 16.3727199,8.51116632 15.8062132,9.08689181 C15.6704712,9.2248756 15.5944108,9.41064591 15.5944108,9.60421667 L15.5944108,15.5625912 C15.5944108,15.7560934 15.6704712,15.9418637 15.8062132,16.0798246 C16.4338656,16.7178167 17.2282103,17.0691812 18.0428683,17.0691812 C19.0334145,17.0691812 19.9508054,16.5748003 20.6260613,15.6771736 C21.2541026,14.8422023 21.6,13.7435018 21.6,12.5833582 C21.6000458,11.4232832 21.2541484,10.3244912 20.6261071,9.48961141 Z" id="Shape"></path>
                    </g>
                </g>
            </g>
        </g>
    </g>
</svg>