<?xml version="1.0" encoding="UTF-8" standalone="no"?>
<svg width="74px" height="30px" viewBox="0 0 74 30" version="1.1" xmlns="http://www.w3.org/2000/svg" xmlns:xlink="http://www.w3.org/1999/xlink">
    <!-- Generator: Sketch 46.1 (44463) - http://www.bohemiancoding.com/sketch -->
    <title>播放 copy</title>
    <desc>Created with Sketch.</desc>
    <defs></defs>
    <g id="地图" stroke="none" stroke-width="1" fill="none" fill-rule="evenodd">
        <g id="溧阳-地图导览（点开状态）" transform="translate(-281.000000, -633.000000)">
            <g id="Group-4" transform="translate(179.000000, 227.000000)">
                <g id="播放-copy" transform="translate(102.000000, 406.000000)">
                    <g id="广播" transform="translate(21.600000, 0.000000)">
                        <circle id="Oval" fill="#EF9511" cx="15" cy="15" r="15"></circle>
                        <g id="耳机" transform="translate(4.200000, 5.400000)" fill-rule="nonzero" fill="#FFFFFF">
                            <path d="M20.6261071,9.48961141 C20.2470176,8.98564572 19.7915933,8.60884381 19.2897322,8.37524129 C19.2601544,6.15054994 18.3805535,4.06340778 16.8041481,2.48700238 C15.2004067,0.883238133 13.0680858,0 10.8000229,0 C8.53195998,0 6.39966197,0.883238133 4.7958977,2.48700238 C3.21951517,4.06340778 2.33991421,6.15054996 2.31033645,8.37524129 C1.80849818,8.60884383 1.35307387,8.98566861 0.973961555,9.48961141 C0.345897378,10.3244911 0,11.4232832 0,12.5833582 C0,13.7435018 0.345897378,14.8422023 0.973961555,15.6771736 C1.64921748,16.5747774 2.56660841,17.0691812 3.55710882,17.0691812 C4.37181254,17.0691812 5.1661344,16.7178166 5.79378681,16.0798246 C5.92952883,15.9418636 6.00558919,15.7560934 6.00558919,15.5625912 L6.00558921,9.60421667 C6.00558921,9.41064591 5.92950598,9.2248756 5.79376396,9.08689181 C5.22730297,8.51116632 4.52509994,8.16897473 3.79469168,8.10769181 C3.99446165,4.41673964 7.06007182,1.4751822 10.8,1.4751822 C14.5399053,1.4751822 17.6055384,4.41673962 17.8053083,8.10769181 C17.074923,8.16897473 16.3727199,8.51116632 15.8062132,9.08689181 C15.6704712,9.2248756 15.5944108,9.41064591 15.5944108,9.60421667 L15.5944108,15.5625912 C15.5944108,15.7560934 15.6704712,15.9418637 15.8062132,16.0798246 C16.4338656,16.7178167 17.2282103,17.0691812 18.0428683,17.0691812 C19.0334145,17.0691812 19.9508054,16.5748003 20.6260613,15.6771736 C21.2541026,14.8422023 21.6,13.7435018 21.6,12.5833582 C21.6000458,11.4232832 21.2541484,10.3244912 20.6261071,9.48961141 Z" id="Shape"></path>
                        </g>
                    </g>
                    <g id="广播轮巡" transform="translate(36.600000, 15.000000) rotate(-90.000000) translate(-36.600000, -15.000000) translate(21.600000, -21.600000)" fill-rule="nonzero" fill="#EF9511">
                        <path d="M14.9595,0.0078125 C9.12675,0.0078125 3.8425,2.3558125 5.68434189e-14,6.1578125 L1.85425,8.0203125 C3.55,6.3438125 5.517,5.0245625 7.7035,4.0995625 C10.00025,3.1280625 12.44125,2.6355625 14.95925,2.6355625 C17.47725,2.6355625 19.9185,3.1283125 22.215,4.0995625 C24.43475,5.0383125 26.4285,6.3828125 28.14175,8.0958125 L30,6.2378125 C26.15075,2.3885625 20.83325,0.0078125 14.9595,0.0078125 L14.9595,0.0078125 Z M3.887,11.6155625 L5.74125,13.4783125 C6.9335,12.3030625 8.315,11.3775625 9.85,10.7283125 C11.46825,10.0440625 13.18875,9.6968125 14.96375,9.6968125 C16.73875,9.6968125 18.459,10.0440625 20.07775,10.7283125 C21.64175,11.3898125 23.047,12.3378125 24.255,13.5455625 L26.113,11.6873125 C23.2595,8.8340625 19.318,7.0693125 14.964,7.0693125 C10.64625,7.0695625 6.7345,8.8048125 3.887,11.6155625 L3.887,11.6155625 Z M9.5175,18.9593125 C10.98225,17.5248125 12.91425,16.7353125 14.968,16.7353125 C17.0495,16.7353125 19.0065,17.5458125 20.4785,19.0180625 L22.3365,17.1595625 C20.45075,15.2740625 17.8455,14.1075625 14.968,14.1075625 C12.1225,14.1078125 9.54425,15.2488125 7.6635,17.0973125 L9.5175,18.9593125 Z" id="Shape"></path>
                        <path d="M14.9595,54.1767205 C9.12675,54.1767205 3.8425,56.5247205 5.62883073e-14,60.3267205 L1.85425,62.1892205 C3.55,60.5127205 5.517,59.1934705 7.7035,58.2684705 C10.00025,57.2969705 12.44125,56.8044705 14.95925,56.8044705 C17.47725,56.8044705 19.9185,57.2972205 22.215,58.2684705 C24.43475,59.2072205 26.4285,60.5517205 28.14175,62.2647205 L30,60.4067205 C26.15075,56.5574705 20.83325,54.1767205 14.9595,54.1767205 L14.9595,54.1767205 Z M3.887,65.7844705 L5.74125,67.6472205 C6.9335,66.4719705 8.315,65.5464705 9.85,64.8972205 C11.46825,64.2129705 13.18875,63.8657205 14.96375,63.8657205 C16.73875,63.8657205 18.459,64.2129705 20.07775,64.8972205 C21.64175,65.5587205 23.047,66.5067205 24.255,67.7144705 L26.113,65.8562205 C23.2595,63.0029705 19.318,61.2382205 14.964,61.2382205 C10.64625,61.2384705 6.7345,62.9737205 3.887,65.7844705 L3.887,65.7844705 Z M9.5175,73.1282205 C10.98225,71.6937205 12.91425,70.9042205 14.968,70.9042205 C17.0495,70.9042205 19.0065,71.7147205 20.4785,73.1869705 L22.3365,71.3284705 C20.45075,69.4429705 17.8455,68.2764705 14.968,68.2764705 C12.1225,68.2767205 9.54425,69.4177205 7.6635,71.2662205 L9.5175,73.1282205 Z" id="Shape" transform="translate(15.000000, 63.681845) rotate(-180.000000) translate(-15.000000, -63.681845) "></path>
                    </g>
                </g>
            </g>
        </g>
    </g>
</svg>