<?xml version="1.0" encoding="UTF-8" standalone="no"?>
<svg width="50px" height="50px" viewBox="0 0 50 50" version="1.1" xmlns="http://www.w3.org/2000/svg" xmlns:xlink="http://www.w3.org/1999/xlink">
    <!-- Generator: Sketch 46.1 (44463) - http://www.bohemiancoding.com/sketch -->
    <title>地铁 </title>
    <desc>Created with Sketch.</desc>
    <defs>
        <circle id="path-1" cx="25" cy="25" r="25"></circle>
    </defs>
    <g id="普通" stroke="none" stroke-width="1" fill="none" fill-rule="evenodd">
        <g id="地铁-">
            <g id="Group">
                <g id="Oval-5">
                    <use fill="#FFFFFF" fill-rule="evenodd" xlink:href="#path-1"></use>
                    <circle stroke="#006DCE" stroke-width="1" cx="25" cy="25" r="24.5"></circle>
                </g>
                <g id="地铁站" transform="translate(7.500000, 8.000000)" fill="#E62C33">
                    <path d="M15.826087,7.76018498 C10.6441756,8.62954497 6.69565217,13.1362676 6.69565217,18.5652174 C6.69565217,22.1632936 8.4300303,25.356284 11.1083717,27.3537739 L13.1957729,24.0487219 C11.4636606,22.7130927 10.3478261,20.6172897 10.3478261,18.2608696 C10.3478261,14.8573367 12.675672,11.9975014 15.826087,11.1866406 L15.826087,25.8695652 L19.4782609,25.8695652 L19.4782609,11.1866406 C22.6286758,11.9975014 24.9565217,14.8573367 24.9565217,18.2608696 C24.9565217,20.6172897 23.8406873,22.7130927 22.1085749,24.0487219 L24.1959762,27.3537739 C26.8743175,25.356284 28.6086957,22.1632936 28.6086957,18.5652174 C28.6086957,13.1362676 24.6601722,8.62954497 19.4782609,7.76018498 L19.4782609,5.17391304 L15.826087,5.17391304 L15.826087,7.76018498 Z M17.536306,30.8901676 C16.1427736,32.652072 13.986021,33.7826087 11.5652174,33.7826087 C7.36305082,33.7826087 3.95652174,30.3760796 3.95652174,26.173913 C3.95652174,24.6273802 4.41792839,23.1886147 5.21059101,21.9877672 C3.10429517,21.2068974 1.36261764,19.5050589 0.614548189,17.2027379 C-0.683992696,13.20624 1.5031336,8.91376293 5.49963151,7.61522205 C6.97047162,7.13731713 8.48140143,7.13153793 9.86842152,7.51432258 C9.96019157,5.26981418 11.0405282,3.08748339 12.9989995,1.66457074 C16.3986236,-0.805400796 21.1568711,-0.051768434 23.6268427,3.34785574 C24.5358718,4.59902707 25.0082712,6.03422084 25.0728341,7.4716423 C27.235847,6.86532956 29.6452093,7.21841348 31.6036805,8.64132613 C35.0033047,11.1112977 35.756937,15.8695451 33.2869655,19.2691693 C32.3779363,20.5203406 31.1589653,21.4131184 29.8118473,21.918709 C31.0568928,23.7884956 31.4656239,26.1890442 30.7175544,28.4913652 C29.4190136,32.4878631 25.1265365,34.6749894 21.1300386,33.3764486 C19.6591985,32.8985436 18.4334337,32.0151168 17.536306,30.8901676 Z" id="Combined-Shape"></path>
                </g>
            </g>
        </g>
    </g>
</svg>