<?xml version="1.0" encoding="UTF-8" standalone="no"?>
<svg width="50px" height="50px" viewBox="0 0 50 50" version="1.1" xmlns="http://www.w3.org/2000/svg" xmlns:xlink="http://www.w3.org/1999/xlink">
    <!-- Generator: Sketch 46.1 (44463) - http://www.bohemiancoding.com/sketch -->
    <title>新业态</title>
    <desc>Created with Sketch.</desc>
    <defs>
        <circle id="path-1" cx="25" cy="25" r="25"></circle>
    </defs>
    <g id="普通" stroke="none" stroke-width="1" fill="none" fill-rule="evenodd">
        <g id="新业态">
            <g id="Group">
                <g id="Oval-5">
                    <use fill="#FFFFFF" fill-rule="evenodd" xlink:href="#path-1"></use>
                    <circle stroke="#006DCE" stroke-width="1" cx="25" cy="25" r="24.5"></circle>
                </g>
            </g>
            <path d="M36.882716,31.5089934 C36.7558943,31.5030202 36.6282998,31.5 36.5,31.5 C33.9448326,31.5 31.6694522,32.6979109 30.204826,34.5627657 L30.204826,30.53367 L19.520202,30.53367 L19.520202,38.547138 L28.5561576,38.547138 C28.5190748,38.8595923 28.5,39.1775686 28.5,39.5 C28.5,39.6282998 28.5030202,39.7558943 28.5089934,39.882716 L11.506734,39.882716 L11.506734,38.547138 L12.842312,38.547138 L12.842312,30.8119012 C10.6354888,31.4800573 7.5,29.055765 7.5,27.279829 C11.1022623,27.5861753 14.4214734,26.3287206 15.513468,24.8777734 L15.513468,20.0919031 C13.9598714,20.948133 11.506734,18.9229294 11.506734,17.930783 C17.6417194,20.2396765 24.862514,10.5 24.862514,10.5 C24.862514,10.5 32.0833086,20.2396765 38.2182941,17.930783 C38.2182941,18.9229294 35.7651566,20.948133 34.21156,20.0919031 L34.21156,24.8777734 C35.3035547,26.3287206 38.6227658,27.5861753 42.2250281,27.279829 C42.2250281,29.055765 39.0895393,31.4800573 36.882716,30.8119012 L36.882716,31.5089934 Z M30.204826,19.849046 L30.204826,25.191358 L32.875982,25.191358 L32.875982,19.849046 L30.204826,19.849046 Z M19.520202,19.849046 L16.849046,19.849046 L16.849046,25.191358 L19.520202,25.191358 L19.520202,19.849046 Z M28.869248,19.849046 L20.85578,19.849046 L20.85578,25.191358 L28.869248,25.191358 L28.869248,19.849046 Z" id="Combined-Shape" fill="#955B10" fill-rule="nonzero"></path>
            <path d="M35.5,38.5 L31.5,38.5 L31.5,38.5 C30.9477153,38.5 30.5,38.9477153 30.5,39.5 C30.5,40.0522847 30.9477153,40.5 31.5,40.5 L35.5,40.5 L35.5,44.5 C35.5,45.0522847 35.9477153,45.5 36.5,45.5 L36.5,45.5 C37.0522847,45.5 37.5,45.0522847 37.5,44.5 L37.5,40.5 L41.5,40.5 C42.0522847,40.5 42.5,40.0522847 42.5,39.5 C42.5,38.9477153 42.0522847,38.5 41.5,38.5 L37.5,38.5 L37.5,34.5 L37.5,34.5 C37.5,33.9477153 37.0522847,33.5 36.5,33.5 L36.5,33.5 L36.5,33.5 C35.9477153,33.5 35.5,33.9477153 35.5,34.5 L35.5,38.5 Z" id="Combined-Shape" fill="#955B10"></path>
        </g>
    </g>
</svg>