<?xml version="1.0" encoding="UTF-8" standalone="no"?>
<svg width="50px" height="50px" viewBox="0 0 50 50" version="1.1" xmlns="http://www.w3.org/2000/svg" xmlns:xlink="http://www.w3.org/1999/xlink">
    <!-- Generator: Sketch 46.1 (44463) - http://www.bohemiancoding.com/sketch -->
    <title>农家乐</title>
    <desc>Created with Sketch.</desc>
    <defs>
        <circle id="path-1" cx="25" cy="25" r="25"></circle>
    </defs>
    <g id="普通" stroke="none" stroke-width="1" fill="none" fill-rule="evenodd">
        <g id="农家乐">
            <g id="Group-2">
                <g id="Group">
                    <g id="Oval-5">
                        <use fill="#FFFFFF" fill-rule="evenodd" xlink:href="#path-1"></use>
                        <circle stroke="#006DCE" stroke-width="1" cx="25" cy="25" r="24.5"></circle>
                    </g>
                </g>
                <g id="noun_168590_cc" transform="translate(6.000000, 31.000000)">
                    <path d="M19.4504505,0.675675676 C8.32432432,0.675675676 0.531531532,2.20720721 0.531531532,3.55855856 C0.531531532,4.90990991 8.27927928,6.44144144 19.4504505,6.44144144 C30.6216216,6.44144144 38.3693694,4.90990991 38.3693694,3.55855856 C38.3693694,2.20720721 30.5765766,0.675675676 19.4504505,0.675675676 Z" id="Shape"></path>
                    <path d="M19.4504505,0.225225225 C10.0810811,0.225225225 0.0810810811,1.3963964 0.0810810811,3.55855856 C0.0810810811,3.78378378 0.216216216,4.00900901 0.441441441,4.23423423 C1.56756757,6.30630631 9.85585586,7.61261261 9.81081081,13.0630631 L9.81081081,13.0630631 C9.81081081,13.0630631 9.81081081,13.1081081 9.81081081,13.1081081 C9.81081081,13.6486486 14.1351351,14.0540541 19.4504505,14.0540541 C24.7657658,14.0540541 29.0900901,13.6036036 29.0900901,13.1081081 C29.0900901,13.1081081 29.0900901,13.0630631 29.0900901,13.0630631 L29.0900901,13.0630631 C29.0900901,7.34234234 38.1891892,6.30630631 38.6396396,4.05405405 C38.7297297,3.91891892 38.8198198,3.73873874 38.8198198,3.6036036 C38.7747748,1.3963964 28.8198198,0.225225225 19.4504505,0.225225225 Z M19.4504505,6.44144144 C8.32432432,6.44144144 0.531531532,4.90990991 0.531531532,3.55855856 C0.531531532,2.20720721 8.27927928,0.675675676 19.4504505,0.675675676 C30.6216216,0.675675676 38.3693694,2.20720721 38.3693694,3.55855856 C38.3693694,4.90990991 30.5765766,6.44144144 19.4504505,6.44144144 Z" id="Shape" fill="#E38B22" fill-rule="nonzero"></path>
                </g>
                <g id="鱼" transform="translate(7.000000, 15.000000)" fill-rule="nonzero" fill="#E38B22">
                    <path d="M34.822295,2.49833111 C34.7705733,2.09888953 34.5924564,1.77273803 34.2399829,1.57060499 C33.1842298,0.964915337 32.0104178,1.17935799 30.8839997,1.69309804 C30.7390514,1.54733379 30.5383373,1.45708696 30.3165514,1.45708696 C29.8745406,1.45708696 29.5162138,1.81541372 29.5162138,2.25742456 C29.5162138,2.31957568 29.523557,2.38002403 29.5369309,2.4380956 C28.4857894,3.10419813 27.5478466,3.85536824 26.884653,4.18428674 C26.3970576,3.97083736 25.3904719,3.65685358 24.266466,4.0418216 C22.7656512,4.55580997 22.9731054,5.45739147 23.727681,5.88613489 C22.5596159,6.60459761 21.2351088,7.45736635 20.0807723,8.21197747 C19.0652471,8.87580964 18.1812254,9.46401042 17.6506351,9.81882522 C17.3033408,10.051076 16.9724712,10.306669 16.6599774,10.5839722 C15.0270205,11.3546887 13.2019698,11.7855251 11.2766685,11.7855251 C9.84804405,11.7855251 8.47500798,11.5484498 7.1944891,11.1112635 C7.03776326,11.0577681 6.93364594,10.9083145 6.93765455,10.7427201 C6.94279834,10.5313637 6.98891504,10.3212844 7.08991061,10.1192933 C8.04818018,8.20271866 8.05899986,2.02017187 7.52844496,0.322580645 C7.35483332,0.754729605 6.33845671,6.27344422 4.59889929,6.74230917 C2.93217078,7.19162773 0.223240306,4.3621553 0,4.12522188 C0.490752644,5.33152835 1.10527542,6.4740164 1.82764032,7.53732562 C3.3880521,9.83415016 5.4521292,11.7610478 7.86108827,13.1591643 C10.5842794,14.7398674 13.7486301,15.6448899 17.1240533,15.6448899 C18.7485673,15.6448899 20.3240202,15.4351299 21.8250479,15.0414706 L21.8252962,15.0414706 C22.515273,15.9583416 22.8313143,15.8420211 23.0606207,15.8456749 C23.7642196,15.8569558 24.2215909,14.8238707 24.3095319,14.2274044 C25.8564634,13.4799237 28.1281366,12.1092998 29.3980486,10.9800083 C29.3856326,11.3673531 29.5671905,11.6689208 29.6304768,11.8351538 C29.7713811,12.2045486 30.0856132,12.4947645 30.5851989,12.5754687 C32.1469942,12.8277271 31.5927424,9.45815715 31.4605294,9.22225249 C31.4190953,9.14782723 31.4088077,9.02462469 31.4222525,8.87293622 C31.548293,8.71929665 31.6718858,8.56349316 31.7929599,8.40573856 C32.0993876,8.03098716 32.4054961,7.65651955 32.7119238,7.28176815 C32.938818,7.02436601 33.2084588,6.66536523 33.478206,6.2503504 C33.5169795,6.25613272 33.5566044,6.25918352 33.5969742,6.25918352 C34.0389851,6.25918352 34.3973118,5.90085676 34.3973118,5.45884592 C34.3973118,5.26487198 34.3283142,5.08703889 34.2134836,4.94851141 C34.6272923,4.08765451 34.9115485,3.18483141 34.8222595,2.49829563 L34.822295,2.49833111 Z" id="Shape"></path>
                </g>
            </g>
        </g>
    </g>
</svg>