<?xml version="1.0" encoding="UTF-8" standalone="no"?>
<svg width="50px" height="50px" viewBox="0 0 50 50" version="1.1" xmlns="http://www.w3.org/2000/svg" xmlns:xlink="http://www.w3.org/1999/xlink">
    <!-- Generator: Sketch 46.1 (44463) - http://www.bohemiancoding.com/sketch -->
    <title>农庄</title>
    <desc>Created with Sketch.</desc>
    <defs>
        <circle id="path-1" cx="25" cy="25" r="25"></circle>
    </defs>
    <g id="Symbols" stroke="none" stroke-width="1" fill="none" fill-rule="evenodd">
        <g id="农庄">
            <g id="Group">
                <g id="Oval-5">
                    <use fill="#FFFFFF" fill-rule="evenodd" xlink:href="#path-1"></use>
                    <circle stroke="#006DCE" stroke-width="1" cx="25" cy="25" r="24.5"></circle>
                </g>
            </g>
            <path d="M37.540675,33.7465235 L37.540675,39.4954854 C37.540675,39.8342099 37.2660136,40.1088713 36.9270436,40.1088713 C36.5880737,40.1088713 36.3134122,39.8342099 36.3134122,39.49524 L36.3134122,33.7460326 C34.2261003,33.4676898 32.9708639,32.7180988 32.5790971,31.5141048 C31.6721499,28.7272365 36.0242691,24.8277318 36.5235196,24.3922989 C36.7608435,24.1848974 37.1131632,24.1932458 37.3403402,24.4013216 C37.8838194,24.8765024 42.1765335,28.7450815 41.2749901,31.5145957 C40.8832232,32.7185896 39.6279869,33.4681807 37.540675,33.7465235 Z M37.540675,32.5069 C38.6726162,32.3379162 39.8387083,31.9610827 40.1081087,31.1348806 C40.5652679,29.7312977 38.5383059,27.1995722 36.9267827,25.6832493 C35.3153438,27.1996277 33.2888686,29.7309582 33.7459785,31.1343897 C34.0151757,31.960596 35.1814145,32.3374291 36.3134122,32.5064116 L36.3134122,30.7281657 C36.3134122,30.3891957 36.5880736,30.1145343 36.9270436,30.1145343 C37.2660136,30.1145343 37.540675,30.3891957 37.540675,30.7281657 L37.540675,32.5069 Z M31.4756855,20.7687853 L32.3433621,21.6364821 L31.9095025,22.0703178 C31.6698482,22.309972 31.2818845,22.3101248 31.0422861,22.0707762 L31.0418052,22.0702953 C31.0416599,22.0701501 31.0415147,22.0700049 31.0413695,22.0698596 L21.8081482,12.8366382 C21.7671576,12.7958931 21.7006399,12.7958931 21.6596494,12.8366382 L9.88676309,24.6095244 C9.76698225,24.7293053 9.60989262,24.7891957 9.45304844,24.7891957 C9.29595881,24.7891957 9.13886918,24.7293053 9.01908834,24.6095245 C8.77928118,24.3699628 8.77928118,23.9814114 9.01908834,23.7418497 L20.7919746,11.9689634 C21.3111067,11.4495858 22.1564453,11.4493404 22.6760684,11.9689634 L31.4756855,20.7687853 L35.507346,16.7371247 C36.0264782,16.2177471 36.8718168,16.2177471 37.3914398,16.7371247 L42.812014,22.1576989 C43.0518212,22.3972606 43.0518212,22.785812 42.812014,23.0253737 C42.6922332,23.1451545 42.5351435,23.2050449 42.3782993,23.2050449 C42.2212097,23.2050449 42.0643655,23.1451545 41.9443393,23.0253737 L36.5237651,17.6047995 C36.48302,17.5640544 36.4160114,17.5638089 36.3752663,17.6047995 L32.3433621,21.6364821 Z M30.8015297,15.3593995 C29.0551348,15.3593995 27.6344554,13.9384747 27.6344554,12.1923252 C27.6344554,10.4461757 29.0548893,9.02525095 30.8015297,9.02525095 C32.5481701,9.02525095 33.968604,10.4461758 33.968604,12.1923253 C33.968604,13.9384747 32.5479246,15.3593995 30.8015297,15.3593995 Z M30.8015297,10.2525137 C29.7320929,10.2525137 28.8617182,11.122643 28.8617182,12.1923252 C28.8617182,13.2620074 29.7320929,14.1321367 30.8015297,14.1321367 C31.8709665,14.1321367 32.7413412,13.2620074 32.7413412,12.1923252 C32.7413412,11.122643 31.8709665,10.2525137 30.8015297,10.2525137 Z" id="Combined-Shape" fill="#945C03" fill-rule="nonzero"></path>
            <path d="M29.9460851,36.0670104 L28.4090415,36.0231806 L28.432,26.4969926 L29.311466,26.4969926 L29.3336418,24.8891169 L23.191468,24.906988 L23.2508209,24.8276769 C23.5017987,23.1787108 22.2923047,23 22.2923047,23 L15.1960499,23.0190451 C14.0069055,23.1583613 14.2374033,24.8891169 14.2374033,24.8891169 L10.6712744,24.8891169 L10.6494899,26.8138456 L11.533652,26.8533707 L11.5710899,36.042878 L10,36.042878 L10.0194364,37.6097916 L29.9640866,37.6277931 L29.9460851,36.0670104 Z M14.3114966,27.9140158 L16.8682354,27.9441488 L16.8682354,30.1687725 L14.3114966,30.1582064 L14.3114966,27.9140158 Z M17.0025946,34.4530059 L14.4475516,34.4433529 L14.4475516,32.2012494 L17.0025946,32.226295 L17.0025946,34.4530059 Z M18.9471511,27.9140158 L21.5010201,27.9441488 L21.5010201,30.1687725 L18.9471511,30.1571628 L18.9471511,27.9140158 Z M21.6398145,35.7552469 L19.0800754,35.7381585 L19.0800754,32.2012494 L21.6398145,32.2483404 L21.6398145,35.7552469 Z M23.6832489,27.9140158 L26.2352917,27.9441488 L26.2352917,30.1687725 L23.6832489,30.1571628 L23.6832489,27.9140158 Z M23.8161732,32.2012494 L26.3740861,32.226295 L26.3740861,34.4545712 L23.8161732,34.4449182 L23.8161732,32.2012494 Z" id="Shape" fill="#945C03" fill-rule="nonzero"></path>
        </g>
    </g>
</svg>