<?xml version="1.0" encoding="UTF-8" standalone="no"?>
<svg width="50px" height="50px" viewBox="0 0 50 50" version="1.1" xmlns="http://www.w3.org/2000/svg" xmlns:xlink="http://www.w3.org/1999/xlink">
    <!-- Generator: Sketch 46.1 (44463) - http://www.bohemiancoding.com/sketch -->
    <title>停车场 </title>
    <desc>Created with Sketch.</desc>
    <defs>
        <circle id="path-1" cx="25" cy="25" r="25"></circle>
    </defs>
    <g id="普通" stroke="none" stroke-width="1" fill="none" fill-rule="evenodd">
        <g id="停车场-">
            <g id="Group">
                <g id="Oval-5">
                    <use fill="#FFFFFF" fill-rule="evenodd" xlink:href="#path-1"></use>
                    <circle stroke="#006DCE" stroke-width="1" cx="25" cy="25" r="24.5"></circle>
                </g>
                <g id="停车场" transform="translate(11.000000, 7.500000)" fill-rule="nonzero" fill="#0030CE">
                    <path d="M24.1134079,19.7244131 C21.6867755,21.7530264 18.3568966,22.63573 14.126339,22.63573 L8.47061629,22.63573 L8.47061629,34.8330888 L0.125055026,34.8330888 L0.125055026,0.166911225 L14.2694974,0.166911225 C16.9253118,0.166911225 19.2781181,0.544387381 21.3202128,1.52338591 C23.3655172,2.50110051 24.9473221,3.83767425 26.0694791,5.64288335 C27.1884263,7.44873441 27.7501467,9.40223771 27.7501467,11.6934153 C27.7507887,15.0817131 26.5387564,17.6977256 24.1134079,19.7244131 Z M14.3657924,6.58657373 L8.47061629,6.58657373 L8.47061629,16.2160675 L14.2694974,16.2160675 C15.8930301,16.2160675 17.1294571,15.9188371 17.9794204,15.1061079 C18.8313096,14.2959464 19.2569332,13.2046038 19.2569332,11.7255136 C19.2569332,10.1019809 18.8178283,8.92140499 17.9441123,7.95075202 C17.0697542,6.98074101 15.8769809,6.58657373 14.3657924,6.58657373 Z" id="Combined-Shape"></path>
                </g>
            </g>
        </g>
    </g>
</svg>