<?xml version="1.0" encoding="UTF-8" standalone="no"?>
<svg width="50px" height="50px" viewBox="0 0 50 50" version="1.1" xmlns="http://www.w3.org/2000/svg" xmlns:xlink="http://www.w3.org/1999/xlink">
    <!-- Generator: Sketch 46.1 (44463) - http://www.bohemiancoding.com/sketch -->
    <title>客运站</title>
    <desc>Created with Sketch.</desc>
    <defs>
        <circle id="path-1" cx="25" cy="25" r="25"></circle>
    </defs>
    <g id="普通" stroke="none" stroke-width="1" fill="none" fill-rule="evenodd">
        <g id="客运站">
            <g id="Group">
                <g id="Oval-5">
                    <use fill="#FFFFFF" fill-rule="evenodd" xlink:href="#path-1"></use>
                    <circle stroke="#006DCE" stroke-width="1" cx="25" cy="25" r="24.5"></circle>
                </g>
                <g id="客运站" transform="translate(7.500000, 17.000000)" fill-rule="nonzero" fill="#4883FD">
                    <path d="M2.66249261,0.00949916693 C1.96512196,0.022413438 1.42272256,0.836012522 1.66809373,1.49464036 C1.20317994,1.49464036 0.751180475,1.49464036 0.286266709,1.49464036 C0.286266709,5.31726466 0.182952541,9.65645991 0.182952541,13.1303989 C1.39689403,13.1303989 3.95391953,13.1303989 5.40031795,13.1303989 C5.40031795,11.1286868 7.04043041,9.48857435 9.04214248,9.48857435 C11.0438546,9.48857435 12.683967,11.1286868 12.683967,13.1303989 C16.2999631,13.143312 18.9086458,13.1303989 22.8991553,13.1303989 C22.8991553,11.1286868 24.5392678,9.48857435 26.5409798,9.48857435 C28.5426919,9.48857435 30.1828044,11.1286868 30.1828044,13.1303989 C31.5517169,13.1303989 33.7600573,13.143312 34.8061134,13.1303989 L34.8061134,11.658172 L34.0958284,11.3094866 C34.0958284,6.94446288 32.2620019,1.85623996 31.5388027,1.49464036 C25.9469234,1.46881183 20.3163011,1.46881183 15.499278,1.46881183 C15.499278,0.913498141 15.008536,0.396927299 14.4403077,0.37109876 C10.5143694,0.267784592 6.57551684,0.0998990644 2.66249261,0.00949916693 Z M2.40420719,2.92812446 C4.25094791,2.92812446 6.09768867,2.92812446 7.94442942,2.92812446 C8.33185752,2.92812446 8.68054288,3.27680978 8.68054288,3.65132366 C8.68054288,5.11063636 8.68054288,6.93154863 8.68054288,8.02926169 C8.68054288,8.41668978 8.33185752,8.76537514 7.94442942,8.76537514 C5.76191755,8.76537514 5.03871834,8.76537514 2.4816928,8.76537514 C2.10717895,8.76537514 1.75849363,8.41668978 1.75849363,8.02926169 L1.75849363,3.65132366 C1.75849363,3.30263834 2.05552186,2.96686727 2.40420719,2.92812446 Z M10.0623701,2.92812446 C12.1415676,2.92812446 14.2465936,2.92812446 16.3387058,2.92812446 C16.7132196,2.92812446 17.061905,3.27680978 17.061905,3.65132366 C17.061905,5.11063636 17.061905,6.93154863 17.061905,8.02926169 C17.061905,8.41668978 16.7132196,8.76537514 16.3387058,8.76537514 C14.1432797,8.76537514 12.683967,8.76537514 10.1398555,8.76537514 C9.75242744,8.76537514 9.40374209,8.41668978 9.40374209,8.02926169 L9.40374209,3.65132366 C9.40374209,3.30263834 9.70077046,2.96686727 10.0623701,2.92812446 Z M18.4437318,2.92812446 C20.5229294,2.92812446 22.6279558,2.92812446 24.7200676,2.92812446 C25.0945814,2.92812446 25.4432668,3.27680978 25.4432668,3.65132366 C25.4432668,5.11063636 25.4432668,6.93154863 25.4432668,8.02926169 C25.4432668,8.41668978 25.0945814,8.76537514 24.7200676,8.76537514 C22.5246414,8.76537514 21.0653288,8.76537514 18.5212177,8.76537514 C18.1337896,8.76537514 17.7851042,8.41668978 17.7851042,8.02926169 L17.7851042,3.65132366 C17.7851042,3.30263834 18.0821322,2.96686727 18.4437318,2.92812446 L18.4437318,2.92812446 Z M26.825094,2.92812446 L30.1828044,2.92812446 C30.4152611,2.92812446 30.6477179,3.04435292 30.7768607,3.23806697 C31.5646312,4.37452291 32.3653162,6.01463537 32.3653162,8.02926169 C32.3653162,8.41668978 32.0166309,8.76537514 31.642117,8.76537514 C29.4596051,8.76537514 29.4596051,8.76537514 26.9025794,8.76537514 C26.5151513,8.76537514 26.1793802,8.41668978 26.1793802,8.02926169 L26.1793802,3.65132366 C26.1664671,3.30263834 26.4634944,2.96686727 26.825094,2.92812446 Z M3.21780626,4.38743716 L3.21780626,7.30606248 C4.76751882,7.30606248 5.86523188,7.30606248 7.22123021,7.30606248 L7.22123021,4.38743716 L3.21780626,4.38743716 Z M10.8630547,4.38743716 L10.8630547,7.30606248 C12.6452243,7.30606248 14.0399653,7.30606248 15.6025923,7.30606248 L15.6025923,4.38743716 L10.8630547,4.38743716 Z M19.2444169,4.38743716 L19.2444169,7.30606248 C21.026586,7.30606248 22.4213275,7.30606248 23.9839541,7.30606248 L23.9839541,4.38743716 L19.2444169,4.38743716 Z M27.6257786,4.38743716 L27.6257786,7.30606248 L30.8414323,7.30606248 C30.6993753,6.14377783 30.2473756,5.17520759 29.7566335,4.38743716 L27.6257786,4.38743716 Z M9.04214248,10.2117736 C7.42785851,10.2117736 6.12351716,11.5290292 6.12351716,13.1303989 C6.12351716,14.7446825 7.42785851,16.0490242 9.04214248,16.0490242 C10.6564265,16.0490242 11.9607678,14.7446825 11.9607678,13.1303989 C11.9607678,11.5290292 10.6564265,10.2117736 9.04214248,10.2117736 L9.04214248,10.2117736 Z M26.5409798,10.2117736 C24.9266959,10.2117736 23.6223545,11.5290292 23.6223545,13.1303989 C23.6223545,14.7446825 24.9266959,16.0490242 26.5409798,16.0490242 C28.1552638,16.0490242 29.4596051,14.7446825 29.4596051,13.1303989 C29.4596051,11.5290292 28.1552638,10.2117736 26.5409798,10.2117736 Z" id="Shape"></path>
                </g>
            </g>
        </g>
    </g>
</svg>