<?xml version="1.0" encoding="UTF-8" standalone="no"?>
<svg width="50px" height="50px" viewBox="0 0 50 50" version="1.1" xmlns="http://www.w3.org/2000/svg" xmlns:xlink="http://www.w3.org/1999/xlink">
    <!-- Generator: Sketch 46.1 (44463) - http://www.bohemiancoding.com/sketch -->
    <title>民宿</title>
    <desc>Created with Sketch.</desc>
    <defs>
        <circle id="path-1" cx="25" cy="25" r="25"></circle>
    </defs>
    <g id="普通" stroke="none" stroke-width="1" fill="none" fill-rule="evenodd">
        <g id="民宿">
            <g id="Group">
                <g id="Oval-5">
                    <use fill="#FFFFFF" fill-rule="evenodd" xlink:href="#path-1"></use>
                    <circle stroke="#006DCE" stroke-width="1" cx="25" cy="25" r="24.5"></circle>
                </g>
                <g id="民宿" transform="translate(7.500000, 7.500000)" fill-rule="nonzero" fill="#885ADA">
                    <path d="M34.9873041,16.7358333 C34.9231448,16.1175 34.6198467,15.5575 34.1124055,15.155 L30.9161093,12.7866667 L30.9161093,7 L26.2499835,7 L26.2499835,9.33333333 L17.5359935,2.8875 L0.912920185,14.5833333 C0.417144315,14.9625 0.102180821,15.5108333 0.0205236193,16.1291667 C-0.0611335827,16.7475 0.102180821,17.36 0.487136203,17.8558333 C0.930418157,18.4333333 1.6070064,18.7658333 2.33608856,18.7658333 C2.85519506,18.7658333 3.34513827,18.5966667 3.73592631,18.2991667 L4.08588575,18.0541667 L4.08588575,19.4541667 C3.39763219,19.7808333 2.91935429,20.4808333 2.91935429,21.2916667 C2.91935429,22.1025 3.39763219,22.7966667 4.08588575,23.1291667 L4.08588575,25.2875 C3.39763219,25.6141667 2.91935429,26.3141667 2.91935429,27.125 C2.91935429,27.9358333 3.39763219,28.63 4.08588575,28.9625 L4.08588575,31.1208333 C3.39763219,31.4475 2.91935429,32.1475 2.91935429,32.9583333 C2.91935429,34.0841667 3.83508149,35 4.96078434,35 L13.4181374,35 L14.5846689,35 L20.4173262,35 L21.5838576,35 L30.0412107,35 C31.1669135,35 32.0826407,34.0841667 32.0826407,32.9583333 C32.0826407,31.9316667 31.3185626,31.0916667 30.3328436,30.9458333 L30.3328436,29.1375 C31.3185626,28.9916667 32.0826407,28.1516667 32.0826407,27.125 C32.0826407,26.0983333 31.3185626,25.2583333 30.3328436,25.1125 L30.3328436,23.3041667 C31.3185626,23.1583333 32.0826407,22.3183333 32.0826407,21.2916667 C32.0826407,20.265 31.3185626,19.425 30.3328436,19.2791667 L30.3328436,18.165 L31.2019095,18.795 C31.6160282,19.1275 32.1351347,19.3141667 32.6659065,19.3141667 C33.371658,19.3141667 34.0365809,18.9991667 34.4856955,18.445 C34.8706509,17.9666667 35.0514633,17.3541667 34.9873041,16.7358333 Z M27.4165149,8.16666667 L29.7495778,8.16666667 L29.7495778,11.9233333 L27.4165149,10.1966667 L27.4165149,8.16666667 Z M13.4181374,33.8333333 L4.96078434,33.8333333 C4.47667379,33.8333333 4.08588575,33.4425 4.08588575,32.9583333 C4.08588575,32.4741667 4.47667379,32.0833333 4.96078434,32.0833333 L13.4181374,32.0833333 L13.4181374,33.8333333 Z M13.4181374,30.9166667 L5.25241721,30.9166667 L5.25241721,29.1666667 L13.4181374,29.1666667 L13.4181374,30.9166667 Z M13.4181374,28 L4.96078434,28 C4.47667379,28 4.08588575,27.6091667 4.08588575,27.125 C4.08588575,26.6408333 4.47667379,26.25 4.96078434,26.25 L13.4181374,26.25 L13.4181374,28 Z M13.4181374,25.0833333 L5.25241721,25.0833333 L5.25241721,23.3333333 L13.4181374,23.3333333 L13.4181374,25.0833333 Z M20.4173262,25.0833333 L20.4173262,25.6666667 L20.4173262,28.5833333 L20.4173262,29.1666667 L20.4173262,30.9166667 L20.4173262,31.5 L20.4173262,33.8333333 L14.5846689,33.8333333 L14.5846689,31.5 L14.5846689,30.9166667 L14.5846689,29.1666667 L14.5846689,28.5833333 L14.5846689,25.6666667 L14.5846689,25.0833333 L14.5846689,23.3333333 L20.4173262,23.3333333 L20.4173262,25.0833333 Z M30.9161093,32.9583333 C30.9161093,33.4425 30.5253212,33.8333333 30.0412107,33.8333333 L21.5838576,33.8333333 L21.5838576,32.0833333 L30.0412107,32.0833333 C30.5253212,32.0833333 30.9161093,32.4741667 30.9161093,32.9583333 Z M21.5838576,30.9166667 L21.5838576,29.1666667 L29.1663121,29.1666667 L29.1663121,30.9166667 L21.5838576,30.9166667 Z M30.9161093,27.125 C30.9161093,27.6091667 30.5253212,28 30.0412107,28 L21.5838576,28 L21.5838576,26.25 L30.0412107,26.25 C30.5253212,26.25 30.9161093,26.6408333 30.9161093,27.125 Z M21.5838576,25.0833333 L21.5838576,23.3333333 L29.1663121,23.3333333 L29.1663121,25.0833333 L21.5838576,25.0833333 Z M30.9161093,21.2916667 C30.9161093,21.7758333 30.5253212,22.1666667 30.0412107,22.1666667 L21.5838576,22.1666667 L13.4181374,22.1666667 L4.96078434,22.1666667 C4.47667379,22.1666667 4.08588575,21.7758333 4.08588575,21.2916667 C4.08588575,20.8075 4.47667379,20.4166667 4.96078434,20.4166667 L14.0014031,20.4166667 L21.0005919,20.4166667 L30.0412107,20.4166667 C30.5253212,20.4166667 30.9161093,20.8075 30.9161093,21.2916667 Z M11.6683402,16.3333333 L6.57059776,16.3333333 L9.14279962,14.5483333 C9.20695885,14.5716667 9.27111808,14.5833333 9.33527731,14.5833333 L12.251606,14.5833333 C12.5724021,14.5833333 12.8348717,14.3208333 12.8348717,14 C12.8348717,13.6791667 12.5724021,13.4166667 12.251606,13.4166667 L11.1550664,13.4166667 L13.6047824,11.6666667 L21.3972126,11.6666667 L22.7270584,12.6175 L23.823598,13.4166667 L22.7503891,13.4166667 C22.4295929,13.4166667 22.1671233,13.6791667 22.1671233,14 C22.1671233,14.3208333 22.4295929,14.5833333 22.7503891,14.5833333 L25.4217461,14.5833333 L27.8189683,16.3333333 L23.3336548,16.3333333 C23.0128587,16.3333333 22.7503891,16.5958333 22.7503891,16.9166667 C22.7503891,17.2375 23.0128587,17.5 23.3336548,17.5 L29.1663121,17.5 L29.1663121,19.25 L21.0005919,19.25 L21.0005919,13.4166667 L14.0014031,13.4166667 L14.0014031,19.25 L5.25241721,19.25 L5.25241721,17.5 L11.6683402,17.5 C11.9891364,17.5 12.251606,17.2375 12.251606,16.9166667 C12.251606,16.5958333 11.9891364,16.3333333 11.6683402,16.3333333 Z M14.9812896,10.5 L17.4660016,8.77916667 L19.8282278,10.5 L14.9812896,10.5 Z M18.0842632,16.3333333 L18.0842632,14.5833333 L19.8340604,14.5833333 L19.8340604,16.3333333 L18.0842632,16.3333333 Z M19.8340604,17.5 L19.8340604,19.25 L18.0842632,19.25 L18.0842632,17.5 L19.8340604,17.5 Z M15.1679346,16.3333333 L15.1679346,14.5833333 L16.9177318,14.5833333 L16.9177318,16.3333333 L15.1679346,16.3333333 Z M16.9177318,17.5 L16.9177318,19.25 L15.1679346,19.25 L15.1679346,17.5 L16.9177318,17.5 Z M33.575801,17.7158333 C33.185013,18.2 32.4500982,18.305 31.9134937,17.8733333 L30.0587087,16.52 L29.8020717,16.3333333 L26.1449956,13.6675 C26.1099997,13.615 26.0633384,13.5683333 26.0108445,13.5275 L23.43281,11.6841667 L17.4893322,7.35 L4.4883391,16.3566667 L4.48250645,16.3566667 L4.27836344,16.5025 L3.04767275,17.3541667 C2.55189688,17.7391667 1.79365144,17.6341667 1.41452871,17.1383333 C1.22205102,16.8933333 1.14039382,16.5841667 1.18122242,16.275 C1.22205102,15.9658333 1.37953277,15.6916667 1.6070064,15.5166667 L17.5184955,4.31666667 L26.2499835,10.7858333 L27.5331681,11.7366667 L33.4008213,16.0766667 C33.6457929,16.2691667 33.797442,16.5491667 33.8266053,16.8583333 C33.8616012,17.1675 33.7682787,17.4766667 33.575801,17.7158333 Z M15.7512003,29.1666667 C15.4290716,29.1666667 15.1679346,28.9054994 15.1679346,28.5833333 C15.1679346,28.2611672 15.4290716,28 15.7512003,28 C16.0733291,28 16.3344661,28.2611672 16.3344661,28.5833333 C16.3344661,28.9054994 16.0733291,29.1666667 15.7512003,29.1666667 Z M27.4165149,6.41666667 C27.2648658,6.41666667 27.1132167,6.3525 27.0023962,6.2475 C26.8974084,6.13666667 26.8332492,5.985 26.8332492,5.83333333 C26.8332492,5.68166667 26.8974084,5.53 27.0023962,5.41916667 C27.2182046,5.20333333 27.6148253,5.20333333 27.8306336,5.41916667 C27.9356214,5.53 27.9997806,5.68166667 27.9997806,5.83333333 C27.9997806,5.985 27.9356214,6.13666667 27.8306336,6.2475 C27.7198131,6.3525 27.568164,6.41666667 27.4165149,6.41666667 Z M29.7495778,6.41666667 C29.4287817,6.41666667 29.1663121,6.15416667 29.1663121,5.83333333 L29.1663121,3.5 C29.1663121,3.17916667 29.4287817,2.91666667 29.7495778,2.91666667 C30.070374,2.91666667 30.3328436,3.17916667 30.3328436,3.5 L30.3328436,5.83333333 C30.3328436,6.15416667 30.070374,6.41666667 29.7495778,6.41666667 Z M29.7495778,2.33333333 C29.4287817,2.33333333 29.1663121,2.07083333 29.1663121,1.75 L29.1663121,0.583333333 C29.1663121,0.2625 29.4287817,1.99840144e-15 29.7495778,1.99840144e-15 C30.070374,1.99840144e-15 30.3328436,0.2625 30.3328436,0.583333333 L30.3328436,1.75 C30.3328436,2.07083333 30.070374,2.33333333 29.7495778,2.33333333 Z M27.4165149,4.66666667 C27.0957188,4.66666667 26.8332492,4.40416667 26.8332492,4.08333333 L26.8332492,2.91666667 C26.8332492,2.59583333 27.0957188,2.33333333 27.4165149,2.33333333 C27.7373111,2.33333333 27.9997806,2.59583333 27.9997806,2.91666667 L27.9997806,4.08333333 C27.9997806,4.40416667 27.7373111,4.66666667 27.4165149,4.66666667 Z M27.4165149,1.75 C27.0957188,1.75 26.8332492,1.4875 26.8332492,1.16666667 L26.8332492,0.583333333 C26.8332492,0.2625 27.0957188,2.10942375e-15 27.4165149,2.10942375e-15 C27.7373111,2.10942375e-15 27.9997806,0.2625 27.9997806,0.583333333 L27.9997806,1.16666667 C27.9997806,1.4875 27.7373111,1.75 27.4165149,1.75 Z" id="Combined-Shape"></path>
                </g>
            </g>
        </g>
    </g>
</svg>