<?xml version="1.0" encoding="UTF-8" standalone="no"?>
<svg width="54px" height="54px" viewBox="0 0 54 54" version="1.1" xmlns="http://www.w3.org/2000/svg" xmlns:xlink="http://www.w3.org/1999/xlink">
    <!-- Generator: Sketch 46.1 (44463) - http://www.bohemiancoding.com/sketch -->
    <title>定位</title>
    <desc>Created with Sketch.</desc>
    <defs>
        <filter x="-3.8%" y="-3.8%" width="107.5%" height="107.5%" filterUnits="objectBoundingBox" id="filter-1">
            <feOffset dx="0" dy="0" in="SourceAlpha" result="shadowOffsetOuter1"></feOffset>
            <feGaussianBlur stdDeviation="1" in="shadowOffsetOuter1" result="shadowBlurOuter1"></feGaussianBlur>
            <feColorMatrix values="0 0 0 0 0   0 0 0 0 0   0 0 0 0 0  0 0 0 0.5 0" type="matrix" in="shadowBlurOuter1" result="shadowMatrixOuter1"></feColorMatrix>
            <feMerge>
                <feMergeNode in="shadowMatrixOuter1"></feMergeNode>
                <feMergeNode in="SourceGraphic"></feMergeNode>
            </feMerge>
        </filter>
    </defs>
    <g id="地图" stroke="none" stroke-width="1" fill="none" fill-rule="evenodd">
        <g id="溧阳-周边信息" transform="translate(-43.000000, -1217.000000)" fill-rule="nonzero" fill="#4A4A4A">
            <g id="居中" filter="url(#filter-1)" transform="translate(30.000000, 1204.000000)">
                <g id="定位" transform="translate(15.000000, 15.000000)">
                    <path d="M25.0198,22.6666 C23.727,22.6666 22.678,23.71495 22.678,25.0085 C22.678,26.30215 23.727,27.35035 25.0198,27.35035 C26.3135,27.35035 27.36165,26.30215 27.36165,25.0085 C27.3616,23.71495 26.3135,22.6666 25.0198,22.6666 Z M47.6574,22.6666 L45.16995,22.6666 C44.0959,13.3329 36.6939,5.937 27.3616,4.86205 L27.3616,2.3709 C27.3616,1.078 26.31345,0.02905 25.01975,0.02905 C23.72695,0.02905 22.67795,1.078 22.67795,2.3709 L22.67795,4.8582 C13.3435,5.93235 5.94825,13.33445 4.8734,22.6666 L2.38225,22.6666 C1.0886,22.6666 0.04035,23.71495 0.04035,25.0085 C0.04035,26.30215 1.0886,27.35035 2.38225,27.35035 L4.86965,27.35035 C5.94375,36.68485 13.34575,44.08005 22.678,45.15565 L22.678,47.6461 C22.678,48.9398 23.727,49.988 25.0198,49.988 C26.3135,49.988 27.36165,48.9398 27.36165,47.6461 L27.36165,45.15565 C36.69395,44.08 44.09595,36.68485 45.17,27.35035 L47.65745,27.35035 C48.9511,27.35035 49.9993,26.30215 49.9993,25.0085 C49.99925,23.71495 48.95105,22.6666 47.6574,22.6666 Z M35.9484,27.35035 L40.43755,27.35035 C39.42075,34.09385 34.1013,39.4132 27.3616,40.4309 L27.3616,35.937 C27.3616,34.64335 26.31345,33.5952 25.01975,33.5952 C23.72695,33.5952 22.67795,34.64335 22.67795,35.937 L22.67795,40.4309 C15.93835,39.4132 10.61895,34.09385 9.602,27.35035 L14.09125,27.35035 C15.3849,27.35035 16.4331,26.30215 16.4331,25.0085 C16.4331,23.71495 15.3849,22.6666 14.09125,22.6666 L9.5975,22.6666 C10.61515,15.92705 15.9353,10.60775 22.67795,9.59065 L22.67795,14.0799 C22.67795,15.3735 23.72695,16.4218 25.01975,16.4218 C26.31345,16.4218 27.3616,15.3735 27.3616,14.0799 L27.3616,9.5869 C34.1013,10.6038 39.42075,15.924 40.43755,22.6666 L35.9484,22.6666 C34.65475,22.6666 33.6066,23.71495 33.6066,25.0085 C33.6066,26.30215 34.65475,27.35035 35.9484,27.35035 Z" id="Shape"></path>
                </g>
            </g>
        </g>
    </g>
</svg>