<?xml version="1.0" encoding="UTF-8" standalone="no"?>
<svg width="40px" height="40px" viewBox="0 0 40 40" version="1.1" xmlns="http://www.w3.org/2000/svg" xmlns:xlink="http://www.w3.org/1999/xlink">
    <!-- Generator: Sketch 46.1 (44463) - http://www.bohemiancoding.com/sketch -->
    <title>范围广-01</title>
    <desc>Created with Sketch.</desc>
    <defs></defs>
    <g id="Symbols" stroke="none" stroke-width="1" fill="none" fill-rule="evenodd">
        <g id="范围" transform="translate(-5.000000, -5.000000)" fill-rule="nonzero" fill="#4A4A4A">
            <g id="范围广-01" transform="translate(5.000000, 5.000000)">
                <path d="M37.6673031,28.101139 C38.3569451,26.2205011 38.7067303,24.2498405 38.7067303,22.2374487 C38.7067303,18.3736674 37.4284487,14.7004556 35.0100716,11.6148064 C33.8491899,10.1328751 32.4534861,8.83261966 30.8731742,7.76082005 C29.3780907,6.74642369 27.7449165,5.95375854 26.0136516,5.40100228 C25.8752745,2.40669704 23.2799523,0.0112072893 20.1091169,0.0112072893 C16.9380907,0.0112072893 14.3426253,2.4070615 14.2045823,5.40164009 C12.5125537,5.94182232 10.9136038,6.71088838 9.44501193,7.69357631 C7.84609686,8.76292815 6.4329147,10.0651481 5.25704057,11.5527107 C2.80668258,14.6509339 1.51150358,18.3456492 1.51150358,22.2374487 C1.51150358,24.2111162 1.8473031,26.1387244 2.50844869,27.9820957 C1.00663484,29.0061048 0.0258711217,30.6833713 0.0258711217,32.575262 C0.0258711217,35.6859681 2.67742243,38.2167198 5.93656325,38.2167198 C7.35661098,38.2167198 8.66114558,37.7361276 9.68143198,36.9366743 C11.0350358,37.8134396 12.4986158,38.5136674 14.0455847,39.0226424 C15.9920764,39.6630524 18.0321241,39.9877904 20.1091169,39.9877904 C23.8100716,39.9877904 27.3642482,38.9592711 30.4217661,37.0099317 C31.4274463,37.765467 32.695179,38.2167198 34.0713604,38.2167198 C37.3305489,38.2167198 39.9821002,35.6859681 39.9821002,32.575262 C39.982148,30.7548064 39.0738425,29.1333485 37.6673031,28.101139 Z M20.1091169,2.34214123 C22.0216706,2.34214123 23.5776134,3.82719818 23.5776134,5.65257403 C23.5776134,7.47794989 22.0217184,8.96305239 20.1091169,8.96305239 C18.3787112,8.96305239 16.9009069,7.73129841 16.6716468,6.09790433 C16.6510255,5.95027697 16.6406766,5.80150761 16.6406683,5.65257403 C16.6406683,3.82719818 18.1965632,2.34214123 20.1091169,2.34214123 L20.1091169,2.34214123 Z M2.46816229,32.5752164 C2.46816229,30.7498405 4.02405728,29.264738 5.93661098,29.264738 C7.84916468,29.264738 9.4051074,30.749795 9.4051074,32.5752164 C9.4051074,34.4006378 7.84911695,35.8856948 5.93661098,35.8856948 C4.02410501,35.8856948 2.46816229,34.4006378 2.46816229,32.5752164 Z M11.2150835,35.1117995 C11.6192363,34.3488383 11.8473031,33.4869704 11.8473031,32.5752164 C11.8473031,29.4645103 9.19575179,26.9337585 5.93656325,26.9337585 C5.53207637,26.9337585 5.13694511,26.9728474 4.75508353,27.0471071 C4.22319809,25.5014579 3.95374702,23.8883371 3.95374702,22.2374487 C3.95374702,15.7661959 8.29556086,9.91936219 14.6142721,7.73371298 C14.9584859,8.56022028 15.5023097,9.29747425 16.2014797,9.88546697 C17.2806783,10.7937137 18.6701985,11.294615 20.1090215,11.2940774 C22.5990453,11.2940774 24.7341766,9.81681093 25.6034368,7.73243736 C32.0099761,9.93366743 36.2643437,15.6770387 36.2643437,22.2374487 C36.2643437,23.9002733 35.9894033,25.5292483 35.4480191,27.0887016 C34.997067,26.9856439 34.5349639,26.9336531 34.0712649,26.9338041 C30.8120764,26.9338041 28.1605251,29.4645558 28.1605251,32.575262 C28.1605251,33.5261503 28.4086396,34.4226424 28.8457757,35.2094305 C26.2410024,36.8124829 23.2356086,37.6568109 20.1090215,37.6568109 C16.9053938,37.6568109 13.8534129,36.7798178 11.2150835,35.1117995 L11.2150835,35.1117995 Z M34.0714081,35.8856948 C32.1589021,35.8856948 30.6029117,34.4006834 30.6029117,32.5752164 C30.6029117,30.7497494 32.1588067,29.264738 34.0714081,29.264738 C35.9840095,29.264738 37.5399045,30.749795 37.5399045,32.5752164 C37.5399045,34.4006378 35.9839618,35.8856948 34.0714081,35.8856948 Z" id="Shape"></path>
            </g>
        </g>
    </g>
</svg>