<?xml version="1.0" encoding="UTF-8" standalone="no"?>
<svg width="50px" height="50px" viewBox="0 0 50 50" version="1.1" xmlns="http://www.w3.org/2000/svg" xmlns:xlink="http://www.w3.org/1999/xlink">
    <!-- Generator: Sketch 46.1 (44463) - http://www.bohemiancoding.com/sketch -->
    <title>餐厅/餐饮</title>
    <desc>Created with Sketch.</desc>
    <defs>
        <circle id="path-1" cx="25" cy="25" r="25"></circle>
    </defs>
    <g id="普通" stroke="none" stroke-width="1" fill="none" fill-rule="evenodd">
        <g id="餐厅/餐饮">
            <g id="Group">
                <g id="Oval-5">
                    <use fill="#FFFFFF" fill-rule="evenodd" xlink:href="#path-1"></use>
                    <circle stroke="#006DCE" stroke-width="1" cx="25" cy="25" r="24.5"></circle>
                </g>
                <g id="餐厅/餐饮" transform="translate(11.500000, 7.500000)" fill="#E18D12">
                    <path d="M14.0472396,11.7339257 C13.8098549,10.7843869 14.0472396,9.71615572 14.6407013,8.76661693 L15.234163,7.81707813 C15.234163,7.81707813 16.8958559,5.36410291 20.2192417,0.458152469 C20.3379341,0.339460119 20.4566264,0.339460119 20.5753188,0.339460119 L21.4061652,0.814229517 C21.5248576,0.932921867 21.5248576,1.05161422 21.5248576,1.17030657 L16.8958559,8.64792458 C16.7771636,8.76661693 16.8958559,9.00400163 17.0145483,9.12269398 C17.1332406,9.24138633 17.251933,9.24138633 17.3706253,9.36007868 C17.4893177,9.47877103 17.7267024,9.47877103 17.8453947,9.24138633 C18.7949335,7.81707813 22.7117811,2.00115301 22.7117811,2.00115301 C22.8304734,1.88246066 22.9491658,1.88246066 23.0678581,1.88246066 L23.8987046,2.35723006 C24.0173969,2.47592241 24.0173969,2.59461476 24.0173969,2.71330711 L19.3883953,10.1909251 C19.2697029,10.3096175 19.3883953,10.5470022 19.5070876,10.6656945 C19.62578,10.7843869 19.7444723,10.7843869 19.8631647,10.9030792 C19.981857,11.0217716 20.2192417,11.0217716 20.3379341,10.7843869 C21.2874729,9.36007868 25.2043204,3.54415355 25.2043204,3.54415355 C25.3230128,3.4254612 25.4417051,3.4254612 25.5603974,3.4254612 L26.3912439,3.9002306 C26.5099362,4.01892295 26.5099362,4.1376153 26.5099362,4.25630765 L21.8809346,11.852618 L21.2874729,12.8021568 C20.6940111,13.7516956 19.7444723,14.4638497 18.7949335,14.5825421 L16.7771636,14.9386191 L15.8276248,16.7190043 L14.2846243,14.4638497 L14.878086,13.6330033 L14.0472396,11.7339257 Z M2.53408166,0.458152469 L11.1986232,13.870388 L23.8987046,31.4368557 C24.2547816,32.0303174 24.1360893,32.7424715 23.5426275,33.2172409 L21.5248576,34.5228568 C20.9313958,34.8789338 20.1005494,34.7602415 19.8631647,34.0480874 L10.130392,16.956389 L9.53693028,17.3124661 C7.99392973,18.0246202 6.21354449,17.4311584 5.38269805,15.8881579 C4.5518516,14.4638497 3.48362046,11.9713104 1.22846582,7.69838578 C-1.14538117,3.4254612 1.94061991,-0.372693977 2.53408166,0.458152469 Z M11.5547002,23.6031606 L5.5013904,34.0480874 C5.14531335,34.6415491 4.43315925,34.7602415 3.8396975,34.4041644 L1.82192756,33.0985486 C1.22846582,32.7424715 1.10977347,31.9116251 1.46585052,31.4368557 L9.53693028,20.2797748 L11.5547002,23.6031606 Z" id="Combined-Shape"></path>
                </g>
            </g>
        </g>
    </g>
</svg>