<?xml version="1.0" encoding="UTF-8" standalone="no"?>
<svg width="50px" height="50px" viewBox="0 0 50 50" version="1.1" xmlns="http://www.w3.org/2000/svg" xmlns:xlink="http://www.w3.org/1999/xlink">
    <!-- Generator: Sketch 46.1 (44463) - http://www.bohemiancoding.com/sketch -->
    <title>景区范围</title>
    <desc>Created with Sketch.</desc>
    <defs>
        <circle id="path-1" cx="25" cy="25" r="25"></circle>
    </defs>
    <g id="普通" stroke="none" stroke-width="1" fill="none" fill-rule="evenodd">
        <g id="景区范围">
            <g id="Group">
                <g id="Oval-5">
                    <use fill="#FFFFFF" fill-rule="evenodd" xlink:href="#path-1"></use>
                    <circle stroke="#006DCE" stroke-width="1" cx="25" cy="25" r="24.5"></circle>
                </g>
                <g id="景区范围" transform="translate(7.500000, 7.500000)">
                    <circle id="Oval-10" stroke="#000000" stroke-dasharray="3" cx="17.5" cy="17.5" r="17.5"></circle>
                    <path d="M21.8909091,11.7727273 L24.0545455,11.7727273 L24.0545455,16.1 L21.8909091,16.1 L21.8909091,11.7727273 Z M31.6272727,17.7916615 C28.7094403,18.039802 26.0208793,17.0212637 25.1363636,15.8459964 L25.1363636,11.9694415 C26.3947768,12.6629877 28.3818182,11.0225728 28.3818182,10.2189342 C23.41248,12.089138 17.5636364,4.2 17.5636364,4.2 C17.5636364,4.2 11.7147927,12.089138 6.74545455,10.2189342 C6.74545455,11.0225728 8.73249586,12.6629877 9.99090909,11.9694415 L9.99090909,15.8459964 C9.10639345,17.0212637 6.41783243,18.039802 3.5,17.7916615 C3.5,19.2301696 6.03974589,21.1938464 7.82727273,20.65264 L7.82727273,26.9181818 L6.74545455,26.9181818 L6.74545455,28 L28.3818182,28 L28.3818182,26.9181818 L27.3,26.9181818 L27.3,20.65264 C29.0875268,21.1938464 31.6272727,19.2301696 31.6272727,17.7916615 Z M13.2363636,20.4272727 L21.8909091,20.4272727 L21.8909091,26.9181818 L13.2363636,26.9181818 L13.2363636,20.4272727 Z M13.2363636,11.7727273 L13.2363636,16.1 L11.0727273,16.1 L11.0727273,11.7727273 L13.2363636,11.7727273 Z M20.8090909,11.7727273 L20.8090909,16.1 L14.3181818,16.1 L14.3181818,11.7727273 L20.8090909,11.7727273 Z" id="Combined-Shape" fill="#945C03" fill-rule="nonzero"></path>
                </g>
            </g>
        </g>
    </g>
</svg>