<?xml version="1.0" encoding="UTF-8" standalone="no"?>
<svg width="50px" height="50px" viewBox="0 0 50 50" version="1.1" xmlns="http://www.w3.org/2000/svg" xmlns:xlink="http://www.w3.org/1999/xlink">
    <!-- Generator: Sketch 46.1 (44463) - http://www.bohemiancoding.com/sketch -->
    <title>景区</title>
    <desc>Created with Sketch.</desc>
    <defs>
        <circle id="path-1" cx="25" cy="25" r="25"></circle>
    </defs>
    <g id="普通" stroke="none" stroke-width="1" fill="none" fill-rule="evenodd">
        <g id="景区">
            <g id="Group">
                <g id="Oval-5">
                    <use fill="#FFFFFF" fill-rule="evenodd" xlink:href="#path-1"></use>
                    <circle stroke="#006DCE" stroke-width="1" cx="25" cy="25" r="24.5"></circle>
                </g>
                <g id="景区" transform="translate(7.500000, 10.500000)" fill-rule="nonzero" fill="#945C03">
                    <path d="M22.704826,9.34904602 L25.375982,9.34904602 L25.375982,14.691358 L22.704826,14.691358 L22.704826,9.34904602 Z M34.7250281,16.779829 C31.1227658,17.0861753 27.8035547,15.8287206 26.71156,14.3777734 L26.71156,9.59190311 C28.2651566,10.448133 30.7182941,8.42292938 30.7182941,7.43078298 C24.5833086,9.73967654 17.362514,-5.32907052e-15 17.362514,-5.32907052e-15 C17.362514,-5.32907052e-15 10.1417194,9.73967654 4.00673401,7.43078298 C4.00673401,8.42292938 6.45987143,10.448133 8.01346801,9.59190311 L8.01346801,14.3777734 C6.9214734,15.8287206 3.60226226,17.0861753 0,16.779829 C0,18.555765 3.13548876,20.9800573 5.34231201,20.3119012 L5.34231201,28.047138 L4.00673401,28.047138 L4.00673401,29.382716 L30.7182941,29.382716 L30.7182941,28.047138 L29.382716,28.047138 L29.382716,20.3119012 C31.5895393,20.9800573 34.7250281,18.555765 34.7250281,16.779829 Z M12.020202,20.03367 L22.704826,20.03367 L22.704826,28.047138 L12.020202,28.047138 L12.020202,20.03367 Z M12.020202,9.34904602 L12.020202,14.691358 L9.34904602,14.691358 L9.34904602,9.34904602 L12.020202,9.34904602 Z M21.369248,9.34904602 L21.369248,14.691358 L13.35578,14.691358 L13.35578,9.34904602 L21.369248,9.34904602 Z" id="Combined-Shape"></path>
                </g>
            </g>
        </g>
    </g>
</svg>