<?xml version="1.0" encoding="UTF-8" standalone="no"?>
<svg width="50px" height="50px" viewBox="0 0 50 50" version="1.1" xmlns="http://www.w3.org/2000/svg" xmlns:xlink="http://www.w3.org/1999/xlink">
    <!-- Generator: Sketch 46.1 (44463) - http://www.bohemiancoding.com/sketch -->
    <title>景点</title>
    <desc>Created with Sketch.</desc>
    <defs>
        <circle id="path-1" cx="25" cy="25" r="25"></circle>
    </defs>
    <g id="普通" stroke="none" stroke-width="1" fill="none" fill-rule="evenodd">
        <g id="景点">
            <g id="Group">
                <g id="Oval-5">
                    <use fill="#FFFFFF" fill-rule="evenodd" xlink:href="#path-1"></use>
                    <circle stroke="#006DCE" stroke-width="1" cx="25" cy="25" r="24.5"></circle>
                </g>
                <g id="景点" transform="translate(7.500000, 7.500000)" fill="#945C03">
                    <path d="M26.4444444,13.2222222 L25.2777778,13.2222222 L25.2777778,29.1666667 L26.4444444,29.1666667 L26.4444444,13.2222222 Z M27.6111111,13.2222222 L27.6111111,29.1666667 L28.9947255,29.1666667 L28.9947255,29.1666667 C30.4981673,29.1666667 31.7169477,30.3854471 31.7169477,31.8888889 C31.7169477,33.3923307 30.4981673,34.6111111 28.9947255,34.6111111 L6.12028115,34.6111111 C4.61683933,34.6111111 3.39805892,33.3923307 3.39805892,31.8888889 C3.39805892,30.3854471 4.61683933,29.1666667 6.12028115,29.1666667 L7.28694781,29.1666667 L7.28694781,13.2222222 L0.247487007,13.2222222 C0.250462926,13.2063434 0.253260871,13.1903664 0.255877747,13.1742956 C0.105315188,13.0846029 0,12.8786363 0,12.6388889 C0,12.4452422 0.0687073959,12.2736339 0.174469502,12.1675339 C0.174254384,12.166911 0.174038974,12.1662884 0.173823272,12.1656659 L0.182889387,12.1593001 C0.213794873,12.1298485 0.247682538,12.1058867 0.28380525,12.0884415 L12.2563772,3.68183731 C12.0785326,3.33587021 11.9781542,2.94354631 11.9781542,2.52777778 L11.9781542,2.52777778 L11.9781542,2.52777778 C11.9781542,1.13172466 13.1098789,7.00540007e-16 14.505932,4.4408921e-16 L14.505932,0 L20.494068,0 L20.494068,-8.8817842e-16 C21.8901211,9.53150348e-17 23.0218458,1.13172466 23.0218458,2.52777778 L23.0218458,2.52777778 C23.0218458,2.94354631 22.9214674,3.33587021 22.7436228,3.68183731 L34.6918913,12.0713768 C34.6911311,12.0732314 34.6903736,12.0750884 34.6896188,12.0769477 C34.8686512,12.1455301 35,12.3711438 35,12.6388889 C35,12.9576798 34.8137935,13.2167432 34.5826009,13.2221365 C34.5826062,13.222165 34.5826116,13.2221936 34.582617,13.2222222 L27.6111111,13.2222222 Z M24.1111111,13.2222222 L10.7869478,13.2222222 L10.7869478,29.1666667 L24.1111111,29.1666667 L24.1111111,13.2222222 Z M9.62028115,13.2222222 L8.45361448,13.2222222 L8.45361448,29.1666667 L9.62028115,29.1666667 L9.62028115,13.2222222 Z" id="Combined-Shape"></path>
                </g>
            </g>
        </g>
    </g>
</svg>