<?xml version="1.0" encoding="UTF-8" standalone="no"?>
<svg width="50px" height="50px" viewBox="0 0 50 50" version="1.1" xmlns="http://www.w3.org/2000/svg" xmlns:xlink="http://www.w3.org/1999/xlink">
    <!-- Generator: Sketch 46.1 (44463) - http://www.bohemiancoding.com/sketch -->
    <title>景点范围</title>
    <desc>Created with Sketch.</desc>
    <defs>
        <circle id="path-1" cx="25" cy="25" r="25"></circle>
    </defs>
    <g id="普通" stroke="none" stroke-width="1" fill="none" fill-rule="evenodd">
        <g id="景点范围">
            <g id="Group">
                <g id="Oval-5">
                    <use fill="#FFFFFF" fill-rule="evenodd" xlink:href="#path-1"></use>
                    <circle stroke="#006DCE" stroke-width="1" cx="25" cy="25" r="24.5"></circle>
                </g>
                <g id="景点范围" transform="translate(7.500000, 7.500000)">
                    <circle id="Oval-9" stroke="#000000" stroke-dasharray="3" cx="17.5" cy="17.5" r="17.5"></circle>
                    <path d="M22.8666667,14.9333333 L22.1666667,14.9333333 L22.1666667,24.5 L22.8666667,24.5 L22.8666667,14.9333333 Z M23.5666667,14.9333333 L23.5666667,24.5 L24.3968353,24.5 L24.3968353,24.5 C25.2989004,24.5 26.0301686,25.2312682 26.0301686,26.1333333 C26.0301686,27.0353984 25.2989004,27.7666667 24.3968353,27.7666667 L10.6721687,27.7666667 C9.7701036,27.7666667 9.03883535,27.0353984 9.03883535,26.1333333 C9.03883535,25.2312682 9.7701036,24.5 10.6721687,24.5 L10.6721687,24.5 L11.3721687,24.5 L11.3721687,14.9333333 L7.1484922,14.9333333 C7.15027776,14.923806 7.15195652,14.9142199 7.15352665,14.9045774 C7.06318911,14.8507618 7,14.7271818 7,14.5833333 C7,14.4671453 7.04122444,14.3641804 7.1046817,14.3005204 C7.10455263,14.3001466 7.10442338,14.299773 7.10429396,14.2993996 L7.10973363,14.2955801 C7.12827692,14.2779091 7.14860952,14.263532 7.17028315,14.2530649 L14.3538263,9.20910238 C14.2471196,9.00152213 14.1868925,8.76612778 14.1868925,8.51666667 L14.1868925,8.51666667 L14.1868925,8.51666667 C14.1868925,7.6790348 14.8659273,7 15.7035592,7 L15.7035592,7 L19.2964408,7 L19.2964408,7 C20.1340727,7 20.8131075,7.6790348 20.8131075,8.51666667 L20.8131075,8.51666667 C20.8131075,8.76612778 20.7528804,9.00152213 20.6461737,9.20910238 L27.8151348,14.2428261 C27.8146787,14.2439388 27.8142242,14.245053 27.8137713,14.2461686 C27.9211907,14.2873181 28,14.4226863 28,14.5833333 C28,14.7746079 27.8882761,14.9300459 27.7495605,14.9332819 C27.7495637,14.933299 27.749567,14.9333162 27.7495702,14.9333333 L23.5666667,14.9333333 Z M21.4666667,14.9333333 L13.4721687,14.9333333 L13.4721687,24.5 L21.4666667,24.5 L21.4666667,14.9333333 Z M12.7721687,14.9333333 L12.0721687,14.9333333 L12.0721687,24.5 L12.7721687,24.5 L12.7721687,14.9333333 Z" id="Combined-Shape" fill="#945C03"></path>
                </g>
            </g>
        </g>
    </g>
</svg>