<?xml version="1.0" encoding="UTF-8" standalone="no"?>
<svg width="50px" height="50px" viewBox="0 0 50 50" version="1.1" xmlns="http://www.w3.org/2000/svg" xmlns:xlink="http://www.w3.org/1999/xlink">
    <!-- Generator: Sketch 46.1 (44463) - http://www.bohemiancoding.com/sketch -->
    <title>服务区</title>
    <desc>Created with Sketch.</desc>
    <defs>
        <circle id="path-1" cx="25" cy="25" r="25"></circle>
    </defs>
    <g id="普通" stroke="none" stroke-width="1" fill="none" fill-rule="evenodd">
        <g id="服务区">
            <g id="Group">
                <g id="Oval-5">
                    <use fill="#FFFFFF" fill-rule="evenodd" xlink:href="#path-1"></use>
                    <circle stroke="#006DCE" stroke-width="1" cx="25" cy="25" r="24.5"></circle>
                </g>
                <g id="服务区" transform="translate(7.500000, 8.000000)" fill="#0030CE">
                    <path d="M20.7660368,16.9303747 C18.66537,18.6864878 15.7827882,19.4506192 12.1205144,19.4506192 L7.22451572,19.4506192 L7.22451572,30.0095268 L0,30.0095268 L0,0 L12.2444427,0 C14.5435059,0 16.5802636,0.326770403 18.348047,1.17426167 C20.1186091,2.02064147 21.4879327,3.17767545 22.4593522,4.74039378 C23.427993,6.30366783 23.9142585,7.99476024 23.9142585,9.97816767 C23.9148142,12.9113211 22.8655923,15.1759289 20.7660368,16.9303747 Z M12.4167196,5.74626866 L7.31343284,5.74626866 L7.31343284,14.0822483 L12.3333598,14.0822483 C13.738806,14.0822483 14.8091458,13.8249444 15.5449349,13.1213877 C16.2823912,12.420054 16.6508415,11.4753096 16.6508415,10.1949031 C16.6508415,8.78945697 16.2707209,7.76746586 15.5143696,6.92719911 C14.7574627,6.08748809 13.7249127,5.74626866 12.4167196,5.74626866 Z" id="Combined-Shape"></path>
                    <path d="M31.3432836,24.5522388 L32.3880597,24.5522388 C33.8305945,24.5522388 35,25.7216443 35,27.1641791 L35,27.1641791 C35,28.6067139 33.8305945,29.7761194 32.3880597,29.7761194 L31.328759,29.7761194 C31.1546486,31.8245565 29.436783,33.4328358 27.3432836,33.4328358 L20.7164179,33.4328358 C18.5072789,33.4328358 16.7164179,31.6419748 16.7164179,29.4328358 L16.7164179,28.0298507 L16.7164179,28.0298507 C16.7164179,27.7326064 16.7488402,27.4429347 16.8103411,27.1641791 L16.7164179,27.1641791 L16.7164179,24.0298507 L31.3432836,24.0298507 L31.3432836,24.5522388 Z M31.3432836,25.5970149 L31.3432836,27.1641791 L31.2493604,27.1641791 C31.3108613,27.4429347 31.3432836,27.7326064 31.3432836,28.0298507 L31.3432836,28.7313433 L32.3880597,28.7313433 C33.2535806,28.7313433 33.9552239,28.0297 33.9552239,27.1641791 L33.9552239,27.1641791 C33.9552239,26.2986582 33.2535806,25.5970149 32.3880597,25.5970149 L32.3880597,25.5970149 L31.3432836,25.5970149 Z" id="Combined-Shape"></path>
                </g>
            </g>
        </g>
    </g>
</svg>