<?xml version="1.0" encoding="UTF-8" standalone="no"?>
<svg width="50px" height="50px" viewBox="0 0 50 50" version="1.1" xmlns="http://www.w3.org/2000/svg" xmlns:xlink="http://www.w3.org/1999/xlink">
    <!-- Generator: Sketch 46.1 (44463) - http://www.bohemiancoding.com/sketch -->
    <title>星级酒店</title>
    <desc>Created with Sketch.</desc>
    <defs>
        <circle id="path-1" cx="25" cy="25" r="25"></circle>
    </defs>
    <g id="普通" stroke="none" stroke-width="1" fill="none" fill-rule="evenodd">
        <g id="星级酒店">
            <g id="Group">
                <g id="Oval-5">
                    <use fill="#FFFFFF" fill-rule="evenodd" xlink:href="#path-1"></use>
                    <circle stroke="#006DCE" stroke-width="1" cx="25" cy="25" r="24.5"></circle>
                </g>
                <g id="星级酒店" transform="translate(8.000000, 7.500000)" fill-rule="nonzero" fill="#885ADA">
                    <path d="M28.8988125,3.69872588 L28.6108981,5.37295893 C28.5970435,5.45392133 28.630814,5.53618258 28.6970559,5.58467343 C28.7632979,5.63316428 28.8520534,5.63922563 28.9247897,5.60112568 L30.4288718,4.81055171 L31.932954,5.60112568 C32.0056903,5.63922563 32.0944458,5.63316428 32.1606878,5.58467343 C32.2269297,5.53661554 32.2602672,5.45392133 32.2468456,5.37295893 L31.9593642,3.69872588 L33.1755319,2.51286492 C33.2348466,2.45571499 33.2560614,2.3691242 33.2305171,2.29075952 C33.2049728,2.21282781 33.136999,2.15524493 33.0556037,2.14355517 L31.3744433,1.89980208 L30.6232682,0.376669965 C30.5869,0.303067788 30.5111331,0.255875804 30.4293048,0.255875804 C30.3474765,0.255875804 30.2717095,0.302634834 30.2353414,0.376669965 L29.4841663,1.89980208 L27.802573,2.14355517 C27.7211776,2.15524493 27.6532039,2.21282781 27.6280925,2.29075952 C27.6025482,2.3691242 27.623763,2.45528204 27.6830777,2.51286492 L28.8988125,3.69872588 Z" id="Shape"></path>
                    <path d="M28.8988125,10.0899926 L28.6108981,11.7646586 C28.5970435,11.845621 28.630814,11.9278822 28.6970559,11.9763731 C28.7632979,12.0248639 28.8520534,12.0309253 28.9247897,11.9928253 L30.4288718,11.2018184 L31.932954,11.9928253 C32.0056903,12.0309253 32.0944458,12.0248639 32.1606878,11.9763731 C32.2269297,11.9283152 32.2602672,11.845621 32.2468456,11.7646586 L31.9593642,10.0899926 L33.1755319,8.90456457 C33.2348466,8.84741465 33.2560614,8.76082385 33.2305171,8.68245918 C33.2049728,8.60452746 33.136999,8.54694458 33.0556037,8.53525482 L31.3744433,8.29150173 L30.6232682,6.76836962 C30.5869,6.69476744 30.5111331,6.64757546 30.4293048,6.64757546 C30.3474765,6.64757546 30.2717095,6.69433449 30.2353414,6.76836962 L29.4841663,8.29150173 L27.802573,8.53525482 C27.7211776,8.54694458 27.6532039,8.60452746 27.6280925,8.68245918 C27.6025482,8.76082385 27.623763,8.84698169 27.6830777,8.90456457 L28.8988125,10.0899926 Z" id="Shape"></path>
                    <path d="M28.8988125,16.4816922 L28.6108981,18.1559253 C28.5970435,18.2373206 28.630814,18.3195819 28.6970559,18.3676398 C28.7355888,18.3953488 28.780616,18.4053068 28.8269421,18.4044409 L28.8243444,18.4195943 L28.8698046,18.3953488 L28.9247897,18.384092 L30.4288718,17.5935181 L31.932954,18.384092 L31.9879391,18.3953488 L32.0333993,18.4195943 L32.0308016,18.4044409 C32.0766947,18.4053068 32.1221549,18.3953488 32.1606878,18.3676398 C32.2269297,18.3195819 32.2602672,18.2368877 32.2468456,18.1559253 L31.9593642,16.4816922 L33.1755319,15.2958313 C33.2348466,15.2386813 33.2560614,15.1520905 33.2305171,15.0737259 C33.2049728,14.9957942 33.136999,14.9382113 33.0556037,14.9265215 L31.3744433,14.6827684 L30.6232682,13.1596363 C30.5869,13.0860341 30.5111331,13.0388422 30.4293048,13.0388422 C30.3474765,13.0388422 30.2717095,13.0856012 30.2353414,13.1596363 L29.4841663,14.6827684 L27.802573,14.9265215 C27.7211776,14.9382113 27.6532039,14.9957942 27.6280925,15.0737259 C27.6025482,15.1520905 27.623763,15.2382484 27.6830777,15.2958313 L28.8988125,16.4816922 Z" id="Shape"></path>
                    <path d="M33.2305171,21.4662914 C33.2049728,21.3879268 33.136999,21.3307768 33.0560366,21.3186541 L31.3744433,21.0744681 L30.6232682,19.551336 C30.5869,19.4773008 30.5111331,19.4305418 30.4293048,19.4305418 C30.3474765,19.4305418 30.2717095,19.4773008 30.2353414,19.551336 L29.4841663,21.0744681 L27.802573,21.3186541 C27.7211776,21.3303439 27.6532039,21.3879268 27.6280925,21.4662914 C27.6029812,21.5446561 27.6241959,21.630814 27.6830777,21.6883968 L28.8996784,22.8733919 L28.611764,24.547192 C28.5979095,24.6285873 28.6316799,24.7108486 28.6979218,24.7589065 C28.7641638,24.8069644 28.8529193,24.8138916 28.9256556,24.7753587 L30.4297378,23.9852177 L31.9338199,24.7753587 C32.0065562,24.8138916 32.0953117,24.8069644 32.1615537,24.7589065 C32.2277956,24.7108486 32.2611331,24.6281544 32.2477115,24.547192 L31.9602301,22.8733919 L33.1763978,21.6883968 C33.2348466,21.630381 33.2560614,21.5442232 33.2305171,21.4662914 Z" id="Shape"></path>
                    <path d="M28.8988125,29.2650915 L28.6108981,30.9384587 C28.5970435,31.019854 28.630814,31.1021153 28.6970559,31.1501732 C28.7632979,31.1982311 28.8520534,31.2051583 28.9247897,31.1666254 L30.4288718,30.3760515 L31.932954,31.1666254 C32.0056903,31.2051583 32.0944458,31.1982311 32.1606878,31.1501732 C32.2269297,31.1021153 32.2602672,31.0194211 32.2468456,30.9384587 L31.9593642,29.2650915 L33.1755319,28.0792306 C33.2348466,28.0216477 33.2560614,27.9350569 33.2305171,27.8571252 C33.2049728,27.7787605 33.136999,27.7216106 33.0556037,27.7094879 L31.3744433,27.4661677 L30.6232682,25.9430356 C30.5869,25.8690005 30.5111331,25.8222415 30.4293048,25.8222415 C30.3474765,25.8222415 30.2717095,25.8690005 30.2353414,25.9430356 L29.4841663,27.4661677 L27.8030059,27.7094879 C27.7216106,27.7211776 27.6532039,27.7787605 27.6280925,27.8571252 C27.6025482,27.9350569 27.623763,28.0216477 27.6830777,28.0792306 L28.8988125,29.2650915 Z" id="Shape"></path>
                    <path d="M19.3617021,2.60638298 C19.3617021,1.78723404 18.691117,1.11702128 17.8723404,0.744680851 L5.95744681,0.746914894 C5.13792553,1.11925532 4.46808511,1.78909574 4.46808511,2.6075 C4.46808511,3.42590426 4.46808511,3.72340426 4.46808511,3.72340426 L19.3617021,3.72340426 L19.3617021,2.60638298 Z" id="Shape"></path>
                    <rect id="Rectangle-path" x="0" y="33.5106383" width="33.5106383" height="1.4893617"></rect>
                    <path d="M9.68085106,26.4361702 C9.68085106,25.2070745 10.6861702,24.2021277 11.9148936,24.2021277 C13.143617,24.2021277 14.1489362,25.2070745 14.1489362,26.4361702 L14.1489362,31.6489362 L22.3404255,31.6489362 L22.3404255,6.32978723 C22.3404255,5.5106383 21.6702128,4.84042553 20.8510638,4.84042553 L2.9787234,4.84042553 C2.15957447,4.84042553 1.4893617,5.5106383 1.4893617,6.32978723 L1.4893617,31.6489362 L9.68085106,31.6489362 L9.68085106,26.4361702 Z M16.3829787,7.81914894 L19.3617021,7.81914894 L19.3617021,10.7978723 L16.3829787,10.7978723 L16.3829787,7.81914894 Z M16.3829787,13.7765957 L19.3617021,13.7765957 L19.3617021,16.7553191 L16.3829787,16.7553191 L16.3829787,13.7765957 Z M16.3829787,19.7340426 L19.3617021,19.7340426 L19.3617021,22.712766 L16.3829787,22.712766 L16.3829787,19.7340426 Z M16.3829787,25.6914894 L19.3617021,25.6914894 L19.3617021,28.6702128 L16.3829787,28.6702128 L16.3829787,25.6914894 Z M10.4255319,7.81914894 L13.4042553,7.81914894 L13.4042553,10.7978723 L10.4255319,10.7978723 L10.4255319,7.81914894 Z M10.4255319,13.7765957 L13.4042553,13.7765957 L13.4042553,16.7553191 L10.4255319,16.7553191 L10.4255319,13.7765957 Z M10.4255319,19.7340426 L13.4042553,19.7340426 L13.4042553,22.712766 L10.4255319,22.712766 L10.4255319,19.7340426 Z M7.44680851,28.6702128 L4.46808511,28.6702128 L4.46808511,25.6914894 L7.44680851,25.6914894 L7.44680851,28.6702128 Z M7.44680851,22.712766 L4.46808511,22.712766 L4.46808511,19.7340426 L7.44680851,19.7340426 L7.44680851,22.712766 Z M7.44680851,16.7553191 L4.46808511,16.7553191 L4.46808511,13.7765957 L7.44680851,13.7765957 L7.44680851,16.7553191 Z M7.44680851,10.7978723 L4.46808511,10.7978723 L4.46808511,7.81914894 L7.44680851,7.81914894 L7.44680851,10.7978723 Z" id="Shape"></path>
                </g>
            </g>
        </g>
    </g>
</svg>