<?xml version="1.0" encoding="UTF-8" standalone="no"?>
<svg width="50px" height="50px" viewBox="0 0 50 50" version="1.1" xmlns="http://www.w3.org/2000/svg" xmlns:xlink="http://www.w3.org/1999/xlink">
    <!-- Generator: Sketch 46.1 (44463) - http://www.bohemiancoding.com/sketch -->
    <title>游客中心</title>
    <desc>Created with Sketch.</desc>
    <defs>
        <circle id="path-1" cx="25" cy="25" r="25"></circle>
    </defs>
    <g id="普通" stroke="none" stroke-width="1" fill="none" fill-rule="evenodd">
        <g id="游客中心">
            <g id="Group">
                <g id="Oval-5">
                    <use fill="#FFFFFF" fill-rule="evenodd" xlink:href="#path-1"></use>
                    <circle stroke="#006DCE" stroke-width="1" cx="25" cy="25" r="24.5"></circle>
                </g>
                <g id="游客中心" transform="translate(7.500000, 7.500000)" fill="#945D09">
                    <path d="M15.925,12.95 L11.2,12.95 C10.8134007,12.95 10.5,13.2634007 10.5,13.65 C10.5,14.0365993 10.8134007,14.35 11.2,14.35 L11.2,14.35 L14,14.35 L14,29.05 L11.2,29.05 C10.8134007,29.05 10.5,29.3634007 10.5,29.75 C10.5,30.1365993 10.8134007,30.45 11.2,30.45 L23.8,30.45 C24.1865993,30.45 24.5,30.1365993 24.5,29.75 C24.5,29.3634007 24.1865993,29.05 23.8,29.05 L23.8,29.05 L21,29.05 L21,12.95 L15.925,12.95 Z M17.5,35 C7.83501688,35 0,27.1649831 0,17.5 C0,7.83501688 7.83501688,0 17.5,0 C27.1649831,0 35,7.83501688 35,17.5 C35,27.1649831 27.1649831,35 17.5,35 Z M17.325,10.85 C19.3546465,10.85 21,9.20464646 21,7.175 C21,5.14535354 19.3546465,3.5 17.325,3.5 C15.2953535,3.5 13.65,5.14535354 13.65,7.175 C13.65,9.20464646 15.2953535,10.85 17.325,10.85 Z" id="Combined-Shape"></path>
                </g>
            </g>
        </g>
    </g>
</svg>