<?xml version="1.0" encoding="UTF-8" standalone="no"?>
<svg width="50px" height="50px" viewBox="0 0 50 50" version="1.1" xmlns="http://www.w3.org/2000/svg" xmlns:xlink="http://www.w3.org/1999/xlink">
    <!-- Generator: Sketch 46.1 (44463) - http://www.bohemiancoding.com/sketch -->
    <title>火车</title>
    <desc>Created with Sketch.</desc>
    <defs>
        <circle id="path-1" cx="25" cy="25" r="25"></circle>
    </defs>
    <g id="普通" stroke="none" stroke-width="1" fill="none" fill-rule="evenodd">
        <g id="火车">
            <g id="Group">
                <g id="Oval-5">
                    <use fill="#FFFFFF" fill-rule="evenodd" xlink:href="#path-1"></use>
                    <circle stroke="#006DCE" stroke-width="1" cx="25" cy="25" r="24.5"></circle>
                </g>
                <g id="火车" transform="translate(10.000000, 7.500000)" fill="#4883FD">
                    <path d="M11.1384549,2.51488615 C4.73179733,4.17235108 0,9.99192363 0,16.9166667 C0,22.7622343 3.37188061,27.820257 8.27675251,30.2518455 L9.55356094,27.9535903 C5.45345121,25.9730977 2.625,21.7751923 2.625,16.9166667 C2.625,10.1511785 8.10951181,4.66666667 14.875,4.66666667 C21.6404882,4.66666667 27.125,10.1511785 27.125,16.9166667 C27.125,21.5934386 24.5042109,25.6580924 20.6511646,27.7220962 L21.9263469,30.0174243 C26.5845792,27.5049016 29.75,22.5804459 29.75,16.9166667 C29.75,9.99192363 25.0182027,4.17235108 18.6115451,2.51488615 C18.6475887,2.36301051 18.6666667,2.20456654 18.6666667,2.04166667 L18.6666667,2.04166667 C18.6666667,0.914085302 17.7525814,5.67730069e-16 16.625,1.77635684e-15 L16.625,0 L13.125,0 L13.125,-4.4408921e-16 C11.9974186,-2.36955874e-16 11.0833333,0.914085302 11.0833333,2.04166667 L11.0833333,2.04166667 L11.0833333,2.04166667 C11.0833333,2.20456654 11.1024113,2.36301051 11.1384549,2.51488615 Z" id="Combined-Shape"></path>
                    <path d="M24.7916667,33.5857329 L24.7916667,35 L4.95833333,35 L4.95833333,33.5130601 L11.498353,32.7100467 C12.3075505,32.6106897 12.9477341,32.0506388 13.1883414,31.325 L13.4166667,31.325 L13.4166667,21.875 L12.9791667,21.875 L12.9791667,21.875 C12.8087617,21.875 12.6410873,21.8633092 12.4769017,21.840686 C11.884018,21.1370731 11.0529049,20.6407924 10.1078893,20.4761709 C9.6226345,19.8569711 9.33333333,19.0768538 9.33333333,18.2291667 C9.33333333,16.2156285 10.9656285,14.5833333 12.9791667,14.5833333 L12.9791667,14.5833333 L16.1875,14.5833333 L16.1875,14.5833333 C18.2010382,14.5833333 19.8333333,16.2156285 19.8333333,18.2291667 L19.8333333,18.2291667 C19.8333333,19.0768538 19.5440322,19.8569711 19.0587773,20.4761709 C18.1137618,20.6407924 17.2826486,21.1370731 16.6897649,21.840686 C16.5255793,21.8633092 16.3579049,21.875 16.1875,21.875 L15.75,21.875 L15.75,31.325 L15.9697862,31.325 C16.2103936,32.0506388 16.8505771,32.6106897 17.6597746,32.7100467 L17.6597746,32.7100467 L24.7916667,33.5857329 Z" id="Combined-Shape"></path>
                </g>
            </g>
        </g>
    </g>
</svg>