<?xml version="1.0" encoding="UTF-8" standalone="no"?>
<svg width="50px" height="50px" viewBox="0 0 50 50" version="1.1" xmlns="http://www.w3.org/2000/svg" xmlns:xlink="http://www.w3.org/1999/xlink">
    <!-- Generator: Sketch 46.1 (44463) - http://www.bohemiancoding.com/sketch -->
    <title>旅游巴士站</title>
    <desc>Created with Sketch.</desc>
    <defs>
        <circle id="path-1" cx="25" cy="25" r="25"></circle>
    </defs>
    <g id="普通" stroke="none" stroke-width="1" fill="none" fill-rule="evenodd">
        <g id="旅游巴士站">
            <g id="Group">
                <g id="Oval-5">
                    <use fill="#FFFFFF" fill-rule="evenodd" xlink:href="#path-1"></use>
                    <circle stroke="#006DCE" stroke-width="1" cx="25" cy="25" r="24.5"></circle>
                </g>
                <g id="旅游巴士站" transform="translate(7.500000, 14.000000)" fill-rule="nonzero" fill="#4883FD">
                    <path d="M34.2376844,1.67166792 L31.9883721,1.67166792 L31.9883721,0.967116779 C31.9883721,0.619654914 31.7048012,0.336084021 31.3573393,0.336084021 L13.6232183,0.336084021 C13.276194,0.336084021 12.9926232,0.619654914 12.9926232,0.967116779 L12.9926232,1.67166792 L10.7433108,1.67166792 C10.4011003,1.67166792 10.1232183,1.94954989 10.1232183,2.29219805 L10.1232183,5.63465866 C10.1232183,5.97730683 10.4011003,6.2551888 10.7433108,6.2551888 C11.085959,6.2551888 11.363841,5.97730683 11.363841,5.63465866 L11.363841,2.91229057 L12.9926232,2.91229057 L12.9926232,19.1419105 C12.9926232,19.4893723 13.276194,19.7729432 13.6232183,19.7729432 L14.2227432,19.7729432 L14.2227432,21.0039385 C14.2227432,21.2468117 14.4214179,21.445924 14.6647287,21.445924 L15.7688172,21.445924 C16.012128,21.445924 16.2108027,21.2468117 16.2108027,21.0039385 L16.2108027,19.7729432 L28.7763191,19.7729432 L28.7763191,21.0039385 C28.7763191,21.2468117 28.9749937,21.445924 29.217867,21.445924 L30.3219555,21.445924 C30.5652663,21.445924 30.763941,21.2468117 30.763941,21.0039385 L30.763941,19.7729432 L31.3569017,19.7729432 C31.7043636,19.7729432 31.9879345,19.4893723 31.9879345,19.1419105 L31.9879345,2.91229057 L33.6171543,2.91229057 L33.6171543,5.63465866 C33.6171543,5.97730683 33.8945986,6.2551888 34.2372468,6.2551888 C34.579895,6.2551888 34.8573393,5.97730683 34.8573393,5.63465866 L34.8573393,2.29219805 C34.8577769,1.94954989 34.5803326,1.67166792 34.2376844,1.67166792 Z M14.8844086,17.2518755 C14.5833333,17.2518755 14.3369592,17.005939 14.3369592,16.7044261 C14.3369592,16.4033508 14.5833333,16.1574144 14.8844086,16.1574144 C15.1854839,16.1574144 15.431858,16.4033508 15.431858,16.7044261 C15.431858,17.005939 15.1859215,17.2518755 14.8844086,17.2518755 Z M17.2308702,17.5687047 C16.7547512,17.5687047 16.366154,17.1801075 16.366154,16.7039885 C16.366154,16.2283071 16.7547512,15.8397099 17.2308702,15.8397099 C17.7065516,15.8397099 18.0951488,16.2283071 18.0951488,16.7039885 C18.0947112,17.1805451 17.706114,17.5687047 17.2308702,17.5687047 Z M27.7816329,17.5687047 C27.3055139,17.5687047 26.9169167,17.1801075 26.9169167,16.7039885 C26.9169167,16.2283071 27.3055139,15.8397099 27.7816329,15.8397099 C28.2577519,15.8397099 28.6459115,16.2283071 28.6459115,16.7039885 C28.6454739,17.1805451 28.2577519,17.5687047 27.7816329,17.5687047 Z M30.1272193,17.2518755 C29.8257064,17.2518755 29.5797699,17.005939 29.5797699,16.7044261 C29.5797699,16.4033508 29.8257064,16.1574144 30.1272193,16.1574144 C30.4282946,16.1574144 30.6746687,16.4033508 30.6746687,16.7044261 C30.6746687,17.005939 30.4287322,17.2518755 30.1272193,17.2518755 Z M31.1192798,13.8411478 C31.1192798,14.188172 30.8610903,14.4717429 30.5455739,14.4717429 L14.4354214,14.4717429 C14.119905,14.4717429 13.8617154,14.188172 13.8617154,13.8411478 L13.8617154,3.99624906 C13.8617154,3.8815954 13.8897224,3.77350588 13.9391723,3.68073268 C14.0389472,3.86890473 14.224056,3.99624906 14.4354214,3.99624906 L30.5455739,3.99624906 C30.7565016,3.99624906 30.942048,3.86890473 31.041823,3.68073268 C31.0908352,3.77350588 31.1192798,3.8815954 31.1192798,3.99624906 L31.1192798,13.8411478 Z" id="Shape"></path>
                    <path d="M3.96605401,0.804763691 C1.85983996,0.804763691 0.142223056,2.5228182 0.142223056,4.62859465 C0.142223056,6.49937484 1.4988122,8.06076519 3.27725681,8.38722181 L3.27725681,20.3042011 L1.66029007,20.3042011 L1.66029007,21.5443861 L6.09108527,21.5443861 L6.09108527,20.3042011 L4.51787947,20.3042011 L4.51787947,8.40822706 C6.36371593,8.13865966 7.79032258,6.54707427 7.79032258,4.62859465 C7.79032258,2.5228182 6.07270568,0.804763691 3.96605401,0.804763691 Z" id="Shape"></path>
                </g>
            </g>
        </g>
    </g>
</svg>