<?xml version="1.0" encoding="UTF-8" standalone="no"?>
<svg width="50px" height="50px" viewBox="0 0 50 50" version="1.1" xmlns="http://www.w3.org/2000/svg" xmlns:xlink="http://www.w3.org/1999/xlink">
    <!-- Generator: Sketch 46.1 (44463) - http://www.bohemiancoding.com/sketch -->
    <title>游览车</title>
    <desc>Created with Sketch.</desc>
    <defs>
        <circle id="path-1" cx="25" cy="25" r="25"></circle>
    </defs>
    <g id="普通" stroke="none" stroke-width="1" fill="none" fill-rule="evenodd">
        <g id="游览车">
            <g id="Group">
                <g id="Oval-5">
                    <use fill="#FFFFFF" fill-rule="evenodd" xlink:href="#path-1"></use>
                    <circle stroke="#006DCE" stroke-width="1" cx="25" cy="25" r="24.5"></circle>
                </g>
                <g id="游览车" transform="translate(7.500000, 14.000000)" fill-rule="nonzero" fill="#4883FD">
                    <path d="M25.0342767,18.4831461 L25.0342767,18.4831461 C25.1212273,18.729152 25.1685394,18.9938822 25.1685394,19.2696629 C25.1685394,20.5728065 24.1121325,21.6292135 22.8089889,21.6292135 C22.2046651,21.6292135 21.6534041,21.4020253 21.2359552,21.0283984 C20.8185062,21.4020253 20.2672452,21.6292135 19.6629214,21.6292135 C18.3597779,21.6292135 17.3033709,20.5728065 17.3033709,19.2696629 C17.3033709,18.9938822 17.350683,18.729152 17.4376336,18.4831461 L9.30393959,18.4831461 C9.39089021,18.729152 9.43820235,18.9938822 9.43820235,19.2696629 C9.43820235,20.5728065 8.38179538,21.6292135 7.07865178,21.6292135 C6.47432802,21.6292135 5.92306701,21.4020253 5.50561808,21.0283984 C5.08816914,21.4020253 4.53690813,21.6292135 3.93258437,21.6292135 C2.62944077,21.6292135 1.57303381,20.5728065 1.57303381,19.2696629 C1.57303381,18.9938822 1.62034594,18.729152 1.70729656,18.4831461 L0.786516952,18.4831461 C-0.262172317,18.4831461 -0.262172317,16.9101124 0.786516952,16.9101124 L0.786516952,6.29213483 C0.786516952,6.08353758 0.869382008,5.88348388 1.01688223,5.73598326 L2.19665751,4.55620798 C2.34415813,4.40870775 2.54421184,4.3258427 2.75280909,4.3258427 L7.93264117,4.3258427 L9.50567487,2.75280899 L8.09553392,1.34266843 C7.78838021,1.03551433 7.78838021,0.537519382 8.09553392,0.230365281 C8.40268802,-0.076788427 8.90068296,-0.076788427 9.20783706,0.230365281 L11.1741292,2.19665742 C11.4812829,2.50381152 11.4812829,3.00180646 11.1741292,3.30896056 L10.1572467,4.3258427 L15.4045513,4.3258427 L16.977585,2.75280899 L15.567444,1.34266843 C15.2602903,1.03551433 15.2602903,0.537519382 15.567444,0.230365281 C15.8745981,-0.076788427 16.3725931,-0.076788427 16.6797472,0.230365281 L18.6460393,2.19665742 C18.953193,2.50381152 18.953193,3.00180646 18.6460393,3.30896056 L17.6291568,4.3258427 L23.9887641,4.3258427 C24.1973614,4.3258427 24.3974151,4.40870775 24.5449157,4.55620798 L25.724691,5.73598326 C25.8721912,5.88348388 25.9550563,6.08353758 25.9550563,6.29213483 L25.9550563,16.9101124 C27.0037455,16.9101124 27.0037455,18.4831461 25.9550563,18.4831461 L25.0342767,18.4831461 Z M24.3820226,7.47191011 L24.3820226,6.61792073 L23.6629782,5.8988764 L3.07859499,5.8988764 L2.35955066,6.61792073 L2.35955066,7.47191011 L24.3820226,7.47191011 Z M24.3820226,16.9101124 L24.3820226,9.04494382 L2.35955066,9.04494382 L2.35955066,16.9101124 L9.43820235,16.9101124 L9.43820235,11.011236 C9.43820235,10.5768549 9.79033813,10.2247191 10.2247192,10.2247191 L16.516854,10.2247191 C16.9512351,10.2247191 17.3033709,10.5768549 17.3033709,11.011236 L17.3033709,16.9101124 L24.3820226,16.9101124 Z M3.93258437,20.0561798 C4.36696544,20.0561798 4.71910122,19.704044 4.71910122,19.2696629 C4.71910122,18.8352819 4.36696544,18.4831461 3.93258437,18.4831461 C3.4982033,18.4831461 3.14606751,18.8352819 3.14606751,19.2696629 C3.14606751,19.704044 3.4982033,20.0561798 3.93258437,20.0561798 Z M7.07865178,20.0561798 C7.51303285,20.0561798 7.86516864,19.704044 7.86516864,19.2696629 C7.86516864,18.8352819 7.51303285,18.4831461 7.07865178,18.4831461 C6.64427072,18.4831461 6.29213493,18.8352819 6.29213493,19.2696629 C6.29213493,19.704044 6.64427072,20.0561798 7.07865178,20.0561798 Z M19.6629214,20.0561798 C20.0973025,20.0561798 20.4494383,19.704044 20.4494383,19.2696629 C20.4494383,18.8352819 20.0973025,18.4831461 19.6629214,18.4831461 C19.2285404,18.4831461 18.8764046,18.8352819 18.8764046,19.2696629 C18.8764046,19.704044 19.2285404,20.0561798 19.6629214,20.0561798 Z M22.8089889,20.0561798 C23.2433699,20.0561798 23.5955057,19.704044 23.5955057,19.2696629 C23.5955057,18.8352819 23.2433699,18.4831461 22.8089889,18.4831461 C22.3746078,18.4831461 22.022472,18.8352819 22.022472,19.2696629 C22.022472,19.704044 22.3746078,20.0561798 22.8089889,20.0561798 Z M15.7303372,11.7977528 L14.1573035,11.7977528 L14.1573035,16.9101124 L15.7303372,16.9101124 L15.7303372,11.7977528 Z M12.5842698,11.7977528 L11.0112361,11.7977528 L11.0112361,16.9101124 L12.5842698,16.9101124 L12.5842698,11.7977528 Z M8.25842706,14.5505618 C8.25842706,14.9849429 7.90629128,15.3370787 7.47191021,15.3370787 L4.32584279,15.3370787 C3.89146173,15.3370787 3.53932594,14.9849429 3.53932594,14.5505618 L3.53932594,11.011236 C3.53932594,10.5768549 3.89146173,10.2247191 4.32584279,10.2247191 L7.47191021,10.2247191 C7.90629128,10.2247191 8.25842706,10.5768549 8.25842706,11.011236 L8.25842706,14.5505618 Z M6.68539336,13.7640449 L6.68539336,11.7977528 L5.11235965,11.7977528 L5.11235965,13.7640449 L6.68539336,13.7640449 Z M23.2022473,14.5505618 C23.2022473,14.9849429 22.8501115,15.3370787 22.4157304,15.3370787 L19.269663,15.3370787 C18.835282,15.3370787 18.4831462,14.9849429 18.4831462,14.5505618 L18.4831462,11.011236 C18.4831462,10.5768549 18.835282,10.2247191 19.269663,10.2247191 L22.4157304,10.2247191 C22.8501115,10.2247191 23.2022473,10.5768549 23.2022473,11.011236 L23.2022473,14.5505618 Z M21.6292136,13.7640449 L21.6292136,11.7977528 L20.0561799,11.7977528 L20.0561799,13.7640449 L21.6292136,13.7640449 Z" id="Shape"></path>
                    <path d="M30.9456885,0 C28.7448132,0 26.95,1.79527045 26.95,3.99568853 C26.95,5.95054873 28.3675594,7.58211393 30.2259342,7.92324275 L30.2259342,20.3758166 L28.5362947,20.3758166 L28.5362947,21.6717403 L33.1662268,21.6717403 L33.1662268,20.3758166 L31.5223151,20.3758166 L31.5223151,7.94519206 C33.4511105,7.66350928 34.9418343,6.00039195 34.9418343,3.99568853 C34.9418343,1.79527045 33.1470212,0 30.9456885,0 Z" id="Shape"></path>
                </g>
            </g>
        </g>
    </g>
</svg>