<?xml version="1.0" encoding="UTF-8" standalone="no"?>
<svg width="50px" height="50px" viewBox="0 0 50 50" version="1.1" xmlns="http://www.w3.org/2000/svg" xmlns:xlink="http://www.w3.org/1999/xlink">
    <!-- Generator: Sketch 46.1 (44463) - http://www.bohemiancoding.com/sketch -->
    <title>厕所</title>
    <desc>Created with Sketch.</desc>
    <defs>
        <circle id="path-1" cx="25" cy="25" r="25"></circle>
    </defs>
    <g id="普通" stroke="none" stroke-width="1" fill="none" fill-rule="evenodd">
        <g id="厕所">
            <g id="Group">
                <g id="Oval-5">
                    <use fill="#FFFFFF" fill-rule="evenodd" xlink:href="#path-1"></use>
                    <circle stroke="#006DCE" stroke-width="1" cx="25" cy="25" r="24.5"></circle>
                </g>
                <g id="厕所" transform="translate(7.500000, 8.500000)" fill="#858A8D">
                    <path d="M28.3784853,0.128008193 C29.9494949,0.128008193 31.2295769,1.40809012 31.2295769,2.97909975 C31.2295769,4.55010939 29.9494949,5.83019131 28.3784853,5.83019131 C26.8074757,5.83019131 25.5273938,4.55010939 25.5273938,2.97909975 C25.5273938,1.34990458 26.8074757,0.128008193 28.3784853,0.128008193 Z" id="Path"></path>
                    <path d="M6.20979379,0.360750361 C7.78080343,0.360750361 9.06088535,1.64083229 9.06088535,3.21184192 C9.06088535,4.78285156 7.78080343,6.06293348 6.20979379,6.06293348 C4.63878415,6.06293348 3.35870223,4.78285156 3.35870223,3.21184192 C3.35870223,1.64083229 4.63878415,0.360750361 6.20979379,0.360750361 Z" id="Path"></path>
                    <path d="M11.7956058,17.7000419 C11.388307,17.816413 10.9228227,17.5836708 10.8064516,17.1181865 C10.8064516,17.1181865 10.3991528,15.6053624 9.75911186,13.3943118 C9.58455523,12.8124564 9.4099986,12.1142299 9.23544198,11.4741889 L9.17725644,14.9071359 L11.1555649,21.365731 C11.3301215,22.005772 10.8064516,22.645813 10.1664107,22.7039985 L9.11907089,22.7621841 L9.17725644,32.0136852 C9.17725644,32.5373551 8.7117721,33.0028395 8.18810222,33.0028395 C7.66443234,33.0028395 7.19894801,32.5955407 7.19894801,32.0718708 L6.84983475,22.8785551 C6.44253596,22.8785551 6.09342271,22.8785551 5.68612391,22.8785551 L5.33701066,32.0718708 C5.33701066,32.5955407 4.87152632,33.061025 4.2896709,33.0028395 C3.76600102,33.0028395 3.35870223,32.5373551 3.35870223,32.0136852 L3.35870223,22.7621841 L2.31136247,22.7039985 C1.61313597,22.645813 1.14765163,22.0639575 1.32220826,21.365731 L3.30051669,14.9071359 L3.24233115,11.4160034 C3.06777452,12.1142299 2.89321789,12.7542708 2.71866127,13.3943118 C2.0786203,15.6053624 1.67132151,17.1181865 1.67132151,17.1181865 C1.55495043,17.5254853 1.08946609,17.816413 0.682167295,17.7000419 C0.274868501,17.5836708 -0.0160592096,17.176372 0.100311875,16.7108877 C0.100311875,16.7108877 0.449425127,15.1980636 0.973095005,12.987013 C1.26402272,11.8814877 1.55495043,10.5432202 1.90406368,9.14676721 C1.96224922,8.91402504 2.60229018,6.58660336 4.2896709,6.35386119 C4.87152632,6.70297444 5.51156729,6.93571661 6.26797933,6.93571661 C6.96620584,6.93571661 7.66443234,6.70297444 8.24628776,6.35386119 C9.93366848,6.58660336 10.5737094,8.91402504 10.631895,9.14676721 C10.9810082,10.5432202 11.2719359,11.8814877 11.5628637,12.987013 C12.0865335,15.2562491 12.4356468,16.7108877 12.4356468,16.7108877 C12.4356468,17.1181865 12.2029046,17.5836708 11.7956058,17.7000419 Z" id="Path"></path>
                    <polygon id="Path" points="18.1378299 32.9446539 16.4504492 32.9446539 16.4504492 0.0698226505 18.1378299 0.0698226505"></polygon>
                    <path d="M33.9061118,17.816413 C33.4406275,17.9327841 32.9751431,17.5836708 32.9169576,17.176372 C32.9169576,17.176372 32.5678443,15.6053624 32.0441745,13.2779407 C31.8696178,12.6378997 31.7532468,11.8814877 31.5786901,11.1250756 L32.2187311,17.5836708 C32.2187311,17.816413 32.0441745,17.9909696 31.8114323,17.9909696 L31.6950612,17.9909696 L31.6950612,31.7809431 C31.6950612,32.420984 31.1713913,32.9446539 30.5313504,32.9446539 C29.8913094,32.9446539 29.3676395,32.420984 29.3676395,31.8391286 L28.8439697,19.0964949 C28.6112275,19.0964949 28.3784853,19.0964949 28.1457431,19.0964949 C27.9711865,23.3440395 27.7966299,27.591584 27.6220733,31.8391286 C27.5638877,32.4791696 27.0402178,33.0028395 26.4001769,32.9446539 C25.7601359,32.8864684 25.2946516,32.420984 25.2946516,31.7809431 C25.2946516,27.1842852 25.2946516,22.5876274 25.2946516,17.9909696 L25.1782805,17.9909696 C24.9455383,17.9909696 24.7709817,17.816413 24.7709817,17.5836708 L25.4110227,11.0668901 C25.236466,11.8233021 25.0619094,12.5797142 24.8873528,13.2779407 C24.3636829,15.6053624 24.0145697,17.176372 24.0145697,17.176372 C23.8981986,17.6418564 23.4327142,17.9327841 23.0254154,17.816413 C22.5599311,17.7000419 22.2690034,17.2927431 22.3271889,16.7690732 C22.3271889,16.7690732 22.6181167,15.1980636 23.083601,12.8124564 C23.3163432,11.6487455 23.5490853,10.2522925 23.840013,8.73946842 C23.9563841,8.21579854 24.1891263,7.7503142 24.480054,7.28482987 C24.7709817,6.87753107 25.236466,6.47023228 25.7019504,6.23749011 C25.9346925,6.12111902 26.1674347,6.00474794 26.4001769,5.9465624 C26.9820323,6.35386119 27.7384444,6.6447889 28.5530419,6.6447889 C29.3676395,6.6447889 30.065866,6.41204673 30.705907,5.9465624 C30.9386492,6.00474794 31.1713913,6.12111902 31.4041335,6.23749011 C31.8696178,6.52841782 32.3351022,6.87753107 32.6260299,7.28482987 C32.9169576,7.7503142 33.1496998,8.21579854 33.2660708,8.73946842 C33.5569986,10.194107 33.7897407,11.59056 34.0224829,12.8124564 C34.4879672,15.1980636 34.7788949,16.7690732 34.7788949,16.7690732 C34.7207094,17.2345576 34.3715961,17.7000419 33.9061118,17.816413 Z" id="Path"></path>
                </g>
            </g>
        </g>
    </g>
</svg>