<?xml version="1.0" encoding="UTF-8" standalone="no"?>
<svg width="50px" height="50px" viewBox="0 0 50 50" version="1.1" xmlns="http://www.w3.org/2000/svg" xmlns:xlink="http://www.w3.org/1999/xlink">
    <!-- Generator: Sketch 46.1 (44463) - http://www.bohemiancoding.com/sketch -->
    <title>驿站</title>
    <desc>Created with Sketch.</desc>
    <defs>
        <circle id="path-1" cx="25" cy="25" r="25"></circle>
    </defs>
    <g id="普通" stroke="none" stroke-width="1" fill="none" fill-rule="evenodd">
        <g id="驿站">
            <g id="Group">
                <g id="Oval-5">
                    <use fill="#FFFFFF" fill-rule="evenodd" xlink:href="#path-1"></use>
                    <circle stroke="#006DCE" stroke-width="1" cx="25" cy="25" r="24.5"></circle>
                </g>
                <g id="驿站" transform="translate(7.500000, 9.000000)" fill="#4883FD">
                    <path d="M28.9201345,6.48476701 L34.0077178,9.42208455 C34.7484364,9.84973867 35.0022254,10.796892 34.5745713,11.5376106 C34.1469171,12.2783293 33.1997639,12.5321182 32.4590452,12.1044641 L17.3911563,3.40501442 L2.32326744,12.1044641 C1.58254877,12.5321182 0.635395492,12.2783293 0.207741372,11.5376106 L0.207741372,11.5376106 L0.207741372,11.5376106 C-0.219912749,10.796892 0.0338762085,9.84973867 0.774594873,9.42208455 L0.774594873,9.42208455 L16.6006343,0.28491641 L16.6006343,0.28491641 C16.8499795,0.140956934 17.1227171,0.0742165649 17.3911563,0.0772755033 C17.6595955,0.0742165649 17.9323332,0.140956934 18.1816783,0.28491641 L26.4422584,5.05416457 L26.4422584,1.23893805 L26.4422584,1.23893805 C26.4422584,0.55469146 26.9969499,1.2569406e-16 27.6811965,0 C28.3654431,-1.2569406e-16 28.9201345,0.55469146 28.9201345,1.23893805 L28.9201345,6.48476701 Z" id="Combined-Shape"></path>
                    <path d="M8.85,12.25 L25.7969027,12.25 L25.7969027,12.25 C28.5583264,12.25 30.7969027,14.4885763 30.7969027,17.25 L30.7969027,26.7632743 C30.7969027,29.5246981 28.5583264,31.7632743 25.7969027,31.7632743 L8.85,31.7632743 C6.08857625,31.7632743 3.85,29.5246981 3.85,26.7632743 L3.85,17.25 L3.85,17.25 C3.85,14.4885763 6.08857625,12.25 8.85,12.25 L8.85,12.25 Z M8.08893805,13.4889381 L8.08893805,13.4889381 C6.4320838,13.4889381 5.08893805,14.8320838 5.08893805,16.4889381 L5.08893805,16.4889381 L5.08893805,27.5243363 C5.08893805,29.1811905 6.4320838,30.5243363 8.08893805,30.5243363 L26.5579646,30.5243363 C28.2148189,30.5243363 29.5579646,29.1811905 29.5579646,27.5243363 L29.5579646,16.4889381 C29.5579646,14.8320838 28.2148189,13.4889381 26.5579646,13.4889381 L8.08893805,13.4889381 Z" id="Combined-Shape"></path>
                    <text id="驿" font-family="PingFangSC-Regular, PingFang SC" font-size="14" font-weight="normal" line-spacing="14">
                        <tspan x="10" y="30.1000004">驿</tspan>
                    </text>
                </g>
            </g>
        </g>
    </g>
</svg>