<?xml version="1.0" encoding="UTF-8" standalone="no"?>
<svg width="40px" height="38px" viewBox="0 0 40 38" version="1.1" xmlns="http://www.w3.org/2000/svg" xmlns:xlink="http://www.w3.org/1999/xlink">
    <!-- Generator: Sketch 47.1 (45422) - http://www.bohemiancoding.com/sketch -->
    <title>重命名 </title>
    <desc>Created with Sketch.</desc>
    <defs></defs>
    <g id="业务处理" stroke="none" stroke-width="1" fill="none" fill-rule="evenodd">
        <g id="云盘-工作图片" transform="translate(-261.000000, -1243.000000)" fill-rule="nonzero" fill="#ffffff">
            <g id="下载、删除、重命名" transform="translate(0.000000, 1234.000000)">
                <g id="重命名" transform="translate(188.000000, 0.000000)">
                    <g id="重命名-" transform="translate(73.000000, 9.000000)">
                        <path d="M36.4661644,37.2521918 L3.53369863,37.2521918 C1.59488584,37.2521918 0.0176255708,35.7502283 0.0176255708,33.9041096 L0.0176255708,3.36675799 C0.0176255708,1.52063927 1.59488584,0.0187214612 3.53369863,0.0187214612 L16.5175342,0.0187214612 C17.183105,0.0187214612 17.7226027,0.558219178 17.7226027,1.22378995 C17.7226027,1.88936073 17.1831507,2.42885845 16.5175342,2.42885845 L3.53369863,2.42885845 C2.92388128,2.42885845 2.42776256,2.8496347 2.42776256,3.36675799 L2.42776256,33.9041553 C2.42776256,34.4213242 2.92388128,34.8420548 3.53369863,34.8420548 L36.4661644,34.8420548 C37.0760731,34.8420548 37.5721918,34.4212785 37.5721918,33.9041553 L37.5721918,19.3126941 C37.5721918,18.6471233 38.1116895,18.1076256 38.7772603,18.1076256 C39.4428311,18.1076256 39.9823288,18.6470776 39.9823288,19.3126941 L39.9823288,33.9041553 C39.9823744,35.750274 38.4049772,37.2521918 36.46621,37.2521918 L36.4661644,37.2521918 Z" id="Shape"></path>
                        <path d="M11.4778995,29.0965753 C11.136621,29.096621 10.8088128,28.9654795 10.5653425,28.7194521 C10.2213242,28.3718265 10.1083105,27.8580822 10.2705023,27.3784932 L13.5512329,17.6893607 C13.7647032,17.0589498 14.4488128,16.7209589 15.0791324,16.9344749 C15.7095434,17.1478995 16.0475342,17.8319635 15.8340639,18.4623288 L13.2656164,26.0479452 L20.5679909,23.663653 C21.2008676,23.4571689 21.8810046,23.8025114 22.0875799,24.4351598 C22.2941096,25.0678539 21.9487215,25.7481735 21.3160731,25.9547489 L11.9028767,29.0283105 C11.7754795,29.0715982 11.6287671,29.0965753 11.47621,29.096621 L11.4778995,29.0965753 Z M28.8064384,4.71497717 L34.6459817,10.5545662 L32.9417808,12.2588584 L27.1021918,6.41926941 L28.8064384,4.71497717 Z" id="Shape"></path>
                        <path d="M20.5856164,25.9655708 C19.8675342,25.9655708 19.1925114,25.6859361 18.6847032,25.1781735 L18.3814612,24.8749772 L18.3379909,24.4483105 C18.2147032,23.2470776 17.9196804,21.8941096 17.7010959,21.5012329 C17.3189041,21.3165297 16.063516,21.097032 14.960137,21.0274886 L14.5057991,20.9988584 L14.1834247,20.6769406 C13.1352511,19.6288128 13.1352511,17.9232877 14.183379,16.8752055 L29.4313242,1.62716895 C29.9390411,1.11945205 30.6141096,0.839817352 31.3322374,0.839817352 C32.0503196,0.839817352 32.7253425,1.11949772 33.2331963,1.62721461 L37.7345205,6.12849315 C38.7826484,7.176621 38.7826484,8.88214612 37.7345205,9.93022831 L22.486484,25.1782648 C21.9788128,25.6859817 21.3036986,25.9656621 20.5856621,25.9656621 L20.5856164,25.9655708 Z M15.8217352,18.6839269 C16.0850685,18.7115068 16.4002283,18.7494977 16.7294521,18.7998174 C18.4752968,19.0668493 19.0606849,19.4488128 19.3757078,19.7517352 C19.7034247,20.067032 20.1250228,20.663242 20.4789498,22.4915525 C20.6955251,23.5659361 20.8305936,24.8110046 20.8526027,26.0836073 C20.7151598,23.5317352 20.766758,23.4969863 20.8032877,23.4499087 L36.0302283,8.22593607 C36.0805479,8.17557078 36.1115525,8.10607306 36.1115525,8.02926941 C36.1115525,7.95246575 36.080411,7.8830137 36.0301826,7.83260274 L31.5289041,3.3313242 C31.4793151,3.2809589 31.4104566,3.24986301 31.3343379,3.24986301 C31.3336073,3.24986301 31.3328311,3.24986301 31.3321005,3.24986301 C31.2796347,3.24986301 31.2028311,3.2639726 31.1355708,3.3313242 L15.8875342,18.5793151 C15.8480822,18.6187215 15.820411,18.6699543 15.810411,18.7272146 L15.8217352,18.6839269 Z" id="Shape"></path>
                    </g>
                </g>
            </g>
        </g>
    </g>
</svg>