<?xml version="1.0" encoding="UTF-8" standalone="no"?>
<svg width="40px" height="38px" viewBox="0 0 40 38" version="1.1" xmlns="http://www.w3.org/2000/svg" xmlns:xlink="http://www.w3.org/1999/xlink">
    <!-- Generator: Sketch 47.1 (45422) - http://www.bohemiancoding.com/sketch -->
    <title>移动</title>
    <desc>Created with Sketch.</desc>
    <defs></defs>
    <g id="业务处理" stroke="none" stroke-width="1" fill="none" fill-rule="evenodd">
        <g id="云盘-工作图片" transform="translate(-449.000000, -1244.000000)" fill-rule="nonzero" fill="#ffffff">
            <g id="下载、删除、重命名" transform="translate(0.000000, 1234.000000)">
                <g id="移动" transform="translate(376.000000, 0.000000)">
                    <g transform="translate(73.000000, 10.000000)" id="Shape">
                        <path d="M37.0925307,22.0780379 C37.0925307,22.8685994 37.7354038,23.509476 38.5284281,23.509476 C39.3214523,23.509476 39.9643255,22.8685994 39.9643255,22.0780379 C39.9643255,21.2874765 39.3214523,20.6465998 38.5284281,20.6465998 C37.7354038,20.6465998 37.0925307,21.2874765 37.0925307,22.0780379 L37.0925307,22.0780379 Z"></path>
                        <path d="M38.5284281,26.3500557 C37.7346711,26.3500557 37.0925307,26.9921962 37.0925307,27.7814939 L37.0925307,31.3801561 C37.0925307,32.9542921 35.812709,34.2341137 34.238573,34.2341137 L5.73021182,34.2341137 C4.15607581,34.2341137 2.87625418,32.9542921 2.87625418,31.3801561 L2.87625418,5.70791527 C2.87625418,4.13377926 4.15607581,2.85395764 5.73021182,2.85395764 L15.6521739,2.85395764 L19.3400223,9.24414716 C19.6343367,9.75250836 20.1962096,10.0111483 20.7447046,9.94871795 L34.2341137,9.94871795 C35.8082497,9.94871795 37.0880713,11.2285396 37.0880713,12.8026756 L37.0880713,16.3701226 C37.0880713,17.1594203 37.7302118,17.8015608 38.5239688,17.8015608 C39.3177258,17.8015608 39.9598662,17.1594203 39.9598662,16.3701226 C39.9598662,16.3344482 39.9598662,16.2987737 39.9554069,16.2630992 L39.9554069,12.8071349 C39.9554069,9.65440357 37.400223,7.09921962 34.2474916,7.09921962 L21.400223,7.09921962 L17.7212932,0.726867336 C17.3913043,0.151616499 16.9186176,0.00445930881 16.5039019,0.0133779264 L16.4994426,0.00891861761 L5.71237458,0.00891861761 C2.55964326,0.00891861761 0.00445930881,2.56410256 0.00445930881,5.71683389 L0.00445930881,31.3177258 C0.00445930881,34.4704571 2.55964326,37.025641 5.71237458,37.025641 L34.2519509,37.025641 C37.4046823,37.025641 39.9598662,34.4704571 39.9598662,31.3177258 L39.9598662,27.8885173 C39.9643255,27.8528428 39.9643255,27.8171683 39.9643255,27.7814939 C39.9643255,26.9921962 39.3221851,26.3500557 38.5284281,26.3500557 Z"></path>
                        <path d="M22.8628763,29.8461538 C23.4202899,30.4035674 24.3299889,30.4035674 24.8874025,29.8461538 L30.9253066,23.812709 C30.9386845,23.7993311 30.9520624,23.7904125 30.9654404,23.7770346 L30.9698997,23.7770346 L31.0011148,23.7458194 C31.5496098,23.1973244 31.5496098,22.3010033 31.0011148,21.7525084 L24.9364548,15.6878484 C24.3835006,15.1348941 23.4871795,15.1348941 22.9386845,15.6833891 L22.9074693,15.7146042 C22.3589744,16.2630992 22.3589744,17.1594203 22.9074693,17.7079153 L26.5641026,21.3645485 L9.9754738,21.3645485 C9.20401338,21.3645485 8.57079153,21.9977703 8.57079153,22.7692308 C8.57079153,23.5406912 9.20401338,24.173913 9.9754738,24.173913 L26.5105909,24.173913 L22.8673356,27.8216276 C22.3054627,28.3790412 22.3054627,29.2887402 22.8628763,29.8461538 L22.8628763,29.8461538 Z"></path>
                    </g>
                </g>
            </g>
        </g>
    </g>
</svg>