<?xml version="1.0" encoding="UTF-8" standalone="no"?>
<svg width="40px" height="40px" viewBox="0 0 40 40" version="1.1" xmlns="http://www.w3.org/2000/svg" xmlns:xlink="http://www.w3.org/1999/xlink">
    <!-- Generator: Sketch 46.1 (44463) - http://www.bohemiancoding.com/sketch -->
    <title>下载</title>
    <desc>Created with Sketch.</desc>
    <defs></defs>
    <g id="综合分析" stroke="none" stroke-width="1" fill="none" fill-rule="evenodd">
        <g id="接待详情" transform="translate(-680.000000, -1417.000000)" fill-rule="nonzero" fill="#ffffff">
            <g id="Voicemail-List" transform="translate(0.000000, 128.000000)">
                <g id="Items-List-1">
                    <g id="信息条目2-copy-4" transform="translate(0.000000, 1261.000000)">
                        <g id="Group" transform="translate(482.000000, 28.000000)">
                            <g id="下载" transform="translate(198.000000, 0.000000)">
                                <path d="M30.6523077,19.4123077 C30.4153846,18.8369231 29.8523077,18.4615385 29.2307692,18.4615385 L10.7692307,18.4615385 C10.1476923,18.4615385 9.58461539,18.8369231 9.3476923,19.4123077 C9.1076923,19.9846154 9.24,20.6492308 9.68,21.0892308 L18.9107692,30.32 C19.2123077,30.6184615 19.6061538,30.7692308 20,30.7692308 C20.3938462,30.7692308 20.7876923,30.6184616 21.0892308,30.32 L30.32,21.0892308 C30.7569231,20.6492308 30.8892308,19.9846154 30.6523077,19.4123077 Z" id="Shape"></path>
                                <path d="M20,0 C18.3015385,0 16.9230769,1.37538461 16.9230769,3.07692309 L16.9230769,18.4615385 C16.9230769,20.163077 18.3015384,21.5384616 20,21.5384616 C21.7015385,21.5384616 23.0769231,20.163077 23.0769231,18.4615385 L23.0769231,3.07692309 C23.0769231,1.37538461 21.7015385,0 20,0 Z" id="Shape"></path>
                                <path d="M36.9230769,33.8461538 L3.07692309,33.8461538 C1.37846156,33.8461538 0,35.2215384 0,36.9230769 C0,38.6246154 1.37846152,40 3.07692309,40 L36.9230769,40 C38.6246154,40 40,38.6246154 40,36.9230769 C40,35.2215384 38.6246154,33.8461538 36.9230769,33.8461538 Z" id="Shape"></path>
                            </g>
                        </g>
                    </g>
                </g>
            </g>
        </g>
    </g>
</svg>