<?xml version="1.0" encoding="UTF-8" standalone="no"?>
<svg width="50px" height="50px" viewBox="0 0 50 50" version="1.1" xmlns="http://www.w3.org/2000/svg" xmlns:xlink="http://www.w3.org/1999/xlink">
    <!-- Generator: Sketch 46.1 (44463) - http://www.bohemiancoding.com/sketch -->
    <title>附近周边信息</title>
    <desc>Created with Sketch.</desc>
    <defs></defs>
    <g id="Symbols" stroke="none" stroke-width="1" fill="none" fill-rule="evenodd">
        <g id="周边信息" transform="translate(-15.000000, -15.000000)" fill-rule="nonzero" fill="#CD8686">
            <g id="附近周边信息" transform="translate(15.000000, 15.000000)">
                <path d="M24.9785876,35.7736095 C36.0379096,35.7736095 45.0030508,38.3249716 45.0030508,41.4719637 C45.0030508,44.6187855 36.0378531,47.1699205 24.9785876,47.1699205 C13.919548,47.1699205 4.9540113,44.6187855 4.9540113,41.4719637 C4.9540113,38.3249716 13.9194915,35.7736095 24.9785876,35.7736095 C11.1885311,35.7736095 0.00943502825,38.9548241 0.00943502825,42.8786606 C0.00943502825,46.8027809 11.1885311,49.9837684 24.9785876,49.9837684 C38.7685876,49.9837684 49.9477401,46.8027242 49.9477401,42.8786606 C49.9479096,38.9548241 38.7688701,35.7736095 24.9785876,35.7736095 L24.9785876,35.7736095 Z M37.5664972,12.7845062 C37.5664972,5.73961407 31.4420339,0.0293984109 24.8655367,0.0293984109 C18.2890395,0.0293984109 12.1635028,5.74074915 12.1635028,12.7845062 C12.1635028,14.1313848 11.8161017,15.5488649 13.7514689,20.4371737 C14.8066667,23.1035187 24.8654802,40.8436436 24.8654802,40.8436436 C24.8654802,40.8436436 34.890452,23.1849603 35.9787571,20.4371737 C37.9133333,15.5490919 37.5664972,14.1316686 37.5664972,12.7845062 L37.5664972,12.7845062 Z M24.8905085,18.5657775 C21.8776836,18.5667991 19.4370621,16.0758229 19.4370621,13.0014756 C19.4370621,9.92900114 21.879096,7.43694665 24.8905085,7.43694665 C27.9025424,7.43694665 30.3453672,9.92900114 30.3453672,13.0014756 C30.3453107,16.0747446 27.9024859,18.5657775 24.8905085,18.5657775 L24.8905085,18.5657775 Z" id="Shape"></path>
            </g>
        </g>
    </g>
</svg>