<?xml version="1.0" encoding="UTF-8" standalone="no"?>
<svg width="50px" height="50px" viewBox="0 0 50 50" version="1.1" xmlns="http://www.w3.org/2000/svg" xmlns:xlink="http://www.w3.org/1999/xlink">
    <!-- Generator: Sketch 46.1 (44463) - http://www.bohemiancoding.com/sketch -->
    <title>线路推荐</title>
    <desc>Created with Sketch.</desc>
    <defs>
        <path d="M32.9545455,49.8277467 L16.7613636,44.9185285 L0,50 L0,5.16759818 L16.4772727,0.172253273 L16.4772727,-1.42108547e-14 L16.7613636,0.0861266363 L17.0454545,0 L17.0454545,0.172253273 L33.2386364,5.08147154 L50,0 L50,44.8324018 L33.5227273,49.8277467 L33.5227273,50 L33.2386364,49.9138734 L32.9545455,50 L32.9545455,49.8277467 Z" id="path-1"></path>
    </defs>
    <g id="Page-1" stroke="none" stroke-width="1" fill="none" fill-rule="evenodd">
        <g id="溧阳-首页" transform="translate(-650.000000, -163.000000)">
            <g id="线路推荐" transform="translate(675.000000, 188.000000) scale(1, -1) translate(-675.000000, -188.000000) translate(650.000000, 163.000000)">
                <g id="Combined-Shape">
                    <use fill="#F0EDCF" fill-rule="evenodd" xlink:href="#path-1"></use>
                    <path stroke="#232323" stroke-width="2" d="M1,48.6518895 L-0.290126121,49.0430116 L1,50 L1,48.6518895 Z M1,5.90937714 L1,5.16759818 L0.290126121,6.12458659 L1,5.90937714 Z M16.7613636,1.13107136 L17.4772727,0.914032238 L17.4772727,-1.42108547e-14 L16.4772727,-1.42108547e-14 L16.1871466,0.956988419 L16.7613636,1.13107136 L17.3355807,0.956988419 L17.0454545,0 L16.0454545,0 L16.0454545,0.914032238 L16.7613636,1.13107136 Z M49,1.34811048 L50.2901261,0.956988419 L49,0 L49,1.34811048 Z M49,44.0906229 L49,44.8324018 L49.7098739,43.8754134 L49,44.0906229 Z M33.2386364,48.8689286 L32.5227273,49.0859678 L32.5227273,50 L33.5227273,50 L33.8128534,49.0430116 L33.2386364,48.8689286 L32.6644193,49.0430116 L32.9545455,50 L33.9545455,50 L33.9545455,49.0859678 L33.2386364,48.8689286 Z M33.2386364,48.8689286 L16.7613636,43.8735837 L1,48.6518895 L1,5.90937714 L16.7613636,1.13107136 L33.2386364,6.12641626 L49,1.34811048 L49,44.0906229 L33.2386364,48.8689286 Z"></path>
                </g>
                <path d="M9.56313041,35.6697153 C11.8072241,8.76167777 16.3341657,4.47582218 23.1439553,22.8121485 C29.9537448,41.1484749 36.0871105,38.1617331 41.5440522,13.8519231" id="Path-2" stroke="#000000" stroke-width="2" stroke-dasharray="2"></path>
            </g>
        </g>
    </g>
</svg>