<?xml version="1.0" encoding="UTF-8" standalone="no"?>
<svg width="50px" height="50px" viewBox="0 0 50 50" version="1.1" xmlns="http://www.w3.org/2000/svg" xmlns:xlink="http://www.w3.org/1999/xlink">
    <!-- Generator: Sketch 46.1 (44463) - http://www.bohemiancoding.com/sketch -->
    <title>概况</title>
    <desc>Created with Sketch.</desc>
    <defs></defs>
    <g id="Symbols" stroke="none" stroke-width="1" fill="none" fill-rule="evenodd">
        <g id="景区概况" transform="translate(-15.000000, -15.000000)">
            <g id="概况" transform="translate(15.000000, 15.000000)">
                <path d="M13.5294118,23.5294118 L13.5294118,19.4119801 C14.2437922,18.8753882 14.7058824,18.0210693 14.7058824,17.0588235 C14.7058824,15.4344566 13.3890728,14.1176471 11.7647059,14.1176471 C10.140339,14.1176471 8.82352941,15.4344566 8.82352941,17.0588235 C8.82352941,18.0210693 9.28561959,18.8753882 10,19.4119801 L10,23.5294118 L0,23.5294118 L0,0 L23.5294118,0 L23.5294118,23.5294118 L13.5294118,23.5294118 L13.5294118,23.5294118 Z" id="Combined-Shape" fill="#FF754A"></path>
                <path d="M23.5294118,36.4705882 L23.5294118,26.4705882 L1.44076094e-15,26.4705882 L0,50 L23.5294118,50 L23.5294118,40 L19.4119801,40 C18.8753882,40.7143804 18.0210693,41.1764706 17.0588235,41.1764706 C15.4344566,41.1764706 14.1176471,39.859661 14.1176471,38.2352941 C14.1176471,36.6109272 15.4344566,35.2941176 17.0588235,35.2941176 C18.0210693,35.2941176 18.8753882,35.7562078 19.4119801,36.4705882 L23.5294118,36.4705882 L23.5294118,36.4705882 Z" id="Combined-Shape-Copy-2" fill="#FFD666"></path>
                <path d="M26.4705882,13.5294118 L26.4705882,23.5294118 L50,23.5294118 L50,0 L26.4705882,1.44076094e-15 L26.4705882,10 L30.5880199,10 C31.1246118,9.28561959 31.9789307,8.82352941 32.9411765,8.82352941 C34.5655434,8.82352941 35.8823529,10.140339 35.8823529,11.7647059 C35.8823529,13.3890728 34.5655434,14.7058824 32.9411765,14.7058824 C31.9789307,14.7058824 31.1246118,14.2437922 30.5880199,13.5294118 L26.4705882,13.5294118 Z" id="Combined-Shape-Copy" fill="#4CB6C6"></path>
                <path d="M40,26.4705882 L50,26.4705882 L50,50 L26.4705882,50 L26.4705882,26.4705882 L36.4705882,26.4705882 L36.4705882,30.5880199 C35.7562078,31.1246118 35.2941176,31.9789307 35.2941176,32.9411765 C35.2941176,34.5655434 36.6109272,35.8823529 38.2352941,35.8823529 C39.859661,35.8823529 41.1764706,34.5655434 41.1764706,32.9411765 C41.1764706,31.9789307 40.7143804,31.1246118 40,30.5880199 L40,26.4705882 Z" id="Combined-Shape-Copy-3" fill="#80CD8E"></path>
            </g>
        </g>
    </g>
</svg>