<?xml version="1.0" encoding="UTF-8" standalone="no"?>
<svg width="50px" height="50px" viewBox="0 0 50 50" version="1.1" xmlns="http://www.w3.org/2000/svg" xmlns:xlink="http://www.w3.org/1999/xlink">
    <!-- Generator: Sketch 46.1 (44463) - http://www.bohemiancoding.com/sketch -->
    <title>二维码 (2)</title>
    <desc>Created with Sketch.</desc>
    <defs></defs>
    <g id="Page-1" stroke="none" stroke-width="1" fill="none" fill-rule="evenodd">
        <g id="溧阳-首页" transform="translate(-570.000000, -163.000000)" fill-rule="nonzero" fill="#606060">
            <g id="二维码-(2)" transform="translate(570.000000, 163.000000)">
                <path d="M0.0553149834,23.5328354 L23.5382615,23.5328354 L23.5382615,0.049945727 L0.0553149834,0.049945727 L0.0553149834,23.5328354 Z M5.92609423,5.92066815 L17.6675391,5.92066815 L17.6675391,17.662113 L5.92609423,17.662113 L5.92609423,5.92066815 Z M26.4736511,0.049945727 L26.4736511,23.5328922 L49.9565976,23.5328922 L49.9565976,0.049945727 L26.4736511,0.049945727 Z M44.0858184,17.662113 L32.3443735,17.662113 L32.3443735,5.92066815 L44.0858184,5.92066815 L44.0858184,17.662113 Z M8.86142703,14.7267802 L14.7321494,14.7267802 L14.7321494,8.85600094 L8.86142703,8.85600094 L8.86142703,14.7267802 Z M0.0553149834,49.9511715 L23.5382615,49.9511715 L23.5382615,26.468225 L0.0553149834,26.468225 L0.0553149834,49.9511715 Z M5.92609423,32.3389474 L17.6675391,32.3389474 L17.6675391,44.0803923 L5.92609423,44.0803923 L5.92609423,32.3389474 Z M41.1504855,8.85600094 L35.2797063,8.85600094 L35.2797063,14.7267234 L41.1504287,14.7267234 L41.1504287,8.85600094 L41.1504855,8.85600094 Z M26.4736511,49.9511715 L32.3443735,49.9511715 L32.3443735,44.0804491 L26.4736511,44.0804491 L26.4736511,49.9511715 Z M32.3443735,32.3389474 L32.3443735,44.0803923 L38.2150959,44.0803923 L38.2150959,32.3389474 L32.3443735,32.3389474 Z M44.0858184,44.0804491 L38.2150959,44.0804491 L38.2150959,49.9511715 L49.9565408,49.9511715 L49.9565408,38.2096699 L44.0858184,38.2096699 L44.0858184,44.0804491 Z M44.0858184,32.3389474 L49.9565408,32.3389474 L49.9565408,26.468225 L44.0858184,26.468225 L44.0858184,32.3389474 Z M26.4736511,26.468225 L26.4736511,32.3389474 L32.3443735,32.3389474 L32.3443735,26.468225 L26.4736511,26.468225 Z M8.86142703,41.1450595 L14.7321494,41.1450595 L14.7321494,35.2743371 L8.86142703,35.2743371 L8.86142703,41.1450595 Z" id="Shape"></path>
            </g>
        </g>
    </g>
</svg>