<?xml version="1.0" encoding="UTF-8" standalone="no"?>
<svg width="60px" height="50px" viewBox="0 0 60 50" version="1.1" xmlns="http://www.w3.org/2000/svg" xmlns:xlink="http://www.w3.org/1999/xlink">
    <!-- Generator: Sketch 46.1 (44463) - http://www.bohemiancoding.com/sketch -->
    <title>公路</title>
    <desc>Created with Sketch.</desc>
    <defs>
        <polygon id="path-1" points="18.7110379 -1.13686838e-13 41.2889621 -8.52651283e-14 60 50 0 50"></polygon>
        <circle id="path-3" cx="9.975" cy="4.275" r="1.125"></circle>
        <circle id="path-4" cx="2.55" cy="6" r="1.05"></circle>
        <circle id="path-5" cx="12.45" cy="6" r="1.05"></circle>
    </defs>
    <g id="Symbols" stroke="none" stroke-width="1" fill="none" fill-rule="evenodd">
        <g id="乡村旅游公路" transform="translate(-10.000000, -15.000000)">
            <g id="公路" transform="translate(10.000000, 15.000000)">
                <mask id="mask-2" fill="white">
                    <use xlink:href="#path-1"></use>
                </mask>
                <g id="Mask">
                    <use fill="#D8D8D8" fill-rule="evenodd" xlink:href="#path-1"></use>
                    <path stroke="#979797" stroke-width="1" d="M19.0577911,0.5 L0.720973933,49.5 L59.2790261,49.5 L40.9422089,0.5 L19.0577911,0.5 Z"></path>
                </g>
                <rect id="Rectangle-14" fill="#FFFFFF" mask="url(#mask-2)" x="29" y="-1" width="2.5" height="4.5"></rect>
                <rect id="Rectangle-14-Copy" fill="#FFFFFF" mask="url(#mask-2)" x="29" y="5.5" width="2.5" height="4.5"></rect>
                <rect id="Rectangle-14-Copy-2" fill="#FFFFFF" mask="url(#mask-2)" x="29" y="12" width="2.5" height="4.5"></rect>
                <rect id="Rectangle-14-Copy-3" fill="#FFFFFF" mask="url(#mask-2)" x="29" y="18.5" width="2.5" height="4.5"></rect>
                <rect id="Rectangle-14-Copy-4" fill="#FFFFFF" mask="url(#mask-2)" x="29" y="25" width="2.5" height="4.5"></rect>
                <rect id="Rectangle-14-Copy-5" fill="#FFFFFF" mask="url(#mask-2)" x="29" y="31.5" width="2.5" height="4.5"></rect>
                <rect id="Rectangle-14-Copy-6" fill="#FFFFFF" mask="url(#mask-2)" x="29" y="38" width="2.5" height="4.5"></rect>
                <rect id="Rectangle-14-Copy-7" fill="#FFFFFF" mask="url(#mask-2)" x="29" y="44.5" width="2.5" height="4.5"></rect>
                <g id="小车" mask="url(#mask-2)">
                    <g transform="translate(12.000000, 24.500000)">
                        <path d="M4.2,9.75 L4.2,7.05 L2.1,7.05 L2.1,9.75 C2.1,10.329899 2.57010101,10.8 3.15,10.8 C3.72989899,10.8 4.2,10.329899 4.2,9.75 Z" id="Combined-Shape" fill="#393939" fill-rule="evenodd"></path>
                        <path d="M12.9,9.75 L12.9,7.05 L10.8,7.05 L10.8,9.75 C10.8,10.329899 11.270101,10.8 11.85,10.8 C12.429899,10.8 12.9,10.329899 12.9,9.75 Z" id="Combined-Shape-Copy-4" fill="#393939" fill-rule="evenodd"></path>
                        <path d="M4.77554192,0 L10.1755419,0 C10.7554409,0 11.4208833,0.470101013 11.6618492,1.05 L13.0954301,4.5 C13.3363959,5.07989899 12.772531,5.55 11.8360026,5.55 L3.11508123,5.55 C2.17855281,5.55 1.61468793,5.07989899 1.85565376,4.5 L3.28923469,1.05 C3.53020052,0.470101013 4.19564294,0 4.77554192,0 Z" id="Rectangle-5" fill="#FFCF6E" fill-rule="evenodd"></path>
                        <path d="M4.98279548,0.45 L9.93279548,0.45 C10.347009,0.45 10.8406444,0.843128741 11.0353609,1.32807762 L12.1635702,4.137926 C12.3582867,4.62287488 11.9894621,5.01600362 11.3397774,5.01600362 L3.57581354,5.01600362 C2.92612886,5.01600362 2.55730428,4.62287488 2.75202078,4.137926 L3.88023008,1.32807762 C4.07494657,0.843128741 4.56858192,0.45 4.98279548,0.45 Z" id="Rectangle-6" fill="#BFBFBF" fill-rule="evenodd"></path>
                        <g id="Oval-5" fill="none">
                            <use fill="#BFBFBF" fill-rule="evenodd" xlink:href="#path-3"></use>
                            <circle stroke="#393939" stroke-width="1" cx="9.975" cy="4.275" r="1"></circle>
                        </g>
                        <path d="M1.05,4.2 L13.95,4.2 C14.529899,4.2 15,4.67010101 15,5.25 L15,6.75 C15,7.32989899 14.529899,7.8 13.95,7.8 L1.05,7.8 C0.470101013,7.8 2.04243907e-16,7.32989899 1.33226763e-16,6.75 L0,5.25 C1.95436382e-16,4.67010101 0.470101013,4.2 1.05,4.2 Z" id="Rectangle-3" fill="#FFCF6E" fill-rule="evenodd"></path>
                        <rect id="Rectangle-7" fill="#393939" fill-rule="evenodd" x="5.1" y="4.8" width="4.5" height="1"></rect>
                        <rect id="Rectangle-7-Copy" fill="#393939" fill-rule="evenodd" x="5.1" y="5.7" width="4.5" height="1"></rect>
                        <rect id="Rectangle-7-Copy-2" fill="#393939" fill-rule="evenodd" x="5.1" y="6.6" width="4.5" height="1"></rect>
                        <g id="Oval-3" fill="none">
                            <use fill="#FFCF6E" fill-rule="evenodd" xlink:href="#path-4"></use>
                            <circle stroke="#FFFFFF" stroke-width="1" cx="2.55" cy="6" r="1"></circle>
                        </g>
                        <g id="Oval-3-Copy" fill="none">
                            <use fill="#FFCF6E" fill-rule="evenodd" xlink:href="#path-5"></use>
                            <circle stroke="#FFFFFF" stroke-width="1" cx="12.45" cy="6" r="1"></circle>
                        </g>
                    </g>
                </g>
            </g>
        </g>
    </g>
</svg>