<?xml version="1.0" encoding="UTF-8" standalone="no"?>
<svg width="50px" height="50px" viewBox="0 0 50 50" version="1.1" xmlns="http://www.w3.org/2000/svg" xmlns:xlink="http://www.w3.org/1999/xlink">
    <!-- Generator: Sketch 46.1 (44463) - http://www.bohemiancoding.com/sketch -->
    <title>扫一扫</title>
    <desc>Created with Sketch.</desc>
    <defs></defs>
    <g id="Page-1" stroke="none" stroke-width="1" fill="none" fill-rule="evenodd">
        <g id="溧阳-首页" transform="translate(-50.000000, -163.000000)" fill-rule="nonzero" fill="#FF8400">
            <g id="扫一扫" transform="translate(50.000000, 163.000000)">
                <path d="M0,26.3876455 L0,23.6123545 L50,23.6123545 L50,26.3876455 L0,26.3876455 Z M45.8342653,2.7808863 L30.5804071,2.7808863 L30.5804071,0 L45.8342653,0 C47.366361,0 48.607694,1.24216652 48.607694,2.77529096 L48.607694,19.4382274 L45.8342653,19.4382274 L45.8342653,2.7808863 Z M4.16573473,19.4438227 L1.38671438,19.4438227 L1.38671438,2.7808863 C1.38671438,1.24776186 2.62804742,0.00559534467 4.16014314,0.00559534467 L19.4699172,0.00559534467 L19.4699172,2.7808863 L4.16573473,2.7808863 L4.16573473,19.4438227 Z M4.16573473,47.224709 L19.4755088,47.224709 L19.4755088,50 L4.16573473,50 C2.63363901,50 1.39230597,48.7578335 1.39230597,47.224709 L1.39230597,30.5561773 L4.16573473,30.5561773 L4.16573473,47.224709 Z M45.8342653,30.5561773 L48.607694,30.5561773 L48.607694,47.224709 C48.607694,48.7578335 47.366361,50 45.8342653,50 L30.5804071,50 L30.5804071,47.224709 L45.8342653,47.224709 L45.8342653,30.5561773 Z" id="Shape"></path>
            </g>
        </g>
    </g>
</svg>