<?xml version="1.0" encoding="UTF-8" standalone="no"?>
<svg width="50px" height="50px" viewBox="0 0 50 50" version="1.1" xmlns="http://www.w3.org/2000/svg" xmlns:xlink="http://www.w3.org/1999/xlink">
    <!-- Generator: Sketch 46.1 (44463) - http://www.bohemiancoding.com/sketch -->
    <title>Group</title>
    <desc>Created with Sketch.</desc>
    <defs></defs>
    <g id="Symbols" stroke="none" stroke-width="1" fill="none" fill-rule="evenodd">
        <g id="虚拟旅游" transform="translate(-15.000000, -15.000000)" fill-rule="nonzero" fill="#FF9006">
            <g id="Group" transform="translate(15.000000, 15.000000)">
                <path d="M9.05995793,7.29992094 C12.3359946,2.90356122 17.5201554,-7.10542736e-15 23.0863416,-7.10542736e-15 L26.9133081,-7.10542736e-15 C32.4772438,-7.10542736e-15 37.6627453,2.90265349 40.9396956,7.29991135 L41.2885118,7.31198118 C44.6261488,7.42747056 48.0032764,10.1952779 48.8362146,13.5126804 L49.3147216,15.4184646 C50.0412125,18.311912 50.217998,23.0431957 49.7102557,25.982189 L49.4045958,27.7514572 C48.7660627,31.447514 46.1616344,33.8778346 42.9596461,34.2329116 L36.7592508,44.123278 C35.1808539,46.6410084 31.5625499,49.0880839 28.684655,49.5877393 L27.2345558,49.8395031 C26.000348,50.0537842 23.9960146,50.0532135 22.765094,49.8395031 L21.3149946,49.5877393 C18.4339154,49.087531 14.8169094,46.6379993 13.2403989,44.123278 L7.03963825,34.2323288 C3.83710772,33.8760943 1.23316645,31.4434551 0.595334543,27.7514572 L0.289674646,25.982189 C-0.21836885,23.0414525 -0.0405474786,18.3089856 0.685208684,15.4184646 L1.16371572,13.5126804 C1.99455983,10.2036182 5.37295571,7.42749908 8.7114185,7.31198118 L9.05995793,7.29992094 Z M39.5986977,33.8628621 C39.4937964,33.8286991 39.3887654,33.7923653 39.2836434,33.7538382 L37.6869866,33.1686657 C35.7181086,32.4470745 32.4220396,31.8621093 30.3418273,31.8621093 L19.658103,31.8621093 C17.5703615,31.8621093 14.2789894,32.4481125 12.3129437,33.1686657 L10.716287,33.7538382 C10.6110851,33.7923946 10.5059758,33.8287523 10.4009974,33.8629346 L15.7882773,42.4562854 C16.9060337,44.2392394 19.78274,46.1864691 21.8219303,46.5405099 L23.2720295,46.7922739 C24.1686211,46.9479386 25.8301849,46.948085 26.7276202,46.7922739 L28.1777194,46.5405099 C30.2162243,46.1865881 33.0930983,44.2400655 34.2113724,42.4562854 L39.5986977,33.8628621 Z M36.7375078,7.15450662 C34.0921423,4.65268623 30.5926283,3.09092267 26.9133081,3.09092267 L23.0863416,3.09092267 C19.4064504,3.09092267 15.9070738,4.65278568 13.261929,7.1545237 L15.1723826,7.08841791 C20.6000066,6.90061051 29.3986951,6.90056801 34.8275477,7.08841791 L36.7375078,7.15450662 L36.7375078,7.15450662 Z M3.57490416,27.2142445 C4.11987665,30.3687389 6.74393292,31.9258876 9.69458956,30.8444757 L11.2912464,30.2593032 C13.5858635,29.418329 17.2229224,28.7711866 19.658103,28.7711866 L30.3418273,28.7711866 C32.7729442,28.7711866 36.4145008,29.4184881 38.708684,30.2593032 L40.3053407,30.8444757 C43.2571353,31.9263046 45.8796093,30.3713114 46.4250262,27.2142445 L46.730686,25.4449762 C47.1636139,22.9390353 47.0032268,18.6527536 46.3839782,16.1864278 L45.9054711,14.2806435 C45.4069987,12.2953416 43.1838043,10.4702575 41.1860896,10.4011323 L34.7251255,10.1775691 C29.3649606,9.99209588 20.6345927,9.99210894 15.2748049,10.1775691 L8.81384075,10.4011323 C6.81898134,10.4701587 4.59175277,12.3000365 4.09445911,14.2806435 L3.61595211,16.1864278 C2.99701884,18.6514977 2.83630843,22.9389896 3.26924424,25.4449762 L3.57490416,27.2142445 L3.57490416,27.2142445 Z M20.4614215,20.4773627 C20.4614215,17.2766075 17.9215174,14.6818827 14.788387,14.6818827 C11.6552566,14.6818827 9.11535254,17.2766075 9.11535254,20.4773627 C9.11535254,23.6781179 11.6552566,26.2728427 14.788387,26.2728427 C17.9215174,26.2728427 20.4614215,23.6781179 20.4614215,20.4773627 L20.4614215,20.4773627 Z M10.6281617,20.4773627 C10.6281617,18.1301422 12.4907581,16.227344 14.788387,16.227344 C17.086016,16.227344 18.9486123,18.1301422 18.9486123,20.4773627 C18.9486123,22.8245832 17.086016,24.7273814 14.788387,24.7273814 C12.4907581,24.7273814 10.6281617,22.8245832 10.6281617,20.4773627 L10.6281617,20.4773627 Z M40.8843456,20.4773627 C40.8843456,17.2766075 38.3444415,14.6818827 35.2113111,14.6818827 C32.0781807,14.6818827 29.5382766,17.2766075 29.5382766,20.4773627 C29.5382766,23.6781179 32.0781807,26.2728427 35.2113111,26.2728427 C38.3444415,26.2728427 40.8843456,23.6781179 40.8843456,20.4773627 L40.8843456,20.4773627 Z M31.0510858,20.4773627 C31.0510858,18.1301422 32.9136821,16.227344 35.2113111,16.227344 C37.50894,16.227344 39.3715364,18.1301422 39.3715364,20.4773627 C39.3715364,22.8245832 37.50894,24.7273814 35.2113111,24.7273814 C32.9136821,24.7273814 31.0510858,22.8245832 31.0510858,20.4773627 L31.0510858,20.4773627 Z" id="Shape"></path>
            </g>
        </g>
    </g>
</svg>