<?xml version="1.0" encoding="UTF-8" standalone="no"?>
<svg width="38px" height="38px" viewBox="0 0 38 38" version="1.1" xmlns="http://www.w3.org/2000/svg" xmlns:xlink="http://www.w3.org/1999/xlink">
    <!-- Generator: Sketch 46.1 (44463) - http://www.bohemiancoding.com/sketch -->
    <title>搜索</title>
    <desc>Created with Sketch.</desc>
    <defs></defs>
    <g id="Page-1" stroke="none" stroke-width="1" fill="none" fill-rule="evenodd">
        <g id="溧阳-首页" transform="translate(-165.000000, -169.000000)" fill-rule="nonzero" fill="#000000">
            <g id="搜索框" transform="translate(145.000000, 158.000000)">
                <g id="搜索" transform="translate(20.000000, 11.000000)">
                    <path d="M37.6361676,35.8803346 L27.5312289,25.7753959 C29.9485001,22.9487615 31.2701348,19.3940483 31.2701348,15.6348605 C31.2701348,11.458445 29.6434438,7.53244886 26.6905649,4.57956996 C23.7372721,1.62627715 19.810862,-5.56499291e-15 15.6348605,-5.56499291e-15 C11.458445,-5.56499291e-15 7.53244886,1.62669107 4.57956996,4.57956996 C1.62627715,7.53244886 -1.48284163e-14,11.458445 -1.48284163e-14,15.6348605 C-1.48284163e-14,19.811276 1.62669107,23.7372721 4.57956996,26.6905649 C7.53244886,29.6438577 11.458445,31.2701348 15.6348605,31.2701348 C19.3940483,31.2701348 22.9483476,29.9485001 25.7753959,27.5312289 L35.8803346,37.6361676 C36.1228896,37.8787225 36.4407773,38 36.7582511,38 C37.0757249,38 37.3936126,37.8787225 37.6361676,37.6361676 C38.1212775,37.1518855 38.1212775,36.3654445 37.6361676,35.8803346 Z M15.6348605,28.787051 C12.1219528,28.787051 8.81931464,27.4186437 6.33540291,24.9347319 C3.85107727,22.4504063 2.48308389,19.1477681 2.48308389,15.6348605 C2.48308389,12.1219528 3.85107727,8.81931464 6.33540291,6.33540291 C8.81931464,3.85149119 12.1215389,2.48308389 15.6348605,2.48308389 C19.1473542,2.48308389 22.4504063,3.85149119 24.9347319,6.33581683 C27.4186437,8.81931464 28.787051,12.1219528 28.787051,15.6348605 C28.787051,19.1477681 27.4186437,22.4504063 24.9347319,24.9347319 C22.4504063,27.4186437 19.1473542,28.787051 15.6348605,28.787051 Z" id="Shape"></path>
                </g>
            </g>
        </g>
    </g>
</svg>