<?xml version="1.0" standalone="no"?><!DOCTYPE svg PUBLIC "-//W3C//DTD SVG 1.1//EN" "http://www.w3.org/Graphics/SVG/1.1/DTD/svg11.dtd"><svg t="1511957512114" class="icon" style="" viewBox="0 0 1024 1024" version="1.1" xmlns="http://www.w3.org/2000/svg" p-id="27062" xmlns:xlink="http://www.w3.org/1999/xlink" width="30" height="30"><defs><style type="text/css"></style></defs><path d="M513.365333 19.114667c-271.018667 0-491.52 220.501333-491.52 491.52s220.501333 491.52 491.52 491.52 491.52-220.501333 491.52-491.52S784.384 19.114667 513.365333 19.114667zM513.365333 933.888c-233.472 0-423.253333-189.781333-423.253333-423.253333s189.781333-423.253333 423.253333-423.253333 423.253333 189.781333 423.253333 423.253333S746.154667 933.888 513.365333 933.888z" p-id="27063" fill="#707070"></path><path d="M501.76 202.069333c-19.114667 0-37.546667 15.018667-37.546667 34.133333l0 365.909333c0 19.114667 18.432 34.133333 37.546667 34.133333s37.546667-15.018667 37.546667-34.133333L539.306667 236.202667C539.306667 217.770667 520.874667 202.069333 501.76 202.069333z" p-id="27064" fill="#707070"></path><path d="M501.76 705.194667c-19.114667 0-37.546667 15.018667-37.546667 34.133333l0 45.738667c0 19.114667 18.432 34.133333 37.546667 34.133333s37.546667-15.018667 37.546667-34.133333l0-45.738667C539.306667 720.213333 520.874667 705.194667 501.76 705.194667z" p-id="27065" fill="#707070"></path></svg>