<?xml version="1.0" standalone="no"?><!DOCTYPE svg PUBLIC "-//W3C//DTD SVG 1.1//EN" "http://www.w3.org/Graphics/SVG/1.1/DTD/svg11.dtd"><svg t="1517366380137" class="icon" style="" viewBox="0 0 1024 1024" version="1.1" xmlns="http://www.w3.org/2000/svg" p-id="3714" xmlns:xlink="http://www.w3.org/1999/xlink" width="30" height="30"><defs><style type="text/css"></style></defs><path d="M734.624868 398.481573l0 141.220349 0 206.575846-52.518121 0-38.512129 0 0 36.181037 0 120.207779c0 10.267854-7.002484 18.441001-17.038048 18.674315l0 0-0.233314 0-0.701988 0c-3.731998 0-7.236821-1.401929-10.036587-3.738138l-0.233314-0.234337-0.934279-0.228197c-4.668323-3.738138-7.938809-9.340739-7.938809-14.474666l0-120.207779 0-36.181037-36.180014 0L455.926402 746.276744l-38.743396 0 0 36.181037 0 120.207779c0 10.267854-8.40646 18.674315-18.675338 18.674315-10.267854 0-18.674315-8.40646-18.674315-18.674315l0-120.207779 0-36.181037-36.180014 0-57.186444 0 0-206.810183L286.466895 398.481573 734.624868 398.481573M771.974521 361.14113l-522.858302 0 0 178.327478 0 209.140251c0 16.110933 12.839423 35.013445 28.943193 35.013445l64.423265 0 0 119.045303c0 31.046087 24.978904 56.017828 56.023968 56.017828 31.04097 0 56.017828-24.971741 56.017828-56.017828L454.524472 783.622304l114.37698 0 0 119.045303c0 17.505699 9.101285 33.142841 21.707394 43.417859 9.101285 7.93267 21.705348 12.599969 35.012422 12.599969l0.934279 0-0.467651 0c31.04097 0 55.083549-24.971741 55.083549-56.017828L681.171446 783.622304l66.759473 0c16.33913 0 24.275893-18.902512 24.275893-34.779108L772.206812 539.701922 772.206812 361.14113 771.974521 361.14113 771.974521 361.14113zM771.974521 361.14113" p-id="3715" fill="#515151"></path><path d="M865.340979 361.14113c10.268878 0 18.674315 8.399297 18.674315 18.674315l0 224.076428c0 10.268878-8.405437 18.674315-18.674315 18.674315s-18.674315-8.405437-18.674315-18.674315L846.666664 379.815445C846.666664 369.541451 855.072101 361.14113 865.340979 361.14113M865.340979 323.791477c-31.04711 0-56.022944 24.976858-56.022944 56.024991l0 224.076428c0 31.046087 24.975834 56.023968 56.022944 56.023968 31.039947 0 56.017828-24.977881 56.017828-56.023968L921.358807 379.815445C921.358807 348.768335 896.380926 323.791477 865.340979 323.791477L865.340979 323.791477 865.340979 323.791477zM865.340979 323.791477" p-id="3716" fill="#515151"></path><path d="M155.749762 361.14113c10.275018 0 18.674315 8.399297 18.674315 18.674315l0 224.076428c0 10.268878-8.399297 18.674315-18.674315 18.674315-10.269901 0-18.668175-8.405437-18.668175-18.674315L137.081587 379.815445C137.081587 369.541451 145.479861 361.14113 155.749762 361.14113M155.749762 323.791477c-31.039947 0-56.016805 24.976858-56.016805 56.024991l0 224.076428c0 31.046087 24.976858 56.023968 56.016805 56.023968 31.04711 0 56.023968-24.977881 56.023968-56.023968L211.773729 379.815445C211.773729 348.768335 186.796872 323.791477 155.749762 323.791477L155.749762 323.791477 155.749762 323.791477zM155.749762 323.791477" p-id="3717" fill="#515151"></path><path d="M508.212232 133.090181l2.100848 0 0 0 0 0c33.145911 0 63.723324 4.435009 90.564645 13.072737l23.342638 10.268878c66.99381 29.41289 93.134167 87.298252 103.635335 130.016169l-434.853969 0c10.270924-43.417859 36.414351-101.772918 102.935394-130.71611l24.043602-10.502192C446.359512 137.290853 476.00367 133.090181 508.212232 133.090181M345.75521 62.365396c-1.168616 0-2.803859 0.466628-4.199649 1.86958-2.570545 1.864464-3.972475 4.199649-3.037173 5.834892l42.716894 51.584865c-112.508423 48.779983-129.315204 167.356612-131.649366 202.369034l521.921977 0c-2.570545-35.012422-19.140942-151.953807-132.112923-201.669092l43.179428-51.817156c0.934279-1.168616-0.467651-3.972475-3.032056-6.071276-1.636267-1.166569-3.504824-1.868557-4.672416-1.868557-0.694825 0-1.162476 0.233314-1.630127 0.701988l-44.819788 52.984748c-31.742958-12.605086-70.492494-20.542872-118.106932-20.542872l-2.333138 0c-46.684252 0-84.96102 7.703449-116.242468 19.841907l-44.345997-52.519144C347.390453 62.59871 346.688465 62.365396 345.75521 62.365396L345.75521 62.365396 345.75521 62.365396zM345.75521 62.365396" p-id="3718" fill="#515151"></path><path d="M395.236158 237.195214c-17.272385 0-31.508621-14.008039-31.508621-31.046087 0-17.039072 14.002922-31.04097 31.508621-31.04097 17.270339 0 31.512714 14.002922 31.512714 31.04097C426.749896 223.187175 412.743904 237.195214 395.236158 237.195214L395.236158 237.195214zM395.236158 237.195214" p-id="3719" fill="#515151"></path><path d="M624.919281 237.195214c-17.272385 0-31.513738-14.008039-31.513738-31.046087 0-17.039072 14.007015-31.04097 31.513738-31.04097 17.273409 0 31.513738 14.002922 31.513738 31.04097C656.433018 223.187175 642.192689 237.195214 624.919281 237.195214L624.919281 237.195214zM624.919281 237.195214" p-id="3720" fill="#515151"></path></svg>