<?xml version="1.0" standalone="no"?><!DOCTYPE svg PUBLIC "-//W3C//DTD SVG 1.1//EN" "http://www.w3.org/Graphics/SVG/1.1/DTD/svg11.dtd"><svg t="1517366298203" class="icon" style="" viewBox="0 0 1024 1024" version="1.1" xmlns="http://www.w3.org/2000/svg" p-id="2686" xmlns:xlink="http://www.w3.org/1999/xlink" width="30" height="30"><defs><style type="text/css"></style></defs><path d="M843.354 670.118c-28.25-40.599-42.405-86.74-42.405-137.216 0-46.743 13.553-89.27 39.996-127.398 14.758-21.504 38.129-45.538 70.174-72.584-20.902-25.9-42.526-46.802-64.03-61.56-38.19-26.443-81.8-39.996-131.072-39.996-30.178 0-65.837 7.409-106.436 20.901-40.659 14.156-70.174 20.962-88.004 20.962-14.215 0-42.526-6.144-84.992-18.492-43.068-12.288-78.787-18.432-108.905-18.432-70.837 0-128.663 29.576-174.743 88.606-46.14 59.693-69.511 136.011-69.511 230.16 0 100.893 30.78 203.655 90.413 309.548C234.737 970.451 295.695 1024 359.063 1024c20.299 0 47.405-6.746 81.257-20.962 33.31-13.493 62.765-20.3 87.401-20.3 25.239 0 56.561 6.145 92.883 19.698 36.985 12.89 65.235 19.697 86.197 19.697 52.284 0 105.231-40.057 158.178-120.652 35.66-53.549 60.295-105.23 75.655-153.84-36.261-11.024-68.909-36.865-97.28-77.523z m-28.792 198.354c-39.575 60.236-77.884 93.486-107.821 93.486-8.855 0-27.648-2.831-65.115-15.902-41.743-15.601-80.113-23.492-113.965-23.492-32.587 0-69.572 8.312-110.712 24.997-34.937 14.638-52.104 16.204-57.886 16.204-37.828 0-85.053-45.9-132.759-128.723-55.597-98.726-82.643-190.283-82.643-279.974 0-80.474 18.673-143.781 56.742-193.114 34.876-44.634 75.354-65.416 127.277-65.416 24.154 0 54.332 5.301 92.1 16.083 63.307 18.372 86.98 20.842 101.737 20.842 25.6 0 60.838-7.951 107.038-24.034 35.479-11.806 64.874-17.83 87.341-17.83 36.684 0 68.368 9.577 96.98 29.455a189.755 189.755 0 0 1 12.287 9.337c-13.733 14.215-24.937 27.768-33.852 40.779-33.732 48.55-50.778 102.942-50.778 161.792 0 63.126 17.89 120.832 53.248 171.67 21.323 30.42 45.056 54.694 71.198 72.644-13.071 30.058-29.997 60.597-50.417 91.196z m-246.905-629.7c-14.155 4.338-35.057 8.012-63.97 10.482 1.265-60.898 17.228-113.845 48.008-158.118C582.475 46.743 634.097 16.625 705.596 0c1.205 5.542 2.41 9.879 3.012 13.553 0 4.277 0.663 7.951 0.663 12.288 0 25.239-6.144 53.55-17.83 83.727-12.288 30.78-31.383 59.09-57.284 84.932-22.166 22.106-44.333 36.864-66.5 44.273z" p-id="2687" fill="#515151"></path></svg>