<?xml version="1.0" standalone="no"?><!DOCTYPE svg PUBLIC "-//W3C//DTD SVG 1.1//EN" "http://www.w3.org/Graphics/SVG/1.1/DTD/svg11.dtd"><svg t="1511957910703" class="icon" style="" viewBox="0 0 1024 1024" version="1.1" xmlns="http://www.w3.org/2000/svg" p-id="35362" xmlns:xlink="http://www.w3.org/1999/xlink" width="30" height="30"><defs><style type="text/css"></style></defs><path d="M850.519923 937.974741 168.212096 937.974741c-53.832046 0-97.472985-43.640939-97.472985-97.472985L70.739111 255.666914c0-53.832046 43.640939-97.472985 97.472985-97.472985l146.208966 0L314.421063 109.458971c0-13.458523 10.909467-24.367991 24.367991-24.367991 13.458523 0 24.367991 10.909467 24.367991 24.367991l0 48.735981L655.574976 158.194952 655.574976 109.458971c0-13.458523 10.909467-24.367991 24.367991-24.367991s24.367991 10.909467 24.367991 24.367991l0 48.735981 146.208966 0c53.834092 0 97.472985 43.640939 97.472985 97.472985l0 584.834842C947.992909 894.333802 904.354016 937.974741 850.519923 937.974741zM899.255904 255.666914c0-26.917046-21.818935-48.735981-48.735981-48.735981L704.310957 206.930933l0 48.735981c0 13.458523-10.909467 24.367991-24.367991 24.367991s-24.367991-10.909467-24.367991-24.367991l0-48.735981L363.157044 206.930933l0 48.735981c0 13.458523-10.909467 24.367991-24.367991 24.367991-13.458523 0-24.367991-10.909467-24.367991-24.367991l0-48.735981L168.212096 206.930933c-26.917046 0-48.735981 21.818935-48.735981 48.735981l0 97.472985 779.779789 0L899.255904 255.666914zM899.255904 401.87588l-779.779789 0 0 438.625876c0 26.917046 21.818935 48.735981 48.735981 48.735981l682.307827 0c26.917046 0 48.735981-21.818935 48.735981-48.735981L899.255904 401.87588zM704.310957 743.029794 655.574976 743.029794c-13.458523 0-24.367991-10.909467-24.367991-24.367991s10.909467-24.367991 24.367991-24.367991l48.735981 0c13.458523 0 24.367991 10.909467 24.367991 24.367991S717.76948 743.029794 704.310957 743.029794zM704.310957 596.820827 655.574976 596.820827c-13.458523 0-24.367991-10.909467-24.367991-24.367991 0-13.458523 10.909467-24.367991 24.367991-24.367991l48.735981 0c13.458523 0 24.367991 10.909467 24.367991 24.367991C728.678948 585.91136 717.76948 596.820827 704.310957 596.820827zM533.734 743.029794l-48.735981 0c-13.458523 0-24.367991-10.909467-24.367991-24.367991s10.909467-24.367991 24.367991-24.367991l48.735981 0c13.458523 0 24.367991 10.909467 24.367991 24.367991S547.192523 743.029794 533.734 743.029794zM533.734 596.820827l-48.735981 0c-13.458523 0-24.367991-10.909467-24.367991-24.367991 0-13.458523 10.909467-24.367991 24.367991-24.367991l48.735981 0c13.458523 0 24.367991 10.909467 24.367991 24.367991C558.103014 585.91136 547.192523 596.820827 533.734 596.820827zM338.789053 743.029794l-48.735981 0c-13.458523 0-24.367991-10.909467-24.367991-24.367991s10.909467-24.367991 24.367991-24.367991l48.735981 0c13.458523 0 24.367991 10.909467 24.367991 24.367991S352.247576 743.029794 338.789053 743.029794zM338.789053 596.820827l-48.735981 0c-13.458523 0-24.367991-10.909467-24.367991-24.367991 0-13.458523 10.909467-24.367991 24.367991-24.367991l48.735981 0c13.458523 0 24.367991 10.909467 24.367991 24.367991C363.157044 585.91136 352.247576 596.820827 338.789053 596.820827z" p-id="35363" fill="#707070"></path></svg>