<?xml version="1.0" standalone="no"?><!DOCTYPE svg PUBLIC "-//W3C//DTD SVG 1.1//EN" "http://www.w3.org/Graphics/SVG/1.1/DTD/svg11.dtd"><svg t="1511957195315" class="icon" style="" viewBox="0 0 1024 1024" version="1.1" xmlns="http://www.w3.org/2000/svg" p-id="22304" xmlns:xlink="http://www.w3.org/1999/xlink" width="30" height="30"><defs><style type="text/css"></style></defs><path d="M146.285714 0l73.142857 0 0 804.571429-73.142857 0 0-804.571429Z" p-id="22305" fill="#707070"></path><path d="M146.285714 0l438.857143 0 0 73.142857-438.857143 0 0-73.142857Z" p-id="22306" fill="#707070"></path><path d="M146.285714 292.571429l292.571429 0 0 73.142857-292.571429 0 0-73.142857Z" p-id="22307" fill="#707070"></path><path d="M823.925029 806.638446l-362.0352-362.0352 51.719314-51.719314 362.0352 362.0352-51.719314 51.719314Z" p-id="22308" fill="#707070"></path><path d="M460.853394 755.946789l362.0352-362.0352 51.719314 51.719314-362.0352 362.0352-51.719314-51.719314Z" p-id="22309" fill="#707070"></path><path d="M0 877.714286l73.142857 0 0 146.285714-73.142857 0 0-146.285714Z" p-id="22310" fill="#707070"></path><path d="M146.285714 877.714286l658.285714 0 0 146.285714-658.285714 0 0-146.285714Z" p-id="22311" fill="#707070"></path><path d="M877.714286 1024 877.714286 877.714286 1024 950.857143Z" p-id="22312" fill="#707070"></path></svg>