<?xml version="1.0" standalone="no"?><!DOCTYPE svg PUBLIC "-//W3C//DTD SVG 1.1//EN" "http://www.w3.org/Graphics/SVG/1.1/DTD/svg11.dtd"><svg t="1511957219999" class="icon" style="" viewBox="0 0 1024 1024" version="1.1" xmlns="http://www.w3.org/2000/svg" p-id="23580" xmlns:xlink="http://www.w3.org/1999/xlink" width="30" height="30"><defs><style type="text/css"></style></defs><path d="M802.034 818.609V758.04H372.706v60.569h429.328z m-489.068 0v-60.208H187.61v60.208h125.356z m615.03 123.397H64.212V633.512h863.783v308.494zM125.911 201.621H64.212v-61.699h61.699v61.699z m0 123.397H64.212V263.32h61.699v61.698z m0 123.398H64.212v-61.699h61.699v61.699z m0 123.398H64.212v-61.699h61.699v61.699z m0-431.892H64.212V78.223h61.699v61.699z m61.699 0h-61.699V78.223h61.699v61.699z m123.397 0h-61.699V78.223h61.699v61.699z m123.398 0h-61.699V78.223h61.699v61.699z m308.494 0H681.2V78.223h61.699v61.699z m-123.397 0h-61.699V78.223h61.699v61.699z m246.795 0h-61.699V78.223h61.699v61.699z m61.699 0h-61.699V78.223h61.699v61.699z m0 61.699h-61.699v-61.699h61.699v61.699z m0 123.397h-61.699V263.32h61.699v61.698z m0 123.398h-61.699v-61.699h61.699v61.699z m0 123.398h-61.699v-61.699h61.699v61.699z" p-id="23581" fill="#707070"></path></svg>