<?xml version="1.0" standalone="no"?><!DOCTYPE svg PUBLIC "-//W3C//DTD SVG 1.1//EN" "http://www.w3.org/Graphics/SVG/1.1/DTD/svg11.dtd"><svg t="1511954009933" class="icon" style="" viewBox="0 0 1024 1024" version="1.1" xmlns="http://www.w3.org/2000/svg" p-id="4334" xmlns:xlink="http://www.w3.org/1999/xlink" width="30" height="30"><defs><style type="text/css"></style></defs><path d="M876.119463 63.821561H147.916353c-46.433542 0-84.076884 37.643342-84.076884 84.040045v728.202087c0 46.470381 37.643342 84.113723 84.076884 84.113723h728.20311c46.396703 0 84.040045-37.643342 84.040045-84.113723V147.861606c0-46.396703-37.643342-84.040045-84.040045-84.040045z m28.013007 812.243155c0 15.538905-12.547781 28.086685-28.013007 28.086685H147.916353c-15.538905 0-28.049846-12.548804-28.049846-28.086685V147.861606c0-15.46625 12.511965-28.013007 28.049846-28.013007h728.20311c15.465227 0 28.013007 12.547781 28.013007 28.013007v728.20311z" p-id="4335" fill="#515151"></path><path d="M792.078395 708.057281H343.899956v-56.027038h-55.95336v56.027038h-56.027037c-15.429411 0-28.049846 12.547781-28.049847 28.013007s12.620435 28.01403 28.049847 28.014031h56.027037v56.026014h55.95336v-56.026014h448.178439c15.46625 0 28.01403-12.548804 28.01403-28.014031s-12.547781-28.013007-28.01403-28.013007zM792.078395 484.022809h-84.040045v-56.027038h-56.027038v56.027038H231.920582c-15.429411 0-28.049846 12.547781-28.049846 27.940352 0 15.465227 12.620435 27.940352 28.049846 27.940352h420.09073v56.099693h56.027038v-56.099693h84.040045c15.46625 0 28.01403-12.474103 28.01403-27.940352 0-15.392572-12.547781-27.940352-28.01403-27.940352zM792.078395 259.915681H484.040716v-56.099692h-56.026014v56.099692H231.920582c-15.429411 0-28.049846 12.474103-28.049846 28.013007 0 15.465227 12.620435 28.013007 28.049846 28.013008h196.09412v56.027037h56.026014v-56.027037h308.037679c15.46625 0 28.01403-12.547781 28.01403-28.013008 0-15.538905-12.547781-28.013007-28.01403-28.013007z" p-id="4336" fill="#515151"></path></svg>