<?xml version="1.0" standalone="no"?><!DOCTYPE svg PUBLIC "-//W3C//DTD SVG 1.1//EN" "http://www.w3.org/Graphics/SVG/1.1/DTD/svg11.dtd"><svg t="1511956997984" class="icon" style="" viewBox="0 0 1024 1024" version="1.1" xmlns="http://www.w3.org/2000/svg" p-id="16400" xmlns:xlink="http://www.w3.org/1999/xlink" width="30" height="30"><defs><style type="text/css"></style></defs><path d="M320 306.6c0 7.4-6 13.4-13.4 13.4l-101 0c-7.4 0-13.4-6-13.4-13.4l0-101c0-7.4 6-13.4 13.4-13.4l101 0c7.4 0 13.4 6 13.4 13.4L320 306.6z" p-id="16401" fill="#8a8a8a"></path><path d="M576 306.6c0 7.4-6 13.4-13.4 13.4l-101 0c-7.4 0-13.4-6-13.4-13.4l0-101c0-7.4 6-13.4 13.4-13.4l101 0c7.4 0 13.4 6 13.4 13.4L576 306.6z" p-id="16402" fill="#8a8a8a"></path><path d="M832 306.6c0 7.4-6 13.4-13.4 13.4l-101 0c-7.4 0-13.4-6-13.4-13.4l0-101c0-7.4 6-13.4 13.4-13.4l101 0c7.4 0 13.4 6 13.4 13.4L832 306.6z" p-id="16403" fill="#8a8a8a"></path><path d="M320 562.6c0 7.4-6 13.4-13.4 13.4l-101 0c-7.4 0-13.4-6-13.4-13.4l0-101c0-7.4 6-13.4 13.4-13.4l101 0c7.4 0 13.4 6 13.4 13.4L320 562.6z" p-id="16404" fill="#8a8a8a"></path><path d="M576 562.6c0 7.4-6 13.4-13.4 13.4l-101 0c-7.4 0-13.4-6-13.4-13.4l0-101c0-7.4 6-13.4 13.4-13.4l101 0c7.4 0 13.4 6 13.4 13.4L576 562.6z" p-id="16405" fill="#8a8a8a"></path><path d="M832 562.6c0 7.4-6 13.4-13.4 13.4l-101 0c-7.4 0-13.4-6-13.4-13.4l0-101c0-7.4 6-13.4 13.4-13.4l101 0c7.4 0 13.4 6 13.4 13.4L832 562.6z" p-id="16406" fill="#8a8a8a"></path><path d="M320 818.6c0 7.4-6 13.4-13.4 13.4l-101 0c-7.4 0-13.4-6-13.4-13.4l0-101c0-7.4 6-13.4 13.4-13.4l101 0c7.4 0 13.4 6 13.4 13.4L320 818.6z" p-id="16407" fill="#8a8a8a"></path><path d="M576 818.6c0 7.4-6 13.4-13.4 13.4l-101 0c-7.4 0-13.4-6-13.4-13.4l0-101c0-7.4 6-13.4 13.4-13.4l101 0c7.4 0 13.4 6 13.4 13.4L576 818.6z" p-id="16408" fill="#8a8a8a"></path><path d="M832 818.6c0 7.4-6 13.4-13.4 13.4l-101 0c-7.4 0-13.4-6-13.4-13.4l0-101c0-7.4 6-13.4 13.4-13.4l101 0c7.4 0 13.4 6 13.4 13.4L832 818.6z" p-id="16409" fill="#8a8a8a"></path></svg>