<?xml version="1.0" standalone="no"?><!DOCTYPE svg PUBLIC "-//W3C//DTD SVG 1.1//EN" "http://www.w3.org/Graphics/SVG/1.1/DTD/svg11.dtd"><svg t="1513328157014" class="icon" style="" viewBox="0 0 1024 1024" version="1.1" xmlns="http://www.w3.org/2000/svg" p-id="1360" xmlns:xlink="http://www.w3.org/1999/xlink" width="30" height="30"><defs><style type="text/css"></style></defs><path d="M782.65344 300.0576a1000.2176 1000.2176 0 0 0-60.07808-75.66336 28.71296 28.71296 0 0 0-25.6768-9.38496 28.16 28.16 0 0 0-21.81632 16.09216 177.55648 177.55648 0 0 1-4.28032 8.74496 146.176 146.176 0 0 1-87.36256 72.50944 14.06464 14.06464 0 0 1-3.97824 0.71168 14.21824 14.21824 0 0 1-10.07616-3.44576 13.85984 13.85984 0 0 1-4.52608-10.1376 15.2832 15.2832 0 0 1 0.27648-4.00384c0.0512-0.24064 0.09728-0.4864 0.13824-0.73216l0.16896-0.69632c0.17408-0.77824 0.384-1.57696 0.61952-2.42688 0.47104-1.536 4.18816-14.04416 5.47328-19.18464a186.71104 186.71104 0 0 0-4.608-109.60384 307.92704 307.92704 0 0 0-61.29664-103.07584l-2.21696-2.56q-3.4304-3.88608-6.99392-7.7312a28.84096 28.84096 0 0 0-27.70432-8.32 27.90912 27.90912 0 0 0-20.72064 19.6608A249.58976 249.58976 0 0 1 390.95296 161.536a317.85984 317.85984 0 0 1-27.23328 26.82368 636.8 636.8 0 0 1-33.9712 27.42272c-5.3248 4.0448-19.05664 14.11072-33.54112 24.71936l-1.92 1.40288c-16.384 11.98592-33.28 24.39168-40.06912 29.52704-124.928 94.81728-173.62432 184.54016-173.62432 320 0 217.6 182.8352 394.61376 407.5776 394.61376s407.552-177.01888 407.552-394.61376c-0.0256-88.4736-38.05184-186.49088-113.07008-291.37408z m-405.888 439.84896a19.05664 19.05664 0 0 1-19.35872 18.68288h-8.86272a19.12832 19.12832 0 0 1-19.35872-18.72384V615.424H270.41792v124.44672a19.08736 19.08736 0 0 1-19.35872 18.72384H242.176a19.17952 19.17952 0 0 1-19.35872-18.68288V455.71072a19.06176 19.06176 0 0 1 19.35872-18.68288h8.86272a19.09248 19.09248 0 0 1 19.35872 18.85696v118.8864h58.79296V455.8848a19.15392 19.15392 0 0 1 19.35872-18.85696h8.86272a19.18464 19.18464 0 0 1 19.35872 18.68288v284.19584z m201.50784-57.1904a79.60064 79.60064 0 0 1-6.99392 34.54976 72.44288 72.44288 0 0 1-18.432 24.39168 80.03072 80.03072 0 0 1-25.65632 14.67904 85.33504 85.33504 0 0 1-57.37472 0 80.0256 80.0256 0 0 1-25.6512-14.67904 72.27392 72.27392 0 0 1-18.432-24.39168 79.53408 79.53408 0 0 1-6.99904-34.54976v-169.82016a79.94368 79.94368 0 0 1 6.99904-34.304 71.77728 71.77728 0 0 1 18.432-24.61184 79.872 79.872 0 0 1 25.6512-14.67904 85.26848 85.26848 0 0 1 57.37472 0 80.04096 80.04096 0 0 1 25.65632 14.67904 71.84896 71.84896 0 0 1 18.432 24.61184 80.01536 80.01536 0 0 1 6.99392 34.304v169.82016z m175.85664-220.96384a18.944 18.944 0 0 1-19.24096 18.62656h-35.79904v259.52256a19.05664 19.05664 0 0 1-19.35872 18.68288h-8.86272a19.00032 19.00032 0 0 1-19.3536-18.62656V480.37888h-35.79904a18.944 18.944 0 0 1-19.24096-18.62656V455.68a19.0208 19.0208 0 0 1 19.33824-18.62656h118.9888A19.00032 19.00032 0 0 1 754.12992 455.68v6.09792z m-255.62112 18.63168a34.41152 34.41152 0 0 0-22.62528 7.90528 30.11584 30.11584 0 0 0-9.55904 24.61184v169.82016a30.10048 30.10048 0 0 0 9.55904 24.61184 36.3264 36.3264 0 0 0 45.25056 0 30.11584 30.11584 0 0 0 9.55904-24.61184v-169.82528a30.12608 30.12608 0 0 0-9.55904-24.61184 34.4064 34.4064 0 0 0-22.62528-7.90016z" fill="#707070" p-id="1361"></path><path d="M871.36256 158.80192m-73.44128 0a73.44128 73.44128 0 1 0 146.88256 0 73.44128 73.44128 0 1 0-146.88256 0Z" fill="#707070" p-id="1362"></path></svg>