<?xml version="1.0" standalone="no"?><!DOCTYPE svg PUBLIC "-//W3C//DTD SVG 1.1//EN" "http://www.w3.org/Graphics/SVG/1.1/DTD/svg11.dtd"><svg t="1511956688067" class="icon" style="" viewBox="0 0 1024 1024" version="1.1" xmlns="http://www.w3.org/2000/svg" p-id="11628" xmlns:xlink="http://www.w3.org/1999/xlink" width="30" height="30"><defs><style type="text/css"></style></defs><path d="M895.179754 144.872583c-5.954741 20.998298-11.047612 40.586262-25.699409 52.260688C742.393634 300.244314 640.536221 428.036192 525.28064 542.664958c-3.055722 3.055722-6.659908 5.719686-8.85376 9.167167-48.96991 76.471412-134.608489 86.187042-209.669568 114.863822-16.140482 6.189797-41.291428-22.486983-36.433613-39.567688 13.554871-47.872984 26.874687-96.059376 41.526484-143.697305 2.507259-8.148593 10.185741-15.043556 16.688945-21.311705C438.153375 356.814354 548.394437 252.136274 657.460222 146.361268c26.012816-25.229298 48.578151-54.141133 72.318764-81.564283 32.124261-37.13878 77.019875-40.116151 112.043155-5.719686 21.076649 20.68489 46.697706 38.705817 51.555522 71.378541 0.705167 4.231 1.331982 8.462 2.037148 12.693001C896.981847 144.010712 893.534365 143.93236 895.179754 144.872583L895.179754 144.872583 895.179754 144.872583zM695.695927 180.052566c-106.245117 106.480173-212.333531 212.803642-316.071389 316.776556 17.864223 18.099279 37.687243 38.157354 55.003003 55.629818 106.010062-103.81621 213.11705-208.572642 319.675574-312.780611C732.678004 217.583105 712.776632 197.446678 695.695927 180.052566L695.695927 180.052566 695.695927 180.052566zM721.081929 135.078601c26.404576 25.30765 49.440021 47.324521 76.549764 73.41569 4.857815-6.581556 9.558926-14.808501 15.905427-21.390057 45.835836-47.559577 45.914188-47.402873-2.350556-93.160357-1.018574-0.940222-2.037148-2.1155-3.055722-3.055722-13.398167-11.987834-26.874687-12.144538-40.116151 0C752.971135 104.834784 738.084282 119.173174 721.081929 135.078601L721.081929 135.078601 721.081929 135.078601zM327.75561 609.264036c24.445779-9.793982 43.720336-17.629168 60.174226-24.210724-12.693001-14.886853-24.210724-28.520076-37.843947-44.582206C342.485759 563.819959 336.060906 583.721331 327.75561 609.264036L327.75561 609.264036 327.75561 609.264036z" p-id="11629" fill="#707070"></path><path d="M481.090193 783.75362c-70.673375 0-141.425101 0.078352-212.098475-0.078352-38.705817-0.078352-72.867227-10.577501-98.958395-41.761539-17.080705-20.606538-21.93852-44.582206-22.016872-69.968208-0.156704-140.719934-0.783519-281.439868 0.156704-422.159803 0.470111-75.609541 47.167818-120.505155 122.777359-120.975266 76.471412-0.470111 152.864472 0 229.335884-0.156704 16.688945 0 32.751076 1.331982 34.866576 22.408631 1.488685 15.435316-11.047612 23.270501-35.88515 23.270501-74.27756 0.078352-148.55512-0.078352-222.83268 0.078352-53.122559 0.078352-83.288023 30.635576-83.288023 83.914838-0.078352 135.705415-0.078352 271.410831 0 407.037894 0 41.996595 28.363372 71.927004 70.673375 72.16206 145.029286 0.548463 289.980221 0.470111 435.009507 0.078352 34.318113-0.078352 56.491689-24.524131 56.648392-61.741263 0.391759-92.84695 0.156704-185.6939 0.313407-278.54085 0-7.051667-1.645389-16.062131 1.880445-20.919946 6.033093-8.148593 16.140482-19.43126 23.348853-18.56939 7.521778 0.86187 14.103334 14.103334 19.979723 22.722038 2.037148 2.977371 0.470111 8.383649 0.470111 12.693001 0 92.141783 0.078352 184.283566 0 276.42535-0.078352 77.568338-36.747021 113.923599-114.39371 114.001951C618.205941 783.75362 549.648067 783.75362 481.090193 783.75362L481.090193 783.75362 481.090193 783.75362z" p-id="11630" fill="#707070"></path></svg>