<?xml version="1.0" standalone="no"?><!DOCTYPE svg PUBLIC "-//W3C//DTD SVG 1.1//EN" "http://www.w3.org/Graphics/SVG/1.1/DTD/svg11.dtd"><svg t="1515466491276" class="icon" style="" viewBox="0 0 1024 1024" version="1.1" xmlns="http://www.w3.org/2000/svg" p-id="4353" xmlns:xlink="http://www.w3.org/1999/xlink" width="30" height="30"><defs><style type="text/css"></style></defs><path d="M632.422162 285.574061c-28.186969-26.018583-65.042365-38.304398-111.299899-38.304398-52.034097 0-92.510974 15.900132-121.42142 47.699372-28.910447 30.356378-42.642193 70.830185-42.642193 121.425514l57.097416 0c0-35.416628 7.949043-62.877049 23.849174-83.117023 17.349133-23.853267 44.089148-35.411511 80.229253-35.411511 30.352285 0 54.206576 7.943926 70.831208 25.296129 15.901155 15.900132 24.572652 38.304398 24.572652 67.214844 0 20.234857-7.225565 39.032992-21.680788 57.097416-4.333702 5.783727-13.009292 14.455223-24.573675 26.019607-39.031968 34.69008-62.877049 62.154595-72.998571 83.839477-8.676613 18.065448-13.008268 39.028898-13.008268 62.872956l0 16.624632 57.815777 0 0-16.624632c0-19.511379 4.337795-36.859489 13.732769-52.760644 7.225565-13.009292 18.069541-26.01449 33.966603-39.746236 31.80231-28.187993 51.314713-46.982034 58.539254-55.652508 18.070564-23.854291 27.465538-52.037167 27.465538-84.562954 0-43.361577-13.732769-77.332273-40.47483-101.901855L632.422162 285.574061zM632.422162 285.574061" p-id="4354" fill="#515151"></path><path d="M510.281357 687.417195c-12.284791 0-22.404266 3.610224-31.074739 12.286838-8.67559 7.948019-12.284791 18.069541-12.284791 30.351262 0 12.286838 3.609201 22.404266 12.284791 31.079856 8.671497 7.949043 18.789948 12.285814 31.074739 12.285814 12.290931 0 22.404266-4.332678 31.079856-12.285814 8.67559-7.952112 13.009292-18.070564 13.009292-31.079856 0-12.285814-4.333702-22.404266-12.286838-30.351262-8.671497-8.676613-19.511379-12.286838-31.797194-12.286838L510.281357 687.417195zM510.281357 687.417195" p-id="4355" fill="#515151"></path><path d="M827.729359 197.594287C744.190735 114.056686 633.119033 68.052932 514.977309 68.052932c-118.147864 0-229.210355 46.007847-312.753073 129.542378-83.538625 83.533508-129.542378 194.60521-129.542378 312.753073 0 118.138654 46.00887 229.210355 129.542378 312.75205 83.538625 83.538625 194.60521 129.542378 312.753073 129.542378 118.137631 0 229.209332-46.007847 312.75205-129.542378 83.538625-83.538625 129.542378-194.610326 129.542378-312.75205C957.271738 392.208706 911.263891 281.138028 827.729359 197.594287L827.729359 197.594287zM797.067013 792.429901c-75.349105 75.349105-175.523619 116.847242-282.089703 116.847242-106.561991 0-206.738551-41.498136-282.086633-116.847242C157.541571 717.080795 116.043435 616.905258 116.043435 510.343267c0-106.567108 41.498136-206.736505 116.847242-282.09175C308.234665 152.907529 408.415318 111.409392 514.977309 111.409392c106.556874 0 206.736505 41.498136 282.089703 116.843148 75.349105 75.345012 116.843148 175.528736 116.843148 282.09175C913.910161 616.905258 872.416118 717.080795 797.067013 792.429901L797.067013 792.429901zM797.067013 792.429901" p-id="4356" fill="#515151"></path></svg>