<?xml version="1.0" standalone="no"?><!DOCTYPE svg PUBLIC "-//W3C//DTD SVG 1.1//EN" "http://www.w3.org/Graphics/SVG/1.1/DTD/svg11.dtd"><svg t="1512108528069" class="icon" style="" viewBox="0 0 1024 1024" version="1.1" xmlns="http://www.w3.org/2000/svg" p-id="1977" xmlns:xlink="http://www.w3.org/1999/xlink" width="30" height="30"><defs><style type="text/css"></style></defs><path d="M233.169 923.712c-71.886 0-132.881-58.816-132.881-132.881V233.17c0-71.886 58.816-132.881 132.881-132.881H790.83c71.886 0 132.881 58.816 132.881 132.881v557.661c0 71.886-58.816 132.881-132.881 132.881H233.169z m189.518-45.746H790.83c47.924 0 87.135-39.211 87.135-87.135V366.049H422.687v511.917z m-276.653-87.135c0 47.925 39.211 87.135 87.135 87.135h145.95V366.049H146.034v424.782z m87.135-644.797c-47.925 0-87.135 39.211-87.135 87.135v87.134h731.932V233.17c0-47.925-39.211-87.135-87.135-87.135H233.169v-0.001z" fill="#707070" p-id="1978"></path><path d="M790.831 925.89H233.169c-74.065 0-135.059-60.994-135.059-135.059V233.17c0-74.065 60.994-135.06 135.059-135.06H790.83c74.065 0 135.06 60.995 135.06 135.06v557.661c0 74.065-60.994 135.059-135.059 135.059zM233.169 104.645c-69.709 0-128.524 58.816-128.524 128.525v557.661c0 71.886 58.816 128.524 128.524 128.524H790.83c71.886 0 128.525-58.816 128.525-128.524V233.17c0-71.886-58.816-128.525-128.525-128.525H233.169z m557.662 777.677H420.508v-520.63h461.814v426.961c0 52.281-41.388 93.669-91.491 93.669z m-363.788-6.535H790.83c45.746 0 84.956-37.032 84.956-84.956V368.228H427.043v507.559z m-45.745 6.535H233.169c-50.103 0-91.491-41.388-91.491-91.492V361.693h239.62v520.629zM148.213 368.228v420.425c0 45.746 37.032 84.956 84.956 84.956h141.593V368.228H148.213z m734.109-43.567H141.678V233.17c0-50.103 41.388-91.492 91.491-91.492H790.83c50.103 0 91.491 41.388 91.491 91.492v91.491h0.001z m-734.109-6.535H873.61V233.17c0-45.746-37.033-84.956-84.956-84.956H233.169c-45.746 0-84.956 37.032-84.956 84.956v84.956z" fill="#515151" p-id="1979"></path></svg>
