<?xml version="1.0" standalone="no"?><!DOCTYPE svg PUBLIC "-//W3C//DTD SVG 1.1//EN" "http://www.w3.org/Graphics/SVG/1.1/DTD/svg11.dtd"><svg t="1516868504171" class="icon" style="" viewBox="0 0 1024 1024" version="1.1" xmlns="http://www.w3.org/2000/svg" p-id="1983" xmlns:xlink="http://www.w3.org/1999/xlink" width="30" height="30"><defs><style type="text/css"></style></defs><path d="M512 783.36l-17.28-24.32C485.76 746.666667 277.333333 452.906667 277.333333 277.333333a234.666667 234.666667 0 0 1 469.333334 0c0 175.573333-208.426667 469.333333-217.386667 481.706667zM512 85.333333a192 192 0 0 0-192 192c0 133.76 141.866667 356.906667 192 431.573334 50.133333-74.666667 192-298.666667 192-431.573334a192 192 0 0 0-192-192z" p-id="1984" fill="#515151"></path><path d="M512 384a106.666667 106.666667 0 1 1 106.666667-106.666667 106.666667 106.666667 0 0 1-106.666667 106.666667z m0-170.666667a64 64 0 1 0 64 64 64 64 0 0 0-64-64zM512 1003.733333L253.44 917.333333l-198.826667 18.133334A42.666667 42.666667 0 0 1 10.026667 881.066667L133.546667 469.333333h241.28l5.76 12.16A1865.173333 1865.173333 0 0 0 512 708.906667a1865.173333 1865.173333 0 0 0 131.413333-227.413334l5.76-12.16h241.28l123.52 411.733334a42.666667 42.666667 0 0 1-44.8 54.826666L770.56 917.333333zM258.56 874.666667L512 960l253.44-85.333333 207.786667 18.773333L858.88 512h-182.826667a1932.586667 1932.586667 0 0 1-146.773333 247.04L512 783.36l-17.28-24.32A1932.586667 1932.586667 0 0 1 347.946667 512H165.12L50.773333 893.226667z" p-id="1985" fill="#515151"></path></svg>