<?xml version="1.0" standalone="no"?><!DOCTYPE svg PUBLIC "-//W3C//DTD SVG 1.1//EN" "http://www.w3.org/Graphics/SVG/1.1/DTD/svg11.dtd"><svg t="1511957708239" class="icon" style="" viewBox="0 0 1024 1024" version="1.1" xmlns="http://www.w3.org/2000/svg" p-id="31560" xmlns:xlink="http://www.w3.org/1999/xlink" width="30" height="30"><defs><style type="text/css"></style></defs><path d="M57.151 433.54h721.461c26.015 0 47.058-21.044 47.058-47.058s-21.044-47.058-47.058-47.058h-721.461c-26.015 0-47.058 21.044-47.058 47.058s21.044 47.058 47.058 47.058zM57.151 182.669h909.698c26.015 0 47.058-21.044 47.058-47.058s-21.044-47.058-47.058-47.058h-909.698c-26.015 0-47.058 21.044-47.058 47.058s21.044 47.058 47.058 47.058zM684.494 841.331h-627.343c-26.015 0-47.058 21.044-47.058 47.058s21.044 47.058 47.058 47.058h627.343c26.015 0 47.058-21.044 47.058-47.058s-21.044-47.058-47.058-47.058zM966.849 590.46h-909.698c-26.015 0-47.058 21.044-47.058 47.058s21.044 47.058 47.058 47.058h909.698c26.015 0 47.058-21.044 47.058-47.058s-21.044-47.058-47.058-47.058z" p-id="31561" fill="#707070"></path></svg>