<?xml version="1.0" standalone="no"?><!DOCTYPE svg PUBLIC "-//W3C//DTD SVG 1.1//EN" "http://www.w3.org/Graphics/SVG/1.1/DTD/svg11.dtd"><svg t="1511957985534" class="icon" style="" viewBox="0 0 1024 1024" version="1.1" xmlns="http://www.w3.org/2000/svg" p-id="38064" xmlns:xlink="http://www.w3.org/1999/xlink" width="30" height="30"><defs><style type="text/css"></style></defs><path d="M924.169829 338.916966c-18.9854 0-34.395368 16.720823-34.395368 37.344537V645.944642c0 20.61655 15.410991 37.349653 34.395368 37.349652 18.975167 0 34.386158-16.733103 34.386158-37.349652V376.261503c0-20.62269-15.410991-37.344536-34.386158-37.344537zM759.235382 168.282704c-15.120372-8.607028-32.088836-13.101389-49.247634-13.101389a99.022271 99.022271 0 0 0-50.737568 13.993712c-0.795109 0.475837-1.579985 0.969071-2.365884 1.478678l-170.212659 111.192451H162.535305c-54.66604 0-99.138928 44.562938-99.138928 99.346659v232.657874c0 53.355185 42.949184 97.569176 95.995331 99.260701v84.878133c0 31.695886 25.694195 57.381895 57.384965 57.381895h195.105607c31.695886 0 57.384965-25.687032 57.384965-57.381895v-84.776825h13.19144L649.465327 846.104357a76.174913 76.174913 0 0 0 2.455934 1.859348c16.978696 12.307304 37.062104 18.807345 58.07979 18.807344 15.755846 0 31.470759-3.809769 45.433772-11.027147 33.119305-17.092283 53.697993-50.929949 53.697993-88.295976V254.521834c0-35.545564-19.120476-68.592214-49.897434-86.23913zM411.881257 797.990546H216.77565v-84.776825h195.105607v84.776825z m328.479243-30.54262c0 11.45489-6.367011 21.967314-16.486487 27.190269a30.147624 30.147624 0 0 1-13.872962 3.362584c-6.244214 0-12.45466-1.906419-17.709337-5.716188L506.475681 644.441405h-92.374873c-0.750083-0.026606-1.456165-0.223081-2.219551-0.223081H216.77565c-0.762363 0-1.468444 0.195451-2.224668 0.223081h-52.570309c-16.525372-0.301875-29.806863-13.901615-29.806863-30.590716V381.192815c0-16.879436 13.594623-30.575366 30.361495-30.575366h344.612689l187.350992-122.389468a30.190603 30.190603 0 0 1 15.488762-4.275373 30.365588 30.365588 0 0 1 15.041578 3.994988c9.481955 5.435803 15.33015 15.58393 15.33015 26.573215v512.927115z" p-id="38065" fill="#707070"></path></svg>