<?xml version="1.0" standalone="no"?><!DOCTYPE svg PUBLIC "-//W3C//DTD SVG 1.1//EN" "http://www.w3.org/Graphics/SVG/1.1/DTD/svg11.dtd"><svg t="1511957584880" class="icon" style="" viewBox="0 0 1024 1024" version="1.1" xmlns="http://www.w3.org/2000/svg" p-id="29394" xmlns:xlink="http://www.w3.org/1999/xlink" width="30" height="30"><defs><style type="text/css"></style></defs><path d="M227.9936 906.6496l-19.6096 9.2672a657.3056 657.3056 0 0 1-59.1872-328.5504c0.512-6.656-4.9664-14.0288-11.1104-14.7456-6.144-0.6656-13.056 5.632-13.568 12.6464a682.496 682.496 0 0 0 61.44 341.248l-25.2416 11.8784c-3.3792 1.5872-6.144 3.7888-5.6832 8.1408 0.4608 4.352 2.4576 6.656 6.2464 8.2944 17.5616 7.6288 35.1744 14.3872 52.8384 20.3264 5.1712 1.7408 10.24-1.28 11.3664-6.6048 3.9936-18.0736 8.704-35.6864 14.1824-52.736 1.1776-3.6352 0.768-6.2464-2.048-8.8576-2.8672-2.6624-6.1952-1.8944-9.6256-0.3072z m615.424-507.5968c-40.3968-43.1616-229.5296-113.152-237.568-116.0704a43.8784 43.8784 0 0 0-15.2576-2.6624c-21.76 0-43.1616 15.616-50.8928 37.12a88.4224 88.4224 0 0 0-3.4816 21.4016 59.1872 59.1872 0 0 0-71.3216 37.0176c-4.608 12.8512-4.7616 26.6752-0.4096 39.5264a53.6576 53.6576 0 0 0-53.6064 35.8912c-5.376 14.9504-4.5056 30.8736 2.4576 44.8512l-148.8896-48.7936a70.4 70.4 0 0 0-24.2176-4.4032c-25.5488 0-46.7456 14.7968-55.3472 38.6048-11.4688 31.9488 5.376 65.4848 39.424 78.0288l255.3856 87.808c1.1776 7.7312 3.9936 19.9168 10.752 36.608 17.92 44.288 82.1248 90.0608 158.5152 90.0608 15.1552 0 30.2592-1.8432 44.9536-5.4272 101.0176-24.6784 158.7712-75.8784 193.1264-171.3152 36.352-101.0688-1.6384-153.344-43.6224-198.2464z m19.8656 189.5424c-31.488 87.552-82.2784 132.5056-175.3088 155.1872a164.0448 164.0448 0 0 1-39.0144 4.7104c-64.9216 0-120.6784-38.5024-135.1168-74.1888a192.5632 192.5632 0 0 1-6.0928-17.3056l83.4048 28.672a12.6464 12.6464 0 0 0 16.0256-7.9872 12.8 12.8 0 0 0-7.8848-16.2304l-366.5408-126.0544c-20.9408-7.7312-30.8736-26.2656-24.064-45.1584 6.6048-18.3808 25.7536-26.7776 47.5648-18.7904l224.4608 73.5744c6.144 1.9968 12.8512-1.024 15.4624-7.0144a12.9024 12.9024 0 0 0-5.3248-16.2816l-33.4848-19.0976a13.5168 13.5168 0 0 0-1.9456-0.9216 34.8672 34.8672 0 0 1-19.5072-16.9984 31.3856 31.3856 0 0 1-1.28-24.7296 27.904 27.904 0 0 1 27.6992-19.0976c4.608 0 9.3696 0.8704 14.08 2.6112l23.6544 8.704 0.0512 0.0512c6.5536 2.4064 13.824-1.024 16.1792-7.6288a12.8512 12.8512 0 0 0-7.5264-16.384 34.304 34.304 0 0 1-20.1216-43.6736 33.792 33.792 0 0 1 31.6416-22.4256c3.8912 0 7.7824 0.7168 11.52 2.0992l51.4048 18.944c6.5024 2.4064 13.824-1.024 16.1792-7.6288a12.8 12.8 0 0 0-7.5264-16.384l-30.208-11.1104a62.1568 62.1568 0 0 1 1.7408-21.8624c4.9664-13.7216 21.7088-23.6032 33.792-19.1488 53.1456 19.5584 197.6832 77.4144 227.84 109.6704 39.5776 42.1888 69.7344 84.2752 38.2464 171.8784zM298.0352 119.6544c3.2256-2.0992 3.9936-4.608 3.4304-8.448-2.6112-17.7152-4.4544-35.84-5.4784-54.3232a8.6528 8.6528 0 0 0-10.1888-8.3456c-18.3296 3.0208-36.8128 6.8608-55.3984 11.52-3.9936 1.024-6.2976 2.9696-7.4752 7.168-1.1264 4.2496 1.1776 6.8608 4.3008 8.96l22.9888 15.8208A682.4448 682.4448 0 0 0 134.4 418.816c-0.6144 7.0144 5.1712 14.336 11.3664 14.6432 6.1952 0.3072 12.8-6.0416 13.3632-12.7488a657.5104 657.5104 0 0 1 111.5136-314.6752l17.8688 12.288c3.072 2.1504 6.2976 3.4304 9.5232 1.3312z" fill="#707070" p-id="29395"></path></svg>