<?xml version="1.0" standalone="no"?><!DOCTYPE svg PUBLIC "-//W3C//DTD SVG 1.1//EN" "http://www.w3.org/Graphics/SVG/1.1/DTD/svg11.dtd"><svg t="1511957863591" class="icon" style="" viewBox="0 0 1024 1024" version="1.1" xmlns="http://www.w3.org/2000/svg" p-id="35023" xmlns:xlink="http://www.w3.org/1999/xlink" width="30" height="30"><defs><style type="text/css"></style></defs><path d="M126.08512 848.09728l0 97.1008c0 8.78592 6.97344 15.76448 15.76448 15.76448l85.95968 0c14.1312 36.14208 47.82592 61.50144 88.49408 62.9504C316.84608 1024 317.30176 1024 317.84448 1024L360.96 1024c30.52544 0 64.39936-24.00256 64.39936-58.4192l0-302.17728c0-15.58016-7.0656-34.05824-40.76032-34.05824-3.80416 0-7.78752 0.18432-11.9552 0.36352-3.80416 0.1792-7.70048 0.3584-11.68384 0.3584l-43.11552 0c-64.58368 0-97.28 25.72288-97.28 76.45184l0 2.26304L165.39648 708.78208c-28.98432-56.8832-47.55456-132.79232-47.55456-196.46976 0-217.48224 176.80896-394.38336 394.19904-394.38336s394.20416 176.90112 394.20416 394.38336c0 58.96704-20.1984 135.05024-51.53792 196.46976l-51.27168 0 0-2.26304c0-50.72384-32.70144-76.45184-97.18784-76.45184L663.04 630.0672c-3.89632 0-7.78752-0.1792-11.68384-0.3584-4.07552-0.1792-8.15104-0.36352-11.9552-0.36352-33.69472 0-40.76032 18.47808-40.76032 34.05824l0 302.17728c0 34.42176 33.96608 58.4192 64.39936 58.4192l43.20768 0c0.45056 0 0.99328 0 1.54112-0.09216 40.58112-1.44896 74.27072-26.80832 88.48896-62.9504l85.86752 0c8.79104 0 15.75936-6.97856 15.75936-15.76448l0-97.64352c0.9984-0.62976 2.08896-1.08544 2.89792-1.99168C983.69024 754.43712 1024 645.46816 1024 512.31744 1024 229.80096 794.37824 0 512.04608 0S0 229.80096 0 512.31744c0 133.24288 40.76032 242.75456 124.45696 334.6944C124.90752 847.4624 125.5424 847.72864 126.08512 848.09728zM252.0832 706.51904c0-26.98752 11.14112-44.928 65.76128-44.928L360.96 661.59104c4.43904 0 8.87296-0.27136 13.1328-0.45056 3.62496-0.1792 7.24992-0.27136 10.50624-0.27136 6.52288 0 8.78592 0.62976 9.05728 0.3584 0.09216 0.27136 0.18432 0.99328 0.18432 2.176l0 302.17728c0 14.94016-17.93536 26.90048-32.88064 26.90048l-40.66816 0c-38.22592 0-68.20864-30.70976-68.20864-70.02112L252.0832 724.6336 252.0832 706.51904zM220.55936 922.46016l0 6.97344L157.60896 929.4336l0-189.04064 62.9504 0L220.55936 922.46016zM703.80032 992.48128 663.04 992.48128c-14.85312 0-32.88064-11.96032-32.88064-26.90048l0-302.17728c0-0.81408 0.09216-1.44896 0-1.72544 1.09056-0.27136 3.62496-0.80896 9.2416-0.80896 3.34848 0 6.8864 0.09216 10.5984 0.27136 4.25472 0.1792 8.68864 0.45056 13.04064 0.45056l43.20768 0c54.52288 0 65.66912 17.94048 65.66912 44.928l0 18.11456 0 197.82656C771.92192 961.77152 742.02624 992.48128 703.80032 992.48128zM866.47808 929.4336l-63.04256 0 0-6.97344 0-182.0672 63.04256 0L866.47808 929.4336zM512.04608 31.52384c264.94464 0 480.52736 215.66976 480.52736 480.7936 0 113.22368-31.06816 207.69792-94.65856 287.68256l0-75.3664c0-6.25152-3.61984-11.50464-8.87296-14.1312 29.89568-63.22688 48.73728-138.58304 48.73728-198.18496 0-234.87488-191.03744-425.9072-425.72288-425.9072-234.78272 0-425.72288 191.03232-425.72288 425.9072 0 64.31232 17.664 140.39552 45.74208 200.18176-3.62496 2.8928-5.98016 7.15264-5.98016 12.1344l0 75.3664c-63.49312-80.44032-94.5664-174.90944-94.5664-287.68256C31.51872 247.18848 247.10144 31.52384 512.04608 31.52384z" p-id="35024" fill="#707070"></path></svg>