<?xml version="1.0" standalone="no"?><!DOCTYPE svg PUBLIC "-//W3C//DTD SVG 1.1//EN" "http://www.w3.org/Graphics/SVG/1.1/DTD/svg11.dtd"><svg t="1511954438024" class="icon" style="" viewBox="0 0 1024 1024" version="1.1" xmlns="http://www.w3.org/2000/svg" p-id="9922" xmlns:xlink="http://www.w3.org/1999/xlink" width="30" height="30"><defs><style type="text/css"></style></defs><path d="M508.832 307.2c-75.104 0-136.544 37.536-136.544 85.344s61.44 85.344 136.544 85.344c75.104 0 136.544-37.536 136.544-85.344s-61.44-85.344-136.544-85.344zM508.832 443.744c-58.016 0-102.4-27.296-102.4-51.2s44.384-51.2 102.4-51.2 102.4 27.296 102.4 51.2-44.384 51.2-102.4 51.2z" p-id="9923" fill="#515151"></path><path d="M906.496 324.256c8.544-10.24 11.936-22.176 11.936-35.84 0-47.776-61.44-85.344-136.544-85.344-39.264 0-73.376 10.24-97.28 25.6l-44.384-18.784c3.424-6.816 5.12-15.36 5.12-23.904 0-47.776-61.44-85.344-136.544-85.344s-136.544 37.536-136.544 85.344c0 8.544 1.696 15.36 5.12 23.904l-34.144 15.36c-23.904-13.664-56.32-22.176-90.464-22.176-75.104 0-136.544 37.536-136.544 85.344 0 10.24 3.424 20.48 8.544 30.72l-76.8 34.144 0 337.92 460.8 196.256 460.8-197.984 0-336.224-63.136-29.024zM508.832 535.904l-401.056-172.384 42.656-17.056c25.6 17.056 61.44 29.024 102.4 29.024 75.104 0 136.544-37.536 136.544-85.344 0-13.664-5.12-27.296-15.36-39.264l25.6-10.24c25.6 20.48 64.864 34.144 109.216 34.144s83.616-13.664 109.216-34.144l39.264 17.056c-6.816 10.24-11.936 22.176-11.936 34.144 0 47.776 61.44 85.344 136.544 85.344 37.536 0 71.68-8.544 95.584-23.904l32.416 13.664-401.056 168.96zM884.288 288.416c0 23.904-44.384 51.2-102.4 51.2s-102.4-27.296-102.4-51.2 44.384-51.2 102.4-51.2c58.016 0 102.4 27.296 102.4 51.2zM508.832 136.544c58.016 0 102.4 27.296 102.4 51.2s-44.384 51.2-102.4 51.2-102.4-27.296-102.4-51.2 44.384-51.2 102.4-51.2zM252.832 237.216c58.016 0 102.4 27.296 102.4 51.2s-44.384 51.2-102.4 51.2c-58.016 0-102.4-27.296-102.4-51.2s44.384-51.2 102.4-51.2zM82.176 389.12l409.6 175.776 0 278.176-409.6-175.776 0-278.176zM525.888 843.104l0-278.176 409.6-175.776 0 278.176-409.6 175.776z" p-id="9924" fill="#515151"></path></svg>