<?xml version="1.0" standalone="no"?><!DOCTYPE svg PUBLIC "-//W3C//DTD SVG 1.1//EN" "http://www.w3.org/Graphics/SVG/1.1/DTD/svg11.dtd"><svg t="1511957109729" class="icon" style="" viewBox="0 0 1024 1024" version="1.1" xmlns="http://www.w3.org/2000/svg" p-id="20124" xmlns:xlink="http://www.w3.org/1999/xlink" width="30" height="30"><defs><style type="text/css"></style></defs><path d="M801.074791 866.559225l-42.189891 0c0.14224-7.299243 0.297782-35.907815-4.675486-74.03518-5.243421-40.202631-17.463744-98.869798-45.901423-150.057621-28.600385-51.482535-68.551282-86.021166-97.029894-105.932658-13.693884-9.573029-26.042119-16.751522-35.637662-21.811772 9.572006-4.973268 21.88238-11.997242 35.537378-21.301142 28.470425-19.399839 68.415183-52.858882 97.032964-102.07991 22.881127-39.356356 39.078017-93.673449 48.137347-161.440879 4.440126-33.214473 5.972015-61.173245 6.502088-76.743872l38.225603 0c8.477069 0 15.349593-6.872524 15.349593-15.349593s-6.872524-15.349593-15.349593-15.349593L222.925209 122.457006c-8.477069 0-15.349593 6.872524-15.349593 15.349593s6.872524 15.349593 15.349593 15.349593l37.155225 0c0.529049 15.570627 2.061962 43.529399 6.502088 76.743872 9.060353 67.768453 25.255197 122.084523 48.137347 161.440879 28.616758 49.222051 68.562539 82.679048 97.033987 102.07991 13.653975 9.3039 25.965371 16.327874 35.537378 21.301142-9.595542 5.060249-21.943778 12.237719-35.637662 21.811772-28.479635 19.910469-68.430532 54.450123-97.03194 105.932658-28.437679 51.186799-40.656979 109.85499-45.9004 150.057621-4.973268 38.126342-4.817726 66.734914-4.675486 74.03518l-41.119513 0c-8.477069 0-15.349593 6.872524-15.349593 15.349593s6.872524 15.349593 15.349593 15.349593l578.149583 0c8.477069 0 15.349593-6.872524 15.349593-15.349593S809.55186 866.559225 801.074791 866.559225zM332.511069 652.40682c26.577309-47.839565 63.798025-80.095199 90.341564-98.729605 28.971845-20.339234 51.931766-29.369911 52.14973-29.454846 3.943822-1.523703 6.545066-5.317099 6.545066-9.5454s-2.601244-8.021697-6.545066-9.5454c-0.908696-0.350994-91.455945-36.123732-142.590556-124.075877-42.557258-73.198116-50.386574-189.023074-51.823296-227.897454l461.751572 0c-1.436722 38.874379-9.266038 154.699338-51.824319 227.897454-50.989301 87.703481-141.689023 123.724883-142.589532 124.075877-3.943822 1.523703-6.545066 5.317099-6.545066 9.5454s2.601244 8.021697 6.545066 9.5454c0.908696 0.349971 91.351568 36.131919 142.492318 128.185474 24.584931 44.252877 36.632315 95.04775 42.511209 136.180566-11.841699-26.647917-28.614711-51.161217-49.854455-72.399937-45.409213-45.410236-105.785302-70.417793-170.004929-70.417793-64.218604 0-124.593669 25.007557-170.003905 70.417793-24.267706 24.266683-42.702568 52.810786-54.612829 83.928504C293.654087 757.265006 305.540811 700.952466 332.511069 652.40682zM732.152049 866.559225 293.988708 866.559225c4.511757-51.343365 26.66736-99.019201 63.548338-135.901203 41.544185-41.544185 96.780207-64.423265 155.532309-64.423265 58.753125 0 113.989147 22.87908 155.533332 64.423265C705.484689 767.541047 727.640292 815.21586 732.152049 866.559225z" p-id="20125" fill="#707070"></path><path d="M509.85822 464.953498c0.867764 0 1.735527-0.110517 2.582825-0.331551 2.114151-0.552585 52.31039-13.996782 96.540753-56.014758 44.51689-42.291199 55.972802-88.744183 56.43943-90.700745 1.305739-5.489014-2.078335-10.988262-7.565303-12.308327-5.479805-1.318018-11.006681 2.060939-12.340049 7.544837-0.103354 0.422625-10.735505 42.72508-50.632167 80.626295-34.520211 32.793894-73.930803 46.796816-84.742033 50.196239-12.288884-4.480035-59.668984-22.941502-84.904739-49.785893-29.372981-31.243585-51.242058-83.989903-51.519374-84.665285-2.142803-5.229095-8.118911-7.732102-13.350053-5.587252-5.229095 2.143826-7.731078 8.120958-5.587252 13.350053 0.944512 2.304486 23.508413 56.842613 55.54506 90.921779 32.499182 34.56933 93.689822 55.356772 96.278787 56.225559C507.660158 464.775442 508.758166 464.953498 509.85822 464.953498z" p-id="20126" fill="#707070"></path></svg>