<?xml version="1.0" standalone="no"?><!DOCTYPE svg PUBLIC "-//W3C//DTD SVG 1.1//EN" "http://www.w3.org/Graphics/SVG/1.1/DTD/svg11.dtd"><svg t="1511957241745" class="icon" style="" viewBox="0 0 1024 1024" version="1.1" xmlns="http://www.w3.org/2000/svg" p-id="24284" xmlns:xlink="http://www.w3.org/1999/xlink" width="30" height="30"><defs><style type="text/css"></style></defs><path d="M158.72 261.12v501.76h706.56V261.12H158.72zM153.6 230.4h716.8a25.6 25.6 0 0 1 25.6 25.6v512a25.6 25.6 0 0 1-25.6 25.6H153.6a25.6 25.6 0 0 1-25.6-25.6V256a25.6 25.6 0 0 1 25.6-25.6z m563.2 25.6h25.7024v512H716.8V256z m89.6 25.6L768 307.2h76.8l-38.4-25.6z m0 461.2608L768 716.8h76.8l-38.4 26.0608zM768 358.4h76.8v25.6h-76.8v-25.6z m0 51.2h76.8v25.6h-76.8v-25.6z m0 51.2h76.8v25.6h-76.8v-25.6z" fill="#707070" p-id="24285"></path></svg>