<?xml version="1.0" standalone="no"?><!DOCTYPE svg PUBLIC "-//W3C//DTD SVG 1.1//EN" "http://www.w3.org/Graphics/SVG/1.1/DTD/svg11.dtd"><svg t="1511954365464" class="icon" style="" viewBox="0 0 1024 1024" version="1.1" xmlns="http://www.w3.org/2000/svg" p-id="9060" xmlns:xlink="http://www.w3.org/1999/xlink" width="30" height="30"><defs><style type="text/css"></style></defs><path d="M282.819 95.086c-109.714 0-199.924 90.21-199.924 199.924 0 109.714 90.21 199.923 199.924 199.923h199.924V295.01c-2.438-109.715-90.21-199.924-199.924-199.924m136.533 336.457H280.381c-75.581 0-138.971-60.953-138.971-138.972 0-75.58 60.952-138.971 138.971-138.971 75.58 0 138.971 60.952 138.971 138.971v138.972M941.105 295.01c0-109.715-90.21-199.924-199.924-199.924s-199.924 90.21-199.924 199.924v199.923h199.924c112.152-2.438 199.924-90.21 199.924-199.923m-336.457 0c0-75.581 60.952-138.972 138.971-138.972 75.581 0 138.971 60.952 138.971 138.972 0 75.58-60.952 138.971-138.971 138.971H604.648V295.01M82.895 753.37c0 109.715 90.21 199.924 199.924 199.924 109.714 0 199.924-90.21 199.924-199.924V553.448H282.819c-112.152 2.438-199.924 90.21-199.924 199.923m336.457 0c0 75.581-60.952 138.972-138.971 138.972-75.581 0-138.971-60.953-138.971-138.972 0-75.58 60.952-138.971 138.971-138.971h138.971v138.971m321.829-197.485H541.257V755.81c0 109.714 90.21 199.923 199.924 199.923s199.924-90.21 199.924-199.923-87.772-199.924-199.924-199.924m0 336.457c-75.581 0-138.971-60.953-138.971-138.972V614.4H741.18c75.58 0 138.971 60.952 138.971 138.971 0 78.02-60.952 138.972-138.971 138.972m0 0" fill="#515151" p-id="9061"></path></svg>