<?xml version="1.0" standalone="no"?><!DOCTYPE svg PUBLIC "-//W3C//DTD SVG 1.1//EN" "http://www.w3.org/Graphics/SVG/1.1/DTD/svg11.dtd"><svg t="1511956806697" class="icon" style="" viewBox="0 0 1024 1024" version="1.1" xmlns="http://www.w3.org/2000/svg" p-id="13876" xmlns:xlink="http://www.w3.org/1999/xlink" width="30" height="30"><defs><style type="text/css"></style></defs><path d="M939.52 801.5872H607.0272c-8.9088-30.4128-36.9664-52.6336-70.144-52.6336s-61.3376 22.2208-70.144 52.6336H84.48c-11.264 0-20.48 9.216-20.48 20.48s9.216 20.48 20.48 20.48h382.1568c8.9088 30.4128 36.9664 52.6336 70.144 52.6336s61.3376-22.2208 70.144-52.6336h332.4928c11.264 0 20.48-9.216 20.48-20.48s-9.0112-20.48-20.3776-20.48zM939.52 491.52H364.2368c-8.9088-30.4128-36.9664-52.6336-70.144-52.6336-33.28 0-61.3376 22.2208-70.144 52.6336H84.48c-11.264 0-20.48 9.216-20.48 20.48s9.216 20.48 20.48 20.48h139.3664c8.9088 30.4128 36.9664 52.6336 70.144 52.6336 33.28 0 61.3376-22.2208 70.144-52.6336h575.2832c11.264 0 20.48-9.216 20.48-20.48 0.1024-11.264-9.0112-20.48-20.3776-20.48zM84.48 222.4128h477.3888c8.9088 30.4128 36.9664 52.6336 70.144 52.6336s61.3376-22.2208 70.144-52.6336h237.3632c11.264 0 20.48-9.216 20.48-20.48s-9.216-20.48-20.48-20.48H702.2592c-8.9088-30.4128-36.9664-52.6336-70.144-52.6336s-61.3376 22.2208-70.144 52.6336H84.48c-11.264 0-20.48 9.216-20.48 20.48 0 11.3664 9.1136 20.48 20.48 20.48z" p-id="13877" fill="#707070"></path></svg>