<?xml version="1.0" standalone="no"?><!DOCTYPE svg PUBLIC "-//W3C//DTD SVG 1.1//EN" "http://www.w3.org/Graphics/SVG/1.1/DTD/svg11.dtd"><svg t="1511957746117" class="icon" style="" viewBox="0 0 1117 1024" version="1.1" xmlns="http://www.w3.org/2000/svg" p-id="32825" xmlns:xlink="http://www.w3.org/1999/xlink" width="32.724609375" height="30"><defs><style type="text/css"></style></defs><path d="M577.722182 743.517091h-0.046546c-7.68 0-15.453091-0.093091-23.086545-0.232727-133.632-2.56-259.211636-26.996364-353.512727-68.701091-100.212364-44.357818-154.717091-104.075636-153.506909-168.215273 1.210182-62.324364 55.202909-118.784 152.064-159.045818 90.763636-37.701818 211.781818-58.507636 340.619636-58.507637 7.633455 0 15.406545 0.046545 23.086545 0.186182 133.632 2.56 259.165091 26.996364 353.512728 68.701091 100.212364 44.357818 154.717091 104.122182 153.460363 168.215273-1.210182 62.370909-55.202909 118.830545-152.064 159.092364-90.763636 37.701818-211.688727 58.507636-340.526545 58.507636z m-37.469091-411.787636c-123.298909 0-238.359273 19.642182-324.002909 55.202909-78.987636 32.814545-124.741818 76.660364-125.579637 120.273454-0.837818 45.056 45.754182 91.787636 127.860364 128.139637 89.227636 39.470545 208.849455 62.557091 336.896 64.977454 7.354182 0.139636 14.894545 0.232727 22.248727 0.232727 123.345455 0 238.359273-19.595636 323.956364-55.202909 78.987636-32.814545 124.741818-76.660364 125.579636-120.273454 0.930909-45.056-45.707636-91.741091-127.860363-128.093091-89.181091-39.470545-208.802909-62.557091-336.849455-65.024-7.400727-0.139636-14.894545-0.232727-22.248727-0.232727z" p-id="32826" fill="#707070"></path><path d="M772.887273 960.558545c-56.692364 0-125.533091-30.859636-199.074909-89.320727-72.704-57.716364-143.592727-137.169455-205.032728-229.841454-73.681455-111.150545-124.741818-228.026182-143.778909-329.122909-20.154182-107.380364-1.722182-185.995636 51.944728-221.370182 19.316364-12.706909 42.216727-19.176727 68.049454-19.176728 56.738909 0 125.579636 30.906182 199.121455 89.320728 72.704 57.716364 143.592727 137.216 204.986181 229.841454 73.728 111.150545 124.741818 228.072727 143.825455 329.122909 20.154182 107.426909 1.722182 186.042182-51.991273 221.370182-19.316364 12.753455-42.170182 19.176727-68.049454 19.176727zM344.994909 114.688c-17.221818 0-32.116364 4.049455-44.264727 12.055273-37.748364 24.855273-49.896727 89.6-33.373091 177.617454 18.013091 95.604364 66.792727 206.894545 137.402182 313.344 58.973091 88.948364 126.696727 165.003636 195.909818 219.973818 64.884364 51.525818 126.045091 79.918545 172.218182 79.918546 17.268364 0 32.162909-4.049455 44.311272-12.008727 37.701818-24.855273 49.896727-89.6 33.326546-177.664-17.966545-95.604364-66.746182-206.894545-137.309091-313.344-59.019636-88.901818-126.743273-165.003636-195.956364-219.927273-64.884364-51.572364-126.091636-79.965091-172.218181-79.965091z" p-id="32827" fill="#707070"></path><path d="M369.803636 976.849455c-20.945455 0-40.168727-4.654545-57.390545-14.103273-56.413091-30.906182-81.175273-107.799273-69.771636-216.436364 10.752-102.353455 52.130909-222.952727 116.596363-339.688727C429.614545 279.272727 520.052364 171.054545 607.557818 109.661091a21.597091 21.597091 0 0 1 30.021818 5.259636 21.410909 21.410909 0 0 1-5.213091 29.928728c-82.338909 57.716364-168.075636 160.674909-235.380363 282.530909-61.719273 111.755636-101.282909 226.676364-111.476364 323.397818-9.309091 89.041455 8.052364 152.622545 47.662546 174.359273 39.656727 21.690182 102.818909 2.327273 173.288727-53.248 76.567273-60.322909 152.715636-155.136 214.434909-266.938182 67.258182-121.856 108.637091-249.157818 113.477818-349.323637a21.504 21.504 0 0 1 43.054546 2.048c-5.12 106.496-48.407273 240.64-118.737455 367.988364-64.465455 116.736-144.523636 216.110545-225.512727 279.924364-59.717818 47.104-115.805091 71.214545-163.374546 71.214545z" p-id="32828" fill="#707070"></path><path d="M675.514182 108.776727c0 38.586182 20.666182 74.24 54.178909 93.556364 33.512727 19.269818 74.798545 19.269818 108.311273 0a107.892364 107.892364 0 0 0-54.132364-201.541818 108.171636 108.171636 0 0 0-108.357818 107.985454z" p-id="32829" fill="#707070"></path></svg>