<?xml version="1.0" standalone="no"?><!DOCTYPE svg PUBLIC "-//W3C//DTD SVG 1.1//EN" "http://www.w3.org/Graphics/SVG/1.1/DTD/svg11.dtd"><svg t="1511957545738" class="icon" style="" viewBox="0 0 1024 1024" version="1.1" xmlns="http://www.w3.org/2000/svg" p-id="27969" xmlns:xlink="http://www.w3.org/1999/xlink" width="30" height="30"><defs><style type="text/css"></style></defs><path d="M228.4 201.1c-11.7-11.7-30.6-11.7-42.2 0-11.7 11.7-11.7 30.6 0 42.2l42.2 42.2c11.7 11.7 30.6 11.7 42.2 0 11.7-11.7 11.7-30.6 0-42.2l-42.2-42.2z m567.2 0l-42.2 42.2c-11.7 11.7-11.7 30.6 0 42.2 11.7 11.7 30.6 11.7 42.2 0l42.2-42.2c11.7-11.7 11.7-30.6 0-42.2-11.6-11.7-30.5-11.7-42.2 0zM153.7 437.4H94c-16.5 0-29.9 13.4-29.9 29.9s13.4 29.9 29.9 29.9h59.7c16.5 0 29.9-13.4 29.9-29.9 0-16.6-13.4-29.9-29.9-29.9z m776.3 0h-59.7c-16.5 0-29.9 13.4-29.9 29.9s13.4 29.9 29.9 29.9H930c16.5 0 29.9-13.4 29.9-29.9-0.1-16.6-13.4-29.9-29.9-29.9zM482.1 94v59.7c0 16.5 13.4 29.9 29.9 29.9s29.9-13.4 29.9-29.9V94c0-16.5-13.4-29.9-29.9-29.9-16.5 0.1-29.9 13.4-29.9 29.9zM303 512c0-115.4 93.6-209 209-209s209 93.6 209 209-93.6 209-209 209-209-93.6-209-209z m-59.7 0c0 148.4 120.3 268.7 268.7 268.7 148.4 0 268.7-120.3 268.7-268.7 0-148.4-120.3-268.7-268.7-268.7-148.4 0-268.7 120.3-268.7 268.7z m209 418c0 16.5 13.4 29.9 29.9 29.9h59.7c16.5 0 29.9-13.4 29.9-29.9s-13.4-29.9-29.9-29.9h-59.7c-16.5 0-29.9 13.4-29.9 29.9z m-59.7-89.6c0 16.5 13.4 29.9 29.9 29.9h179.1c16.5 0 29.9-13.4 29.9-29.9s-13.4-29.9-29.9-29.9H422.4c-16.5 0.1-29.8 13.4-29.8 29.9z" p-id="27970" fill="#707070"></path></svg>