<?xml version="1.0" standalone="no"?><!DOCTYPE svg PUBLIC "-//W3C//DTD SVG 1.1//EN" "http://www.w3.org/Graphics/SVG/1.1/DTD/svg11.dtd"><svg t="1511957969442" class="icon" style="" viewBox="0 0 1024 1024" version="1.1" xmlns="http://www.w3.org/2000/svg" p-id="37493" xmlns:xlink="http://www.w3.org/1999/xlink" width="30" height="30"><defs><style type="text/css"></style></defs><path d="M911.222866 462.365781L731.823306 581.9996v-13.304017c0-30.59924-13.611033-59.868079-37.455926-80.335799l-7.470718-6.344993 8.391765-5.11693c58.333-35.102139 93.230462-96.30062 93.230462-163.434739 0-105.613432-85.862083-191.475515-191.475515-191.475515s-191.475515 85.862083-191.475515 191.475515c0 51.78333 20.467719 100.291825 57.718969 136.724366l12.485309 12.178293H338.43374l10.643214-11.871278c27.324405-30.292225 42.368179-68.873876 42.368179-108.68359 0-89.955627-73.172097-163.127723-163.127723-163.127723S65.292025 251.855287 65.292025 341.810913c0 46.6664 20.672397 91.286028 56.593244 122.601639l7.675395 6.652009-8.903458 4.912253c-34.181091 18.830302-55.365181 54.341795-55.365181 92.821107v226.884669c0 58.640016 47.689786 106.329802 106.329802 106.329803h453.871677c58.640016 0 106.329802-47.689786 106.329802-106.329803V752.188687l179.808915 149.823706c26.198681-1.330402 47.178093-23.026184 47.178093-49.531881V512c-0.102339-26.710374-21.18409-48.508495-47.587448-49.634219zM447.8337 313.463122c0-82.280232 66.929442-149.209674 149.209674-149.209674s149.209674 66.929442 149.209674 149.209674-66.929442 149.209674-149.209674 149.209674-149.209674-66.929442-149.209674-149.209674zM107.762542 341.810913c0-66.417749 54.034779-120.554867 120.554868-120.554867S348.872277 275.393164 348.872277 341.810913s-54.034779 120.554867-120.554867 120.554868S107.762542 408.228663 107.762542 341.810913z m581.487908 453.871677c0 35.204477-28.654807 63.859284-63.859285 63.859285H171.621827c-35.204477 0-63.859284-28.654807-63.859285-63.859285V568.695583c0-35.204477 28.654807-63.859284 63.859285-63.859285h453.871677c35.204477 0 63.859284 28.654807 63.859284 63.859285v226.987007z m226.987008 71.841695L731.823306 713.914052v-92.207076l184.414152-122.908655v368.725964z" p-id="37494" fill="#707070"></path></svg>