<?xml version="1.0" standalone="no"?><!DOCTYPE svg PUBLIC "-//W3C//DTD SVG 1.1//EN" "http://www.w3.org/Graphics/SVG/1.1/DTD/svg11.dtd"><svg t="1515465620051" class="icon" style="" viewBox="0 0 1024 1024" version="1.1" xmlns="http://www.w3.org/2000/svg" p-id="1898" xmlns:xlink="http://www.w3.org/1999/xlink" width="30" height="30"><defs><style type="text/css"></style></defs><path d="M903.7 932.9c-4.1 0-8.2-1.1-11.9-3.1l-86-47c-31.9 7.9-65.8 15.6-99.9 15.6-64.4 0-126.5-16.7-179.7-48.4-52.7-31.4-92.8-75.1-116-126.6-1.9 0.7-4 1.1-6.1 1.3-11.5 1-23.1 1.5-34.3 1.5-38.6 0-69.6-6.4-105.6-13.8l-11.6-2.3-112.8 56.4c-3.5 1.7-7.3 2.6-11.1 2.6-5.9 0-11.7-2.1-16.2-6-7.6-6.6-10.4-17-7.3-26.5l28.7-86.4C47 584.4 1 500.8 1 408.7 1 233.6 166.5 91.1 370 91.1c179.2 0 338.6 111.8 371.2 260.2 74.4 7.5 144.1 38.4 196.5 87.3 55.1 51.4 85.4 117.2 85.4 185.3 0 72.6-41.4 146.3-116.7 207.4l21 69.8c2.9 9.6-0.2 19.9-8.1 26.3-4.5 3.5-10 5.5-15.6 5.5z m-94.5-101.2c4.1 0 8.3 1.1 11.9 3.1l41.5 22.7-8.5-28.3c-3-9.9 0.6-20.6 8.8-26.8 71.4-53.7 110.7-117.1 110.7-178.6 0-122-122.5-225.1-267.6-225.1-147.9 0-268.2 101-268.2 225.1C437.8 748 558.1 849 706 849c31.9 0 65.1-8.4 97.1-16.5 1.9-0.5 4-0.8 6.1-0.8zM370 140.6c-176.2 0-319.6 120.3-319.6 268.1 0 81.9 42.8 153.2 127.2 212.1 9 6.3 12.8 17.6 9.3 28.1l-15.6 46.9 67.1-33.6c3.3-1.7 7.1-2.6 11-2.6 1.7 0 3.4 0.2 5 0.5l19.6 4c33.3 6.9 62 12.8 96 12.8 8.1 0 16.3-0.3 24.4-0.8-4-17.7-6-35.2-6-52.1 0-72.7 32.7-141.3 92-193 56-48.8 130.3-77.5 209.3-81C655.8 228.5 521.6 140.6 370 140.6z m430.3 449.3c-22.2 0-43.2-21.1-43.2-43.4 0-22 21.4-43.6 43.2-43.6 32.3 0 52.2 22.6 52.2 43.6 0 20.9-20 43.4-52.2 43.4z m-189.3 0c-22.4 0-43.5-21.1-43.5-43.4 0-22 21.5-43.6 43.5-43.6 32.1 0 52 22.6 52 43.6 0 20.9-19.8 43.4-52 43.4zM499.1 357.3c-29.2 0-60.8-19.9-60.8-52.1 0-15 7-28.6 19.7-38.4 11.2-8.6 26.2-13.5 41.1-13.5 31.2 0 52.1 20.9 52.1 51.9 0 30.7-21.4 52.1-52.1 52.1z m-241 0c-29.3 0-61-19.9-61-52.1 0-32.1 31.6-51.9 61-51.9 31.1 0 52 20.9 52 51.9 0 30.7-21.4 52.1-52 52.1z" fill="#515151" p-id="1899"></path></svg>